<?xml version="1.0" encoding="utf-8"?>
<!-- Generator: Adobe Illustrator 16.0.0, SVG Export Plug-In . SVG Version: 6.00 Build 0)  -->
<!DOCTYPE svg PUBLIC "-//W3C//DTD SVG 1.1//EN" "http://www.w3.org/Graphics/SVG/1.1/DTD/svg11.dtd">
<svg version="1.1" id="Layer_1" xmlns="http://www.w3.org/2000/svg" xmlns:xlink="http://www.w3.org/1999/xlink" x="0px" y="0px"
	 width="1280px" height="646.467px" viewBox="0 0 1280 646.467" enable-background="new 0 0 1280 646.467" xml:space="preserve">
<g>
	<path fill="none" stroke="#000000" stroke-miterlimit="10" d="M556.731,458.489h58.026v-23.711h33.756v-32.144h-33.756V286.9l0,0
		h-94.836c-4.822,1.608-162.347,115.734-162.347,115.734s-2.354,8.192-3.181,12.591 M515.743,431.567h18.709 M361.297,431.567
		h140.627 M546.446,394.185h-99.659l99.659-69.516V394.185z"/>
	<polyline fill="none" stroke="#000000" stroke-miterlimit="10" points="825.373,446.915 843.812,458.489 937.852,458.489 
		786.75,365.658 927.401,286.9 837.386,286.9 729.691,349.989 729.691,286.9 659.362,286.9 659.362,458.489 662.137,458.489 	"/>
	<polyline fill="none" stroke="#000000" stroke-miterlimit="10" points="730.494,431.838 730.494,387.359 814.782,440.266 	"/>
	<line fill="none" stroke="#000000" stroke-miterlimit="10" x1="676.56" y1="458.489" x2="719.643" y2="458.489"/>
</g>
<g>
	<path fill="none" stroke="#000000" stroke-miterlimit="10" d="M635.779,207.877c0.022,0,0.043,0,0.065,0c0.022,0,0.042,0,0.065,0
		H635.779z"/>
</g>
<g>
	<g>
		<path d="M1019.703,429.827c0.316,0,0.656,0.023,1.02,0.073c2.057,0.284,4.769,0.336,5.248,1.333
			c0.227,0.466-0.019,1.016-0.511,1.462c-2.668,2.425-5.494,4.827-8.241,7.239c-2.487,2.188-5.146,4.351-7.357,6.572
			c-2.837,2.846-6.361,5.566-10.601,8.173c-1.123,0.691-2.643,1.302-3.868,1.975c-0.334,0.185-0.549,0.504-0.334,0.69
			c2.031,1.739,4.14,3.469,6.28,5.192c1.938,1.564,4.12,3.092,5.876,4.68c2.231,2.022,4.183,4.086,6.165,6.142
			c0.324,0.337,0.394,0.559,0.87,0.559c0.293,0,0.741-0.084,1.499-0.276c3.273-0.833,7.047-1.483,10.856-1.961
			c2.661-0.335,21.438-1.042,22.431-1.759c2.433-1.757,4.583-3.561,6.891-5.338c2.441-1.884,4.853-3.772,7.425-5.632
			c3.197-2.314,6.627-4.588,9.809-6.904c3.07-2.236,5.937-4.507,8.927-6.756c1.513-1.14,2.929-2.3,4.692-3.389
			c1.115-0.688,2.189-0.999,3.553-0.999c0.88,0,1.88,0.13,3.091,0.372c1.795,0.359,2.175,1.238,1.218,2.169
			c-1.469,1.431-2.457,2.934-4.201,4.317c-4.235,3.366-8.654,6.703-13.241,10.01c-5.55,4.001-11.347,7.957-17.051,11.931
			c-0.158,0.11-0.474,0.19-0.928,0.367c1.363,0.186,2.334,0.356,3.36,0.447c1.601,0.139,2.74,0.457,2.87,1.038
			c0.127,0.565-0.61,1.052-2.128,1.301c-2.762,0.453-5.503,0.936-8.355,1.306c-5.395,0.7-28.669,1.341-34.127,1.979
			c-0.659,0.077-1.391,0.1-2.111,0.1c-0.23,0-0.46-0.003-0.686-0.006c-0.062-0.001-0.123-0.002-0.183-0.002
			c-1.606,0-1.84,0.38-1.543,0.816c1.14,1.669,2.456,3.325,3.562,4.997c0.529,0.803,0.749,1.631,1.079,2.451
			c0.598,1.474,1.132,2.951,1.776,4.423c0.344,0.785-2.028,1.657-4.965,1.811c-0.469,0.751-0.585,1.54-1.451,2.203
			c-2.073,1.588-4.337,3.151-6.827,4.663c-3.274,1.988-6.845,3.916-10.277,5.872c-2.475,1.409-5.03,2.802-7.383,4.238
			c-4.157,2.539-8.15,5.113-12.285,7.656c-2.521,1.553-4.984,3.126-7.867,4.592c-1.144,0.582-2.354,1.562-4.456,1.562
			c-0.208,0-0.426-0.01-0.652-0.03c-0.575-0.052-1.112-0.075-1.62-0.075c-2.615,0-4.441,0.606-6.651,0.923
			c-5.133,0.732-10.146,1.575-15.321,2.266c-6.082,0.812-12.27,1.528-18.435,2.258c-5.111,0.606-10.318,1.118-15.376,1.775
			c-6.163,0.804-12.119,1.825-18.359,2.533c-2.492,0.284-4.999,0.766-7.754,0.766c-0.588,0-1.187-0.021-1.8-0.072
			c-0.074-0.006-0.151-0.009-0.23-0.009c-0.488,0-1.059,0.104-1.55,0.173c-0.595,0.085-1.197,0.125-1.782,0.125
			c-2.379,0-4.47-0.657-4.596-1.602c-0.094-0.696,0.067-1.403-0.172-2.093c-0.765-2.209-1.53-4.419-2.547-6.614
			c-0.826-1.786-1.77-3.575-3.12-5.317c-0.978-1.262-2.907-2.427-4.048-3.678c-1.448-1.587-4.431-3.065-3.046-4.887
			c0.764-0.09,1.392-0.137,1.916-0.137c1.365,0,2.026,0.315,2.558,0.998c0.451,0.584,1.295,1.178,2.382,1.643
			c3.611,1.543,6.138,3.304,7.843,5.181c1.952,2.146,3.482,4.349,4.858,6.553c0.921,1.476,1.332,2.996,1.802,4.504
			c0.126,0.396,0.498,0.624,1.311,0.624c0.167,0,0.351-0.01,0.556-0.029c2.379-0.229,4.735-0.5,7.047-0.803
			c6.464-0.848,12.892-1.732,19.354-2.582c4.151-0.545,8.301-1.1,12.523-1.567c4.751-0.527,9.604-0.933,14.371-1.441
			c2.597-0.276,5.102-0.663,7.654-0.989c3.506-0.448,7.066-0.85,10.521-1.344c3.524-0.504,7.133-0.993,10.34-1.699
			c1.681-0.37,2.771-1.156,3.789-1.821c2.787-1.822,5.313-3.696,8.096-5.521c3.023-1.983,6.103-3.957,9.376-5.888
			c2.21-1.305,4.815-2.524,7.217-3.788c2.167-1.141,4.206-2.313,6.471-3.429c4.122-2.032,8.38-4.029,12.545-6.049
			c0.369-0.179,0.773-0.445,0.667-0.637c-0.734-1.307-1.62-2.603-2.422-3.905c-0.764-1.243-1.445-2.49-2.237-3.729
			c-0.693-1.084-1.391-2.17-2.272-3.235c-1.385-1.676-2.791-3.351-4.437-4.995c-1.829-1.829-3.88-3.629-5.939-5.427
			c-1.646-1.439-3.415-2.862-5.188-4.283c-3.713-2.976-7.621-5.922-11.125-8.928c-1.378-1.186-2.975-2.489-1.055-3.798
			c0.635-0.43,2.049-0.771,3.325-0.992c0.029-0.005,0.063-0.008,0.102-0.008c0.477,0,1.583,0.381,2.175,0.624
			c1.18,0.486,2.216,1.017,3.288,1.535c0.609,0.294,1.104,0.443,1.55,0.443c0.51,0,0.958-0.193,1.448-0.588
			c1.317-1.061,2.688-2.114,3.931-3.186c3.517-3.041,6.93-6.101,10.48-9.137c2.247-1.921,4.616-3.823,7.027-5.719
			c1.691-1.328,3.539-2.632,5.333-3.941C1017.874,430.081,1018.661,429.827,1019.703,429.827 M1019.703,428.827
			c-1.183,0-2.203,0.288-2.95,0.834c-0.438,0.32-0.881,0.641-1.323,0.961c-1.35,0.977-2.746,1.987-4.037,3.002
			c-2.917,2.292-5.094,4.064-7.06,5.745c-2.025,1.73-4.035,3.496-5.979,5.204c-1.496,1.312-2.991,2.626-4.506,3.936
			c-0.863,0.745-1.814,1.5-2.734,2.231c-0.392,0.311-0.782,0.621-1.169,0.932c-0.401,0.323-0.632,0.367-0.821,0.367
			c-0.271,0-0.635-0.112-1.115-0.344l-0.651-0.317c-0.847-0.415-1.723-0.843-2.69-1.242c-0.175-0.072-1.727-0.699-2.556-0.699
			c-0.103,0-0.193,0.009-0.272,0.022c-1.8,0.312-3.05,0.699-3.715,1.149c-0.836,0.569-1.279,1.244-1.322,2.006
			c-0.075,1.35,1.129,2.385,2.192,3.298l0.093,0.08c2.378,2.04,4.974,4.079,7.483,6.05c1.229,0.966,2.46,1.932,3.669,2.9
			c1.885,1.511,3.573,2.873,5.155,4.256c1.787,1.56,4.01,3.5,5.891,5.381c1.607,1.606,2.985,3.246,4.373,4.925
			c0.854,1.033,1.539,2.103,2.2,3.138c0.446,0.698,0.869,1.419,1.277,2.116c0.312,0.532,0.624,1.065,0.951,1.598
			c0.29,0.473,0.592,0.943,0.893,1.414c0.375,0.586,0.759,1.187,1.116,1.783c-1.613,0.781-3.24,1.56-4.867,2.338
			c-2.48,1.188-5.046,2.414-7.522,3.636c-1.465,0.721-2.852,1.475-4.193,2.203c-0.761,0.414-1.522,0.827-2.301,1.237
			c-0.812,0.428-1.649,0.851-2.485,1.272c-1.616,0.817-3.288,1.662-4.774,2.539c-3.519,2.075-6.734,4.153-9.416,5.913
			c-1.386,0.909-2.727,1.842-4.022,2.744c-1.314,0.915-2.674,1.861-4.071,2.775l-0.263,0.173c-0.903,0.595-1.836,1.21-3.194,1.509
			c-2.887,0.636-6.161,1.102-9.328,1.552l-0.938,0.134c-2.284,0.327-4.658,0.618-6.954,0.9c-1.187,0.146-2.372,0.291-3.552,0.441
			c-0.904,0.116-1.803,0.239-2.701,0.362c-1.606,0.22-3.268,0.447-4.932,0.625c-2.183,0.232-4.422,0.447-6.588,0.655
			c-2.562,0.246-5.21,0.5-7.788,0.786c-3.836,0.425-7.668,0.929-11.374,1.416l-1.169,0.154c-3.151,0.414-6.293,0.837-9.436,1.259
			c-3.304,0.444-6.606,0.889-9.919,1.323c-2.381,0.312-4.74,0.58-7.013,0.799c-0.169,0.016-0.322,0.024-0.46,0.024
			c-0.2,0-0.323-0.019-0.391-0.034l-0.113-0.366c-0.427-1.391-0.868-2.828-1.76-4.257c-1.702-2.727-3.234-4.791-4.968-6.696
			c-1.899-2.091-4.654-3.917-8.189-5.428c-0.891-0.381-1.632-0.88-1.983-1.334c-0.767-0.985-1.736-1.387-3.349-1.387
			c-0.549,0-1.214,0.047-2.033,0.144l-0.422,0.05l-0.257,0.338c-1.602,2.107,0.486,3.872,1.868,5.04
			c0.465,0.393,0.904,0.764,1.235,1.126c0.569,0.626,1.294,1.21,1.993,1.776c0.758,0.611,1.541,1.245,2.003,1.84
			c1.382,1.783,2.293,3.591,3.003,5.125c0.998,2.155,1.766,4.375,2.509,6.521c0.09,0.259,0.088,0.575,0.085,0.942
			c-0.002,0.288-0.005,0.615,0.041,0.957c0.243,1.821,3.162,2.468,5.587,2.468c0.65,0,1.298-0.046,1.924-0.135l0.294-0.044
			c0.391-0.059,0.794-0.119,1.114-0.119c0.052,0,0.102,0.002,0.149,0.006c0.609,0.05,1.243,0.075,1.881,0.075
			c2.064,0,3.975-0.259,5.822-0.51c0.686-0.093,1.366-0.185,2.045-0.263c3.689-0.418,7.333-0.954,10.857-1.472
			c2.454-0.36,4.991-0.733,7.518-1.063c3.056-0.396,6.224-0.747,9.287-1.085c2.031-0.225,4.062-0.449,6.078-0.688l2.408-0.284
			c5.281-0.623,10.743-1.268,16.041-1.976c3.008-0.401,6.006-0.86,8.904-1.305c2.1-0.322,4.271-0.654,6.426-0.962
			c0.742-0.106,1.442-0.244,2.119-0.378c1.399-0.275,2.721-0.535,4.391-0.535c0.496,0,1.011,0.024,1.529,0.071
			c0.251,0.022,0.501,0.034,0.743,0.034c1.958,0,3.239-0.731,4.27-1.318c0.22-0.125,0.431-0.246,0.64-0.353
			c2.534-1.289,4.769-2.671,6.929-4.008l1.01-0.624c1.926-1.185,3.82-2.376,5.716-3.567c2.138-1.343,4.348-2.732,6.566-4.087
			c1.673-1.021,3.488-2.043,5.243-3.029c0.707-0.397,1.413-0.795,2.113-1.193c1.089-0.621,2.192-1.238,3.295-1.856
			c2.339-1.31,4.758-2.665,7.007-4.03c2.394-1.453,4.721-3.043,6.916-4.724c0.787-0.604,1.114-1.299,1.377-1.858
			c0.028-0.061,0.056-0.12,0.084-0.179c2.066-0.176,4.47-0.742,5.157-1.855c0.253-0.411,0.292-0.891,0.105-1.316
			c-0.4-0.914-0.767-1.855-1.121-2.766c-0.212-0.544-0.424-1.088-0.645-1.632c-0.082-0.202-0.156-0.408-0.232-0.613
			c-0.237-0.65-0.483-1.323-0.938-2.013c-0.615-0.93-1.297-1.858-1.956-2.757c-0.362-0.494-0.733-0.999-1.092-1.503
			c0.06-0.002,0.125-0.003,0.193-0.003l0.166,0.002c0.232,0.003,0.467,0.006,0.703,0.006c0.905,0,1.613-0.034,2.228-0.106
			c2.589-0.303,9.505-0.618,16.193-0.924c7.426-0.338,15.104-0.688,17.945-1.058c2.3-0.298,4.555-0.673,6.735-1.036l1.653-0.273
			c1.392-0.229,2.276-0.648,2.704-1.281c0.248-0.368,0.332-0.804,0.237-1.226c-0.301-1.347-2.167-1.678-3.76-1.815
			c-0.146-0.014-0.294-0.028-0.441-0.045c1.067-0.741,2.139-1.483,3.209-2.225c4.089-2.832,8.317-5.762,12.35-8.668
			c4.629-3.338,9.097-6.715,13.278-10.038c1.139-0.903,1.967-1.846,2.768-2.757c0.498-0.565,0.968-1.101,1.509-1.627
			c0.933-0.906,0.865-1.741,0.742-2.158c-0.174-0.589-0.742-1.364-2.461-1.708c-1.334-0.268-2.379-0.392-3.287-0.392
			c-1.532,0-2.789,0.354-4.077,1.147c-1.422,0.878-2.627,1.803-3.793,2.696c-0.324,0.249-0.647,0.498-0.977,0.745
			c-1.137,0.854-2.256,1.713-3.375,2.571c-1.791,1.374-3.644,2.795-5.539,4.175c-1.63,1.188-3.359,2.386-5.031,3.545
			c-1.582,1.097-3.217,2.23-4.774,3.358c-2.186,1.579-4.284,3.202-6.314,4.771l-1.135,0.878c-0.83,0.64-1.641,1.282-2.451,1.926
			c-1.39,1.103-2.825,2.242-4.342,3.341c-1.221,0.392-9.719,0.87-14.824,1.157c-3.5,0.197-6.264,0.353-7.219,0.473
			c-4.16,0.521-7.854,1.189-10.979,1.984c-0.22,0.056-0.855,0.218-1.178,0.242c-0.005-0.006-0.01-0.012-0.016-0.019
			c-0.061-0.07-0.128-0.147-0.208-0.23l-0.642-0.666c-1.749-1.817-3.557-3.696-5.572-5.523c-1.145-1.034-2.467-2.046-3.746-3.024
			c-0.725-0.555-1.474-1.128-2.174-1.692c-2.129-1.714-3.901-3.174-5.507-4.534c0.346-0.175,0.7-0.344,1.048-0.51
			c0.781-0.374,1.591-0.761,2.277-1.184c4.271-2.626,7.9-5.425,10.784-8.318c1.567-1.574,3.41-3.159,5.191-4.691
			c0.711-0.611,1.421-1.223,2.118-1.836c0.902-0.792,1.814-1.584,2.727-2.376c1.833-1.593,3.729-3.24,5.527-4.874
			c0.864-0.784,1.147-1.796,0.737-2.64c-0.621-1.291-2.615-1.507-4.727-1.735c-0.438-0.047-0.875-0.094-1.284-0.15
			C1020.46,428.854,1020.071,428.827,1019.703,428.827L1019.703,428.827z"/>
	</g>
	<g>
		<path d="M745.702,416.442c0.257,0,0.522,0.007,0.797,0.021c2.375,0.122,4.41,0.852,4.488,1.736
			c0.061,0.698,0.838,1.002,2.117,1.388c0.937,0.282,1.589,0.935,1.662,1.438c0.249,1.725,0.101,3.46,0.263,5.188
			c0.24,2.579,0.574,5.158,0.949,7.736c0.214,1.46,0.556,2.918,0.901,4.374c0.898,3.79,1.801,7.579,2.764,11.366
			c0.577,2.268,1.251,4.531,1.917,6.795c0.213,0.719,0.083,1.545,0.934,2.118c0.822,0.556,2.578,0.985,4.146,1.229
			c2.222,0.343,4.693,0.665,4.943,1.677c0.244,0.984-2.001,1.501-4.053,1.898c-0.537,0.104-1.019,0.254-1.547,0.368
			c-1.222,0.263-1.972,0.528-1.73,1.231c1.114,3.229,2.006,6.471,3.021,9.707c0.55,1.756,0.987,3.522,1.832,5.257
			c0.923,1.898,2.201,3.772,3.426,5.646c0.927,1.42,1.915,2.834,3.058,4.228c1.038,1.265,2.33,2.495,3.497,3.743
			c1.583,1.69-1.894,3.842-6.369,3.946c-0.025,0.001-0.052,0.001-0.079,0.001c-1.466,0-4.04-0.891-4.589-1.621
			c-0.315-0.421-0.813-0.854-0.784-1.277c0.126-1.826-2.212-3.308-3.666-4.932c-1.789-1.995-2.779-4.113-4.058-6.183
			c-0.942-1.524-1.842-3.054-2.664-4.59c-0.44-0.821-0.767-1.657-0.995-2.494c-0.731-2.682-1.352-5.367-2.108-8.046
			c-0.212-0.748-0.753-1.48-1.25-2.423c-7.873,0.337-15.818,0.678-24.183,1.037c-0.232,0.822-0.54,1.812-0.787,2.804
			c-0.708,2.842-1.348,5.688-2.1,8.53c-0.523,1.973-1.07,3.949-1.82,5.91c-0.989,2.585-2.214,5.156-3.274,7.738
			c-0.268,0.651,0.055,1.382-0.544,1.964c-0.545,0.528-1.798,1.134-3.056,1.298c-0.65,0.084-1.324,0.142-1.987,0.142
			c-1.262,0-2.484-0.207-3.432-0.832c-2.162-1.425-3.079-2.811-1.93-4.511c1.121-1.664,1.484-3.414,2.114-5.131
			c0.697-1.902,1.339-3.806,1.964-5.711c0.967-2.946,1.946-5.892,2.832-8.842c0.697-2.324,1.242-4.657,1.896-6.984
			c0.612-2.175,1.233-4.35,1.936-6.521c0.872-2.693,1.797-5.385,2.763-8.073c0.884-2.461,1.699-4.93,2.834-7.371
			c0.946-2.029,2.379-4.021,3.469-6.042c0.632-1.17,1.041-2.361,1.621-3.536c0.147-0.303,0.307-0.602,0.483-0.901
			c1.043-1.752,2.277-3.487,3.604-5.208c1.517-1.967,3.207-3.911,4.861-5.859c0.667-0.786,1.453-1.556,2.167-2.336
			C742.649,416.775,743.971,416.442,745.702,416.442 M729.434,462.286c7.637-0.405,14.818-0.917,21.554-2.099
			c-0.564-2.167-1.138-4.266-1.649-6.369c-0.385-1.582-0.643-3.172-1.049-4.754c-0.193-0.747-0.707-1.48-0.903-2.227
			c-0.37-1.415-0.616-2.833-0.919-4.249c-0.614-2.877-1.285-5.752-1.827-8.631c-0.264-1.404-0.29-2.814-0.424-4.223
			c-0.243-0.012-0.486-0.023-0.729-0.034c-0.944,1.537-1.948,3.066-2.811,4.611c-0.772,1.384-1.363,2.786-2.085,4.176
			c-0.832,1.599-1.85,3.185-2.547,4.792c-0.824,1.898-1.4,3.813-2.069,5.722c-0.339,0.968-0.651,1.935-0.957,2.904
			c-0.621,1.975-1.216,3.95-1.854,5.925c-0.118,0.369-0.434,0.727-0.569,1.094C730.208,459.971,729.867,461.022,729.434,462.286
			 M745.702,415.442c-2.116,0-3.625,0.477-4.483,1.418c-0.266,0.29-0.542,0.579-0.818,0.868c-0.462,0.483-0.939,0.984-1.373,1.495
			l-0.844,0.99c-1.363,1.6-2.772,3.253-4.047,4.905c-1.512,1.959-2.713,3.695-3.672,5.307c-0.188,0.318-0.357,0.636-0.523,0.976
			c-0.261,0.529-0.49,1.063-0.711,1.581c-0.285,0.666-0.555,1.296-0.891,1.917c-0.438,0.813-0.95,1.647-1.445,2.454
			c-0.724,1.181-1.472,2.4-2.05,3.641c-0.954,2.052-1.69,4.134-2.403,6.147c-0.154,0.437-0.309,0.872-0.466,1.309
			c-1.003,2.792-1.936,5.519-2.772,8.104c-0.716,2.213-1.354,4.453-1.947,6.557c-0.274,0.979-0.53,1.958-0.786,2.937
			c-0.347,1.325-0.704,2.695-1.105,4.032c-0.775,2.583-1.64,5.213-2.476,7.756l-0.349,1.062c-0.511,1.557-1.194,3.609-1.952,5.679
			c-0.169,0.459-0.319,0.921-0.47,1.384c-0.403,1.243-0.785,2.419-1.535,3.532c-0.576,0.853-0.782,1.719-0.612,2.574
			c0.23,1.156,1.127,2.214,2.821,3.33c1.017,0.671,2.319,0.997,3.981,0.997c0.645,0,1.337-0.049,2.115-0.149
			c1.363-0.178,2.853-0.824,3.624-1.572c0.646-0.628,0.687-1.358,0.713-1.842c0.01-0.187,0.02-0.362,0.06-0.46
			c0.433-1.052,0.902-2.125,1.356-3.163c0.657-1.502,1.337-3.055,1.927-4.598c0.777-2.032,1.342-4.084,1.854-6.011
			c0.469-1.774,0.9-3.573,1.318-5.313c0.258-1.077,0.517-2.155,0.785-3.231c0.168-0.675,0.362-1.34,0.55-1.983
			c0.01-0.031,0.019-0.063,0.028-0.094l22.846-0.98c0.069,0.121,0.139,0.238,0.206,0.354c0.295,0.504,0.55,0.938,0.657,1.316
			c0.414,1.466,0.795,2.965,1.163,4.415c0.307,1.207,0.613,2.415,0.942,3.621c0.256,0.937,0.618,1.846,1.079,2.704
			c0.763,1.425,1.644,2.943,2.694,4.643c0.335,0.543,0.65,1.09,0.966,1.637c0.894,1.548,1.816,3.147,3.198,4.688
			c0.418,0.467,0.894,0.913,1.354,1.345c1.041,0.977,2.117,1.986,2.058,2.851c-0.05,0.725,0.42,1.275,0.762,1.678
			c0.077,0.09,0.153,0.179,0.221,0.268c0.837,1.116,3.86,2.021,5.389,2.021l0.102-0.001c3.634-0.085,6.812-1.437,7.559-3.214
			c0.35-0.834,0.175-1.715-0.482-2.416c-0.39-0.417-0.794-0.833-1.199-1.249c-0.78-0.802-1.587-1.632-2.254-2.445
			c-0.975-1.188-1.926-2.504-2.994-4.14l-0.467-0.713c-1.042-1.585-2.118-3.224-2.896-4.824c-0.626-1.285-1.015-2.585-1.426-3.962
			c-0.115-0.386-0.23-0.771-0.352-1.156c-0.359-1.146-0.702-2.291-1.046-3.437c-0.589-1.963-1.196-3.989-1.879-5.993
			c0.167-0.059,0.44-0.136,0.891-0.232c0.247-0.053,0.482-0.113,0.718-0.174c0.265-0.067,0.528-0.136,0.809-0.189
			c2.537-0.492,4.025-0.937,4.625-1.875c0.24-0.377,0.314-0.819,0.209-1.246c-0.396-1.604-2.716-1.959-5.401-2.369l-0.36-0.056
			c-1.7-0.264-3.168-0.684-3.739-1.068c-0.245-0.166-0.295-0.324-0.387-0.876c-0.035-0.211-0.074-0.451-0.147-0.698l-0.147-0.501
			c-0.604-2.053-1.229-4.175-1.76-6.257c-0.944-3.716-1.809-7.339-2.76-11.35c-0.313-1.324-0.67-2.824-0.885-4.288
			c-0.431-2.964-0.73-5.405-0.942-7.685c-0.068-0.72-0.079-1.438-0.09-2.198c-0.015-0.987-0.03-2.008-0.18-3.039
			c-0.138-0.949-1.109-1.876-2.363-2.253c-0.303-0.092-1.203-0.363-1.413-0.559c-0.196-1.728-3.039-2.484-5.429-2.607
			C746.259,415.45,745.976,415.442,745.702,415.442L745.702,415.442z M730.855,461.207c0.229-0.678,0.445-1.308,0.678-1.936
			c0.03-0.083,0.111-0.217,0.19-0.346c0.138-0.227,0.294-0.482,0.393-0.79c0.399-1.233,0.782-2.47,1.164-3.706
			c0.229-0.741,0.459-1.482,0.692-2.224c0.249-0.79,0.582-1.832,0.946-2.874c0.185-0.523,0.361-1.048,0.538-1.572
			c0.453-1.347,0.923-2.739,1.505-4.081c0.421-0.97,0.962-1.928,1.534-2.942c0.329-0.582,0.67-1.185,0.982-1.786
			c0.308-0.592,0.592-1.186,0.875-1.778c0.392-0.82,0.763-1.595,1.196-2.372c0.561-1.004,1.198-2.026,1.82-3.021
			c0.061,0.774,0.137,1.566,0.287,2.363c0.379,2.015,0.826,4.054,1.26,6.025c0.192,0.876,0.385,1.753,0.572,2.63
			c0.094,0.44,0.183,0.882,0.271,1.322c0.194,0.97,0.396,1.973,0.657,2.971c0.122,0.465,0.322,0.882,0.516,1.286
			c0.162,0.338,0.314,0.656,0.388,0.938c0.212,0.826,0.388,1.683,0.559,2.511c0.149,0.729,0.305,1.481,0.486,2.229
			c0.361,1.483,0.743,2.929,1.146,4.459c0.077,0.289,0.153,0.579,0.23,0.871C744.023,460.323,737.972,460.81,730.855,461.207
			L730.855,461.207z"/>
	</g>
	<g>
		<path d="M302.034,412.571c7.209,0,14.437,0.187,21.622,0.436c5.306,0.184,10.554,0.637,15.818,0.988
			c3.641,0.244,7.305,0.461,10.889,0.802c4.004,0.383,7.912,0.917,11.895,1.337c3.127,0.329,6.277,0.646,9.465,0.854
			c3.29,0.215,6.635,0.3,9.961,0.418c1.907,0.068,3.01,0.529,3.838,1.13c0.158,0.116,0.165,0.349-0.028,0.439
			c-1.661,0.776-2.859,1.771-5.947,1.771c-0.252,0-0.517-0.007-0.796-0.021c-4.237-0.213-8.609-0.116-12.767-0.451
			c-4.922-0.397-9.661-1.135-14.51-1.681c-2.88-0.324-5.793-0.633-8.744-0.826c-6.772-0.441-13.551-0.909-20.376-1.181
			c-8.305-0.329-16.651-0.58-24.992-0.654c-0.442-0.004-0.884-0.006-1.326-0.006c-5.678,0-11.368,0.299-17.059,0.353
			c-0.959,0.009-1.92,0.013-2.88,0.013c-4.207,0-8.418-0.07-12.627-0.07c-0.472,0-0.943,0.001-1.415,0.003
			c-3.131,0.016-6.255,0.206-9.388,0.276c-7.328,0.163-14.658,0.367-21.993,0.416c-0.071,0-0.142,0.001-0.213,0.001
			c-2.578,0-5.195-0.322-7.746-0.568c-0.563-0.055-1.098-0.079-1.608-0.079c-2.288,0-4.094,0.498-5.921,1.05
			c-3.236,0.976-6.947,1.54-10.878,1.938c-3.933,0.398-7.771,0.955-11.736,1.283c-1.167,0.097-2.378,0.106-3.596,0.106
			c-0.31,0-0.62,0-0.931,0c-1.035,0-2.068,0.007-3.076,0.068c-4.575,0.281-9.1,0.688-13.654,1.027
			c-0.987,0.071-2.005,0.08-3.198,0.293c1.847,0.342,3.712,0.671,5.535,1.032c4.997,0.99,9.872,2.087,14.988,2.967
			c6.542,1.126,13.198,2.17,19.954,3.076c4.244,0.571,8.875,0.695,13.123,1.263c4.015,0.536,8.472,0.954,10.632,2.703
			c0.21,0.17,0.979,0.235,1.489,0.35c-2.008,1.296-1.62,2.325,0.357,3.53c2.08,1.268,3.703,2.656,5.355,4.023
			c2.08,1.72,3.873,3.491,6.003,5.201c2.651,2.127,5.474,4.222,8.307,6.313c2.51,1.853,5.14,3.681,7.708,5.521
			c2.785,1.995,5.562,3.992,8.338,5.991c2.911,2.094,5.823,4.186,8.721,6.284c2.036,1.472,4.217,2.921,6.01,4.44
			c1.043,0.885,1.421,1.89,2.146,2.833c0.627,0.817,1.318,1.627,1.985,2.438c1.19,1.449,2.171,2.932,3.63,4.338
			c1.963,1.894,4.352,3.718,6.455,5.59c2.075,1.848,3.939,3.732,6.042,5.573c2.747,2.408,5.671,4.784,8.454,7.186
			c1.561,1.346,2.932,2.727,4.5,4.073c1.328,1.139,3.139,2.207,4.147,3.385c1.094,1.277,3.593,2.482,2.388,3.941
			c-0.31,0.376-1.674,0.651-2.681,0.892c-0.621,0.149-1.483,0.145-2.716,0.248c-0.93-0.981-1.846-2.037-2.929-3.065
			c-2.427-2.305-4.956-4.594-7.408-6.896c-2.535-2.376-4.983-4.769-7.557-7.139c-2.749-2.534-5.681-5.038-8.381-7.579
			c-2.372-2.232-4.618-4.485-6.754-6.755c-1.446-1.535-2.599-3.114-3.908-4.67c-0.105-0.127-0.338-0.286-0.617-0.333
			c-3.138-0.522-4.219-1.595-5.18-2.763c-0.697-0.851-1.734-1.668-2.827-2.458c-4.804-3.469-9.732-6.909-14.508-10.385
			c-1.889-1.376-3.36-2.841-5.271-4.211c-1.914-1.372-4.299-2.645-6.191-4.021c-3.663-2.661-7.212-5.35-10.649-8.059
			c-3.359-2.648-6.613-5.318-9.713-8.014c-0.853-0.74-0.998-1.606-1.451-2.418c-0.048-0.087-0.032-0.193,0.054-0.274
			c0.303-0.289,1.088-0.76,0.91-0.824c-1.415-0.502-2.852-1.096-4.577-1.343c-4.83-0.687-9.833-1.185-14.71-1.823
			c-6.55-0.86-13.118-1.711-19.539-2.707c-4.233-0.653-8.23-1.544-12.314-2.345c-4.681-0.916-9.465-1.766-13.961-2.81
			c-2.525-0.585-4.783-1.42-6.737-2.291c-1.478-0.658-0.448-1.725,1.662-2.078c4.685-0.779,9.367-1.475,14.636-1.523
			c3.659-0.034,7.286-0.48,10.942-0.705c8.819-0.539,17.73-0.896,25.686-2.737c1.782-0.414,4.081-0.483,6.389-0.738
			c0.454-0.857,2.481-0.957,4.123-0.97c0.439-0.003,0.879-0.005,1.318-0.005c3.692,0,7.389,0.104,11.08,0.104
			c0.568,0,1.136-0.002,1.704-0.008c6.676-0.066,13.342-0.259,20.014-0.39c1.644-0.031,3.293-0.02,4.939-0.035
			c14.551-0.138,29.101-0.349,43.654-0.389C301.292,412.572,301.663,412.571,302.034,412.571 M302.034,411.571l-1.116,0.002
			c-10.192,0.028-20.552,0.142-30.57,0.252c-4.363,0.048-8.727,0.096-13.09,0.137c-0.638,0.006-1.276,0.008-1.915,0.01
			c-1.012,0.003-2.024,0.007-3.034,0.025c-2.191,0.043-4.381,0.093-6.571,0.143c-4.402,0.1-8.955,0.202-13.433,0.247
			c-0.564,0.006-1.129,0.008-1.694,0.008c-1.838,0-3.712-0.026-5.524-0.052c-1.819-0.025-3.701-0.052-5.554-0.052
			c-0.443,0-0.886,0.002-1.327,0.005c-1.768,0.014-3.683,0.113-4.632,1.019c-0.599,0.062-1.196,0.111-1.781,0.161
			c-1.564,0.133-3.041,0.258-4.319,0.555c-7.007,1.622-14.955,2.089-22.64,2.541c-0.96,0.057-1.921,0.113-2.881,0.172
			c-1.293,0.079-2.599,0.188-3.861,0.292c-2.306,0.191-4.69,0.39-7.029,0.411c-5.426,0.051-10.282,0.787-14.791,1.537
			c-1.861,0.312-3.05,1.113-3.181,2.146c-0.046,0.359-0.013,1.258,1.276,1.832c2.354,1.05,4.617,1.819,6.918,2.353
			c3.361,0.78,6.931,1.462,10.383,2.121c1.207,0.23,2.413,0.461,3.612,0.695c1.116,0.219,2.227,0.444,3.337,0.67
			c2.91,0.592,5.92,1.204,9.017,1.682c5.987,0.929,12.197,1.744,18.202,2.532l1.358,0.178c2.088,0.273,4.23,0.525,6.302,0.769
			c2.773,0.325,5.641,0.661,8.398,1.054c1.033,0.147,1.977,0.438,2.881,0.754c-0.203,0.361-0.212,0.801-0.004,1.18
			c0.116,0.207,0.212,0.429,0.313,0.663c0.277,0.639,0.592,1.363,1.358,2.027c2.969,2.582,6.158,5.213,9.749,8.044
			c3.478,2.741,7.071,5.46,10.68,8.082c0.998,0.727,2.129,1.425,3.223,2.1c1.016,0.627,2.066,1.275,2.974,1.926
			c0.949,0.681,1.774,1.376,2.648,2.112c0.82,0.69,1.668,1.404,2.616,2.095c2.636,1.918,5.361,3.856,7.997,5.729
			c2.18,1.551,4.36,3.102,6.515,4.657c0.934,0.676,1.979,1.476,2.639,2.281c1.082,1.314,2.337,2.541,5.789,3.115
			c0.009,0.002,0.025,0.009,0.037,0.016c0.447,0.532,0.871,1.061,1.295,1.589c0.816,1.018,1.66,2.068,2.629,3.098
			c2.187,2.323,4.474,4.61,6.796,6.798c1.516,1.426,3.125,2.86,4.682,4.246c1.228,1.094,2.497,2.225,3.707,3.34
			c1.506,1.387,2.996,2.808,4.437,4.181c1.033,0.985,2.066,1.971,3.114,2.952c1.06,0.995,2.135,1.988,3.209,2.981
			c1.386,1.28,2.819,2.604,4.193,3.909c0.732,0.696,1.397,1.417,2.041,2.114c0.286,0.31,0.567,0.615,0.851,0.914l0.331,0.35
			l0.479-0.041c0.408-0.034,0.773-0.056,1.103-0.076c0.708-0.042,1.267-0.076,1.764-0.195l0.375-0.089
			c1.466-0.341,2.388-0.588,2.843-1.14c1.505-1.821-0.393-3.438-1.412-4.308c-0.382-0.325-0.742-0.633-0.988-0.92
			c-0.702-0.819-1.702-1.556-2.669-2.268c-0.573-0.421-1.113-0.819-1.587-1.226c-0.778-0.669-1.527-1.364-2.25-2.036
			c-0.719-0.668-1.463-1.359-2.248-2.036c-1.235-1.065-2.498-2.126-3.761-3.188c-1.555-1.306-3.164-2.657-4.687-3.992
			c-1.107-0.969-2.17-1.973-3.199-2.943c-0.913-0.861-1.857-1.752-2.837-2.625c-0.859-0.765-1.773-1.528-2.658-2.267
			c-1.289-1.076-2.622-2.189-3.768-3.296c-0.962-0.927-1.701-1.884-2.483-2.897c-0.35-0.453-0.699-0.906-1.068-1.355l-0.53-0.64
			c-0.483-0.582-0.983-1.185-1.435-1.773c-0.22-0.286-0.41-0.587-0.61-0.906c-0.412-0.655-0.879-1.398-1.683-2.08
			c-1.348-1.143-2.914-2.249-4.429-3.319c-0.551-0.389-1.102-0.778-1.642-1.169c-2.462-1.782-4.935-3.561-7.408-5.34l-1.315-0.945
			c-2.776-1.999-5.554-3.997-8.34-5.992c-0.875-0.628-1.758-1.254-2.64-1.88c-1.676-1.188-3.409-2.417-5.057-3.634
			c-3.001-2.216-5.695-4.22-8.274-6.289c-1.131-0.907-2.192-1.856-3.218-2.775c-0.887-0.793-1.804-1.614-2.774-2.416l-0.42-0.349
			c-1.518-1.259-3.087-2.561-5.052-3.758c-1.149-0.7-1.207-1.036-1.207-1.039l0,0c0.001,0,0.066-0.277,0.872-0.798l2.005-1.294
			l-2.329-0.521c-0.179-0.04-0.385-0.075-0.592-0.109c-0.171-0.029-0.442-0.074-0.572-0.11c-2.187-1.702-6.089-2.207-9.866-2.694
			l-1.177-0.154c-2.141-0.286-4.402-0.463-6.588-0.634c-2.178-0.17-4.43-0.346-6.534-0.629c-6.335-0.85-12.85-1.854-19.917-3.07
			c-3.41-0.587-6.775-1.283-10.03-1.956c-1.091-0.226-2.182-0.451-3.276-0.674c0.21-0.017,0.421-0.033,0.631-0.05
			c2.91-0.232,5.919-0.474,8.896-0.656c1.009-0.062,2.043-0.066,3.015-0.066h0.464h0.466c1.19,0,2.455-0.008,3.679-0.11
			c2.356-0.194,4.698-0.474,6.963-0.743c1.566-0.186,3.186-0.379,4.791-0.541c4.635-0.469,8.152-1.097,11.066-1.976
			c1.825-0.551,3.508-1.007,5.633-1.007c0.491,0,1,0.025,1.512,0.074c0.454,0.044,0.909,0.09,1.366,0.137
			c2.117,0.215,4.307,0.437,6.476,0.437l0.22-0.001c5.811-0.039,11.712-0.177,17.418-0.311c1.53-0.036,3.06-0.071,4.59-0.105
			c1.282-0.029,2.562-0.078,3.843-0.127c1.813-0.068,3.689-0.141,5.527-0.149c0.47-0.002,0.94-0.003,1.41-0.003
			c2.102,0,4.205,0.018,6.307,0.035c2.107,0.018,4.214,0.035,6.32,0.035c0.963,0,1.927-0.004,2.889-0.013
			c2.577-0.024,5.192-0.1,7.72-0.173c3.062-0.088,6.227-0.18,9.329-0.18c0.439,0,0.878,0.002,1.317,0.006
			c7.451,0.066,15.383,0.273,24.961,0.653c6.027,0.24,12.121,0.64,18.014,1.026l2.337,0.153c2.771,0.182,5.481,0.46,8.697,0.822
			c1.745,0.196,3.508,0.422,5.213,0.64c3.029,0.388,6.162,0.788,9.328,1.044c2.453,0.197,5.008,0.247,7.478,0.295
			c1.753,0.034,3.567,0.069,5.32,0.158c0.296,0.015,0.578,0.021,0.846,0.021c2.75,0,4.212-0.76,5.502-1.43
			c0.284-0.147,0.568-0.296,0.868-0.436c0.407-0.191,0.673-0.566,0.716-1.003c0.043-0.44-0.156-0.881-0.519-1.147
			c-1.157-0.839-2.552-1.259-4.396-1.324l-2.042-0.07c-2.6-0.087-5.288-0.177-7.89-0.347c-3.249-0.211-6.438-0.535-9.426-0.85
			c-1.708-0.181-3.435-0.386-5.104-0.584c-2.217-0.263-4.509-0.535-6.8-0.754c-2.945-0.28-5.985-0.479-8.924-0.673l-1.994-0.132
			c-1.436-0.096-2.87-0.199-4.304-0.303c-3.771-0.271-7.67-0.553-11.546-0.687C314.993,411.706,308.313,411.571,302.034,411.571
			L302.034,411.571z"/>
	</g>
	<g>
		<path d="M976.079,428.237c0.225,0,0.456,0.005,0.694,0.016c1.544,0.068,2.886,0.144,3.848,0.715
			c1.949,1.157-0.445,2.02-1.349,2.964c-1.637,1.714-3.517,3.401-5.309,5.097c-1.681,1.59-3.38,3.174-5.068,4.764
			c-1.439,1.353-2.851,2.708-4.32,4.057c-0.905,0.831-1.819,1.663-2.875,2.471c-1.811,1.39-3.657,2.772-5.645,4.13
			c-0.826,0.564-2.1,1.042-3.069,1.583c-0.246,0.137-0.276,0.385-0.115,0.545c2.307,2.312,4.716,4.612,6.997,6.929
			c1.918,1.945,3.797,3.897,5.507,5.868c1.178,1.354,2.035,2.745,3.034,4.12c1.185,1.631,2.524,3.251,3.507,4.898
			c0.872,1.46,1.69,2.943,1.912,4.427c0.276,1.846-1.697,3.567-4.033,5.164c-4.884,3.341-10.216,6.597-15.146,9.928
			c-3.15,2.129-5.877,4.336-8.851,6.498c-3.802,2.763-7.55,5.539-11.559,8.266c-1.253,0.852-2.647,1.729-5.528,2.147
			c-0.656,0.095-1.305,0.142-1.912,0.142c-1.815,0-3.273-0.413-3.546-1.162c-0.42-1.146,0.281-2.211,1.683-3.239
			c3.064-2.248,6.151-4.492,9.126-6.755c3.687-2.808,6.927-5.697,10.987-8.434c4.695-3.163,10.048-6.203,15.177-9.283
			c1.604-0.967,3.474-1.876,5.054-2.846c0.369-0.226,0.258-0.613,0.033-0.891c-1.457-1.802-3.013-3.593-4.522-5.388
			c-0.348-0.413-0.465-0.866-1.044-1.23c-0.24-0.151-1.157-0.298-1.751-0.298c-0.124,0-0.233,0.007-0.32,0.021
			c-6.247,1.009-12.385,2.105-18.655,3.094c-3.049,0.481-6.361,0.748-9.461,1.194c-1.015,0.146-1.994,0.501-2.538,0.85
			c-3.16,2.025-6.287,4.059-9.229,6.126c-3.994,2.803-7.859,5.632-11.689,8.467c-2.026,1.499-3.93,3.023-5.768,4.554
			c-1.925,1.603-3.538,3.255-5.599,4.832c-1.773,1.358-3.983,2.645-6.006,3.962c-0.789,0.513-1.476,1.058-2.454,1.521
			c-0.293,0.138-1.124,0.249-1.716,0.249c-0.171,0-0.321-0.009-0.434-0.029c-0.97-0.181-2.235-0.5-2.405-0.825
			c-0.592-1.151-1.27-2.225,0.543-3.473c2.658-1.831,3.956-3.906,6.099-5.84c3.104-2.801,6.41-5.57,9.699-8.345
			c2.037-1.716,3.906-3.47,6.373-5.108c3.843-2.553,8.056-5.039,12.257-7.521c1.973-1.165,4.233-2.271,6.478-3.375
			c0.438-0.218,1.419-0.493,2-0.493c0.052,0,0.101,0.002,0.146,0.007c0.666,0.071,1.305,0.102,1.92,0.102
			c2.508,0,4.647-0.505,6.859-0.839c5.289-0.798,10.37-1.776,15.729-2.498c0.756-0.102,1.586-0.134,2.459-0.134
			c1.474,0,3.073,0.091,4.661,0.091c-6.205-6.8-13.974-13.396-18.869-20.26c1.133-0.44,2.992-0.709,4.544-0.709
			c0.814,0,1.544,0.074,2.038,0.236c1.636,0.537,2.926,1.208,4.231,1.766c1.425-1.442,2.922-2.936,4.375-4.436
			c2.205-2.28,4.194-4.588,6.617-6.837c3.256-3.023,6.791-6.01,10.304-8.997c0.811-0.689,1.983-1.327,3.029-1.979
			C973.878,428.397,974.869,428.237,976.079,428.237 M976.079,427.237c-1.5,0-2.61,0.236-3.395,0.724
			c-0.262,0.163-0.528,0.324-0.796,0.484c-0.829,0.499-1.686,1.015-2.354,1.583l-0.719,0.61c-3.229,2.745-6.568,5.583-9.618,8.416
			c-1.647,1.529-3.111,3.1-4.527,4.619c-0.701,0.752-1.403,1.505-2.128,2.255c-1.012,1.045-2.046,2.087-3.062,3.11l-0.82,0.829
			c-0.17-0.076-0.34-0.154-0.512-0.231c-0.97-0.44-1.973-0.896-3.182-1.293c-0.578-0.189-1.369-0.286-2.35-0.286
			c-1.74,0-3.712,0.312-4.906,0.777l-1.198,0.466l0.746,1.047c3.182,4.46,7.601,8.852,11.874,13.099
			c1.824,1.813,3.695,3.674,5.467,5.535c-0.015,0-0.03-0.001-0.045-0.001c-0.777-0.022-1.54-0.045-2.272-0.045
			c-1.047,0-1.87,0.045-2.594,0.143c-3.148,0.424-6.246,0.944-9.242,1.446c-2.12,0.356-4.312,0.724-6.502,1.054
			c-0.546,0.083-1.087,0.176-1.63,0.269c-1.607,0.274-3.269,0.56-5.08,0.56c-0.615,0-1.209-0.031-1.814-0.096
			c-0.079-0.009-0.162-0.013-0.251-0.013c-0.743,0-1.864,0.309-2.445,0.598l-0.168,0.082c-2.172,1.068-4.417,2.173-6.373,3.327
			l-0.133,0.079c-4.103,2.424-8.345,4.931-12.169,7.471c-1.964,1.305-3.566,2.687-5.115,4.022c-0.446,0.386-0.894,0.771-1.349,1.154
			l-0.847,0.714c-2.964,2.498-6.027,5.081-8.878,7.653c-0.852,0.769-1.572,1.556-2.27,2.316c-1.118,1.22-2.174,2.373-3.727,3.442
			c-2.455,1.69-1.511,3.509-0.946,4.596l0.081,0.157c0.169,0.323,0.446,0.854,3.111,1.352c0.173,0.031,0.374,0.046,0.617,0.046
			c0.545,0,1.609-0.093,2.143-0.345c0.79-0.374,1.392-0.786,1.974-1.185c0.197-0.135,0.395-0.271,0.599-0.402
			c0.604-0.395,1.226-0.785,1.847-1.176c1.448-0.911,2.945-1.854,4.223-2.831c1.25-0.957,2.346-1.946,3.404-2.902
			c0.715-0.646,1.454-1.313,2.226-1.955c2.095-1.744,3.913-3.18,5.723-4.519c3.391-2.509,7.428-5.476,11.669-8.452
			c2.985-2.098,6.184-4.173,9.195-6.103c0.381-0.244,1.213-0.567,2.141-0.701c1.394-0.201,2.862-0.369,4.283-0.53
			c1.724-0.197,3.507-0.4,5.191-0.667c3.464-0.546,6.941-1.134,10.306-1.702c2.776-0.47,5.554-0.939,8.353-1.392
			c0.044-0.007,0.1-0.008,0.161-0.008c0.463,0,1.069,0.106,1.256,0.169c0.164,0.112,0.246,0.234,0.401,0.479
			c0.101,0.158,0.215,0.338,0.373,0.524c0.474,0.564,0.953,1.128,1.432,1.691c0.939,1.105,1.908,2.246,2.828,3.374
			c-0.674,0.395-1.396,0.787-2.101,1.169c-0.828,0.449-1.685,0.913-2.476,1.39c-1.288,0.774-2.593,1.546-3.897,2.318
			c-3.827,2.267-7.784,4.609-11.321,6.992c-2.668,1.798-5.011,3.681-7.276,5.501c-1.216,0.977-2.473,1.986-3.758,2.966
			c-2.468,1.877-5.06,3.776-7.566,5.612l-1.546,1.132c-1.902,1.396-2.586,2.874-2.029,4.39c0.575,1.582,3.057,1.818,4.484,1.818
			c0.67,0,1.361-0.051,2.056-0.152c2.992-0.434,4.521-1.34,5.947-2.31c3.299-2.244,6.467-4.554,9.53-6.788l2.054-1.496
			c1.101-0.8,2.183-1.617,3.228-2.407c1.782-1.347,3.625-2.739,5.595-4.071c2.317-1.564,4.769-3.143,7.139-4.668
			c2.665-1.716,5.422-3.49,8.013-5.263c2.412-1.648,4.828-3.667,4.458-6.138c-0.253-1.688-1.147-3.292-2.043-4.791
			c-0.714-1.197-1.605-2.375-2.467-3.515c-0.368-0.486-0.735-0.972-1.089-1.459c-0.302-0.415-0.591-0.831-0.879-1.248
			c-0.667-0.964-1.357-1.96-2.211-2.94c-1.82-2.099-3.826-4.167-5.549-5.914c-1.28-1.301-2.621-2.615-3.917-3.886
			c-0.814-0.8-1.629-1.599-2.435-2.398c0.155-0.074,0.314-0.149,0.477-0.226c0.669-0.315,1.361-0.641,1.915-1.02
			c2.132-1.456,4.072-2.921,5.688-4.162c1.052-0.804,1.955-1.62,2.943-2.527c0.998-0.916,1.97-1.835,2.941-2.755
			c0.461-0.437,0.923-0.873,1.387-1.31c0.687-0.646,1.374-1.291,2.062-1.936c1.006-0.943,2.011-1.886,3.01-2.83
			c0.467-0.442,0.94-0.884,1.414-1.326c1.328-1.239,2.702-2.521,3.931-3.807c0.164-0.172,0.455-0.382,0.737-0.585
			c0.785-0.567,1.677-1.21,1.63-2.243c-0.029-0.65-0.443-1.218-1.231-1.687c-1.206-0.716-2.786-0.786-4.314-0.854
			C976.563,427.243,976.317,427.237,976.079,427.237L976.079,427.237z"/>
	</g>
	<g>
		<path d="M584.789,416.47c1.3,0,2.591,0.087,3.94,0.268c0.414,0.056,0.86,0.069,1.317,0.069c0.483,0,0.98-0.016,1.466-0.016
			c0.404,0,0.8,0.011,1.176,0.051c1.087,0.117,2.42,0.379,2.906,0.741c0.412,0.309,0.153,1.02-0.478,1.261
			c-2.976,1.141-2.152,2.385-1.101,3.691c1.568,1.951,3.054,3.913,4.588,5.868c1.157,1.478,2.463,2.938,3.462,4.433
			c0.874,1.306,1.488,2.645,2.079,3.979c0.961,2.175,1.85,4.354,2.68,6.535c0.226,0.598,0.209,1.215,0.153,1.823
			c-0.026,0.279-0.289,0.752-0.666,0.792c-0.312,0.033-0.668,0.051-1.028,0.051c-0.598,0-1.207-0.05-1.641-0.162
			c-0.925-0.242-1.809-0.631-2.247-1.04c-1.643-1.534-3.229-3.082-4.589-4.659c-1.534-1.782-2.786-3.604-4.187-5.404
			c-1.474-1.894-2.929-3.787-4.488-5.669c-1.093-1.32-2.43-2.607-3.5-3.931c-0.856-1.059-1.474-2.148-2.221-3.262
			c-13.069,0.678-26.081,1.353-39.464,2.048c0.121,0.537,0.234,1.192,0.424,1.845c0.099,0.343,0.39,0.676,0.494,1.02
			c0.699,2.325,1.278,4.655,2.077,6.974c0.817,2.373,1.77,4.739,2.789,7.097c1.099,2.542,2.412,5.07,3.507,7.612
			c0.793,1.838,1.299,3.698,2.085,5.537c1.099,2.569,2.361,5.127,3.507,7.693c0.445,0.997,0.713,2.008,1.151,3.005
			c0.856,1.946,1.804,3.886,2.655,5.832c0.434,0.991,0.682,1.995,1.118,2.985c1.17,2.654,2.414,5.304,3.594,7.957
			c0.744,1.669,1.232,3.361,2.181,5.012c1.383,2.401,3.07,4.774,4.65,7.156c0.093,0.141,0.321,0.332,0.6,0.374
			c2.528,0.38,2.344,1.407,3.006,2.185c0.664,0.778-0.841,1.726-2.888,2.134c-0.944,0.189-1.776,0.313-2.616,0.313
			c-0.948,0-1.906-0.158-3.048-0.561c-4.508-1.587-5.932-3.718-7.309-5.853c-1.586-2.461-2.659-4.978-3.875-7.476
			c-1.005-2.064-1.893-4.139-2.834-6.208c-1.185-2.606-2.414-5.209-3.545-7.82c-0.787-1.812-1.417-3.638-2.159-5.455
			c-0.914-2.239-1.862-4.479-2.814-6.716c-0.908-2.13-1.885-4.257-2.759-6.389c-0.996-2.433-1.822-4.878-2.897-7.306
			c-0.72-1.626-1.752-3.229-2.623-4.845c-0.083-0.153,0.022-0.321-0.03-0.479c-0.592-1.77-1.207-3.537-1.795-5.308
			c-0.353-1.06-0.761-2.118-0.985-3.183c-0.41-1.962-0.736-3.927-1.026-5.892c-0.072-0.486-0.567-0.712-1.555-0.712
			c-0.118,0-0.242,0.004-0.374,0.01c-4.769,0.226-9.528,0.492-14.305,0.685c-0.759,0.031-1.523,0.041-2.321,0.041
			c-1.315,0-2.725-0.026-4.363-0.026c0.935,1.229,1.692,2.199,2.414,3.176c0.883,1.193,1.705,2.394,2.61,3.586
			c0.659,0.866,1.498,1.711,2.101,2.583c0.933,1.348,1.762,2.708,2.582,4.067c0.77,1.279,1.546,2.561,2.174,3.853
			c0.405,0.833,0.715,1.688,0.74,2.534c0.011,0.353-0.256,0.561-0.832,0.561c-0.327,0-0.753-0.067-1.285-0.213
			c-3.823-1.048-6.399-2.477-8.332-4.14c-2.75-2.368-5.692-4.701-8.21-7.11c-1.667-1.592-2.69-3.298-4.087-4.94
			c-0.795-0.934-1.649-1.866-2.717-2.75c-0.402-0.334-1.405-0.692-2.269-0.763c-3.129-0.255-6.236-1.684-6.183-2.96
			c4.221-1.172,9.182-0.954,13.846-1.239c5.835-0.354,11.73-0.545,17.593-0.83c4.843-0.235,9.672-0.524,14.516-0.759
			c5.53-0.27,11.084-0.458,16.599-0.77c5.163-0.291,10.304-0.661,15.42-1.065c4.472-0.354,8.975-0.698,13.311-1.251
			C582.088,416.564,583.443,416.47,584.789,416.47 M584.789,415.47c-1.361,0-2.755,0.093-4.26,0.283
			c-4.101,0.523-8.427,0.864-12.611,1.194L567.266,417c-5.903,0.467-10.795,0.805-15.397,1.064
			c-3.319,0.188-6.712,0.332-9.993,0.473c-2.201,0.095-4.402,0.189-6.599,0.296c-2.447,0.118-4.891,0.251-7.334,0.383
			c-2.393,0.13-4.786,0.26-7.182,0.376c-2.143,0.104-4.289,0.196-6.436,0.287c-3.667,0.157-7.46,0.318-11.169,0.544
			c-1.227,0.075-2.503,0.115-3.738,0.155c-3.491,0.111-7.101,0.227-10.315,1.118l-0.701,0.195l-0.03,0.727
			c-0.098,2.325,4.179,3.761,7.101,3.999c0.765,0.062,1.532,0.386,1.711,0.535c1.062,0.879,1.907,1.822,2.594,2.629
			c0.493,0.579,0.932,1.16,1.398,1.776c0.809,1.068,1.645,2.174,2.76,3.239c1.752,1.677,3.727,3.333,5.637,4.936
			c0.876,0.735,1.753,1.47,2.61,2.209c2.246,1.932,5.098,3.354,8.721,4.347c0.61,0.167,1.117,0.248,1.549,0.248
			c0.616,0,1.095-0.172,1.424-0.512c0.274-0.283,0.419-0.666,0.407-1.079c-0.026-0.88-0.293-1.814-0.84-2.941
			c-0.627-1.29-1.397-2.57-2.142-3.808l-0.074-0.123c-0.842-1.396-1.676-2.762-2.616-4.121c-0.372-0.537-0.813-1.051-1.241-1.548
			c-0.318-0.37-0.619-0.72-0.887-1.071c-0.51-0.672-1.006-1.365-1.486-2.035c-0.368-0.514-0.736-1.027-1.115-1.54
			s-0.768-1.023-1.186-1.57c0.128,0.001,0.254,0.002,0.38,0.004c0.681,0.006,1.327,0.012,1.951,0.012
			c0.919,0,1.67-0.014,2.363-0.042c3.08-0.124,6.203-0.281,9.224-0.434c1.695-0.085,3.391-0.171,5.087-0.251
			c0.116-0.006,0.224-0.009,0.327-0.009c0.306,0,0.49,0.026,0.594,0.049c0.328,2.21,0.649,4.045,1.008,5.76
			c0.185,0.88,0.481,1.737,0.768,2.566c0.083,0.242,0.167,0.484,0.248,0.727c0.317,0.955,0.643,1.91,0.968,2.864
			c0.262,0.769,0.523,1.537,0.781,2.306c-0.017,0.189-0.017,0.477,0.145,0.775c0.301,0.559,0.621,1.115,0.94,1.671
			c0.615,1.07,1.195,2.08,1.649,3.104c0.628,1.418,1.183,2.878,1.72,4.29c0.372,0.979,0.757,1.991,1.167,2.99
			c0.53,1.293,1.104,2.6,1.66,3.864c0.372,0.846,0.744,1.691,1.104,2.538c0.858,2.016,1.854,4.363,2.808,6.701
			c0.305,0.746,0.59,1.494,0.875,2.242c0.404,1.058,0.822,2.151,1.292,3.233c0.785,1.812,1.628,3.644,2.443,5.416
			c0.371,0.807,0.742,1.613,1.109,2.42c0.297,0.653,0.589,1.308,0.881,1.962c0.625,1.398,1.271,2.845,1.964,4.27
			c0.266,0.547,0.525,1.095,0.785,1.643c0.923,1.948,1.876,3.963,3.148,5.938c1.37,2.124,2.923,4.53,7.817,6.254
			c1.195,0.421,2.269,0.617,3.38,0.617c1.013,0,1.99-0.168,2.812-0.333c0.968-0.193,3.272-0.795,3.762-2.207
			c0.187-0.539,0.074-1.106-0.31-1.557c-0.093-0.108-0.173-0.256-0.266-0.426c-0.495-0.908-1.121-1.752-3.304-2.091
			c-0.397-0.599-0.802-1.196-1.206-1.794c-1.164-1.723-2.367-3.503-3.375-5.254c-0.572-0.995-0.966-2.009-1.384-3.083
			c-0.233-0.6-0.475-1.219-0.75-1.837c-0.544-1.224-1.103-2.446-1.661-3.67c-0.651-1.428-1.302-2.854-1.932-4.283
			c-0.202-0.46-0.363-0.928-0.533-1.424c-0.173-0.506-0.353-1.029-0.584-1.559c-0.442-1.013-0.916-2.035-1.375-3.023
			c-0.434-0.937-0.868-1.873-1.281-2.811c-0.2-0.455-0.363-0.916-0.535-1.404c-0.184-0.521-0.375-1.062-0.618-1.606
			c-0.479-1.072-0.978-2.144-1.478-3.215c-0.683-1.464-1.388-2.978-2.023-4.464c-0.375-0.878-0.681-1.75-1.005-2.674
			c-0.328-0.937-0.667-1.904-1.082-2.866c-0.559-1.297-1.18-2.604-1.781-3.868c-0.584-1.229-1.188-2.5-1.726-3.744
			c-1.131-2.616-2.035-4.914-2.761-7.025c-0.51-1.478-0.939-2.999-1.354-4.469c-0.232-0.823-0.464-1.646-0.711-2.468
			c-0.085-0.283-0.226-0.524-0.338-0.719c-0.058-0.099-0.137-0.235-0.153-0.29c-0.061-0.21-0.113-0.42-0.161-0.63l37.721-1.957
			c0.116,0.178,0.229,0.355,0.342,0.532c0.489,0.764,0.994,1.555,1.622,2.33c0.58,0.718,1.234,1.423,1.867,2.104
			c0.559,0.603,1.137,1.226,1.641,1.835c1.325,1.599,2.6,3.24,3.833,4.826l0.637,0.819c0.483,0.62,0.948,1.244,1.414,1.867
			c0.875,1.173,1.781,2.387,2.805,3.575c1.488,1.726,3.193,3.363,4.664,4.737c0.774,0.723,2.129,1.134,2.676,1.277
			c0.621,0.161,1.372,0.194,1.894,0.194c0.392,0,0.784-0.02,1.134-0.057c0.873-0.093,1.487-0.951,1.556-1.693
			c0.066-0.711,0.086-1.479-0.213-2.27c-0.861-2.266-1.77-4.48-2.7-6.586c-0.622-1.404-1.255-2.775-2.163-4.131
			c-0.698-1.044-1.538-2.069-2.35-3.061c-0.391-0.477-0.781-0.953-1.156-1.432c-0.574-0.731-1.14-1.462-1.706-2.192
			c-0.936-1.209-1.903-2.458-2.891-3.687c-0.199-0.247-0.804-0.999-0.737-1.247c0.004-0.016,0.117-0.386,1.417-0.884
			c0.696-0.267,1.208-0.878,1.303-1.56c0.079-0.565-0.139-1.102-0.583-1.435c-0.776-0.579-2.463-0.835-3.399-0.936
			c-0.364-0.039-0.771-0.057-1.283-0.057c-0.249,0-0.5,0.004-0.751,0.008c-0.239,0.004-0.479,0.008-0.715,0.008
			c-0.505,0-0.871-0.019-1.185-0.061C587.469,415.56,586.137,415.47,584.789,415.47L584.789,415.47z"/>
	</g>
	<g>
		<path d="M404.456,453.91c1.198,0,2.197,0.306,2.863,0.772c2.242,1.573,4.431,3.158,6.587,4.751
			c2.43,1.795,4.831,3.597,7.189,5.407c1.881,1.445,3.617,2.921,5.53,4.36c2.765,2.078,5.56,4.151,8.476,6.197
			c3.269,2.295,6.647,4.563,10.048,6.829c3.358,2.235,6.785,4.456,10.235,6.671c0.365,0.234,1.084,0.546,1.644,0.546
			c4.538,0.014,7.66,1.253,11.433,1.925c3.227,0.576,6.584,1.108,10.025,1.412c3.359,0.297,6.903,0.261,10.352,0.415
			c1.337,0.06,2.692,0.189,3.939,0.384c1.338,0.21,1.969,1.3,0.893,1.75c-5.668,2.371-8.658,5.328-11.775,8.246
			c-2.434,2.281-4.375,4.645-6.833,6.921c-2,1.852-4.14,3.705-6.821,5.411c-1.208,0.769-3.548,1.28-6.445,1.359
			c-0.491,0.014-0.976,0.02-1.456,0.02c-4.999,0-9.423-0.696-13.985-1.424c-3.674-0.586-7.679-0.857-11.55-1.251
			c-4.52-0.459-9.045-0.914-13.584-1.345c-3.287-0.312-6.607-0.57-9.9-0.874c-0.884-0.082-1.699-0.272-2.579-0.361
			c-2.5-0.251-5.018-0.475-7.526-0.715c-1.57-0.148-3.244-0.216-4.678-0.482c-1.822-0.336-3.474-0.75-3.187-1.803
			c0.5-1.838,0.269-3.715,1.061-5.528c0.453-1.039,2.247-1.999,3.572-2.963c0.745-0.544,1.802-1.019,2.653-1.541
			c1.478-0.907,2.905-1.826,4.581-2.886c-6.572-2.156-10.745-5.176-14.903-8.208c-3.068-2.238-6.405-4.42-9.342-6.682
			c-3.598-2.771-6.973-5.588-10.313-8.408c-2.632-2.226-5.049-4.489-7.597-6.729c-0.605-0.533-1.286-1.058-2.076-1.548
			c-0.206-0.129-0.955-0.169-1.456-0.171c-7.687-0.032-15.375-0.02-23.059-0.088c-3.648-0.032-7.292-0.202-10.933-0.339
			c-1.449-0.054-3.738-1.187-3.476-1.804c0.307-0.721,1.887-0.778,3.458-0.795c9.387-0.091,18.773-0.23,28.162-0.275
			c0.135-0.001,0.27-0.001,0.405-0.001c3.367,0,6.74,0.192,10.113,0.274c1.699,0.04,2.396,0.352,2.963,1.008
			c0.866,1.001,2.414,1.908,3.558,2.875c3.433,2.902,6.798,5.817,10.214,8.726c1.298,1.103,2.596,2.208,4.014,3.288
			c3.327,2.536,6.642,5.075,10.121,7.578c2.502,1.803,5.247,3.551,7.913,5.317c2.077,1.375,4.196,2.741,6.304,4.11
			c0.275,0.179,0.504,0.402,0.916,0.511c3.06,0.809,1.848,1.787,0.763,2.759c-2.705,2.423-5.506,4.83-8.103,7.271
			c-0.9,0.849-1.313,1.774-1.994,2.729c2.498,0.138,5.086,0.252,7.645,0.428c4.845,0.333,9.681,0.686,14.504,1.061
			c3.093,0.241,6.169,0.519,9.231,0.81c3.486,0.333,6.97,0.673,10.417,1.06c4.241,0.477,8.464,0.979,12.65,1.523
			c1.647,0.214,3.167,0.576,4.758,0.859c0.782,0.139,1.593,0.254,2.21,0.352c1.547-1.148,3.058-2.142,4.243-3.191
			c0.887-0.786,1.246-1.661,2.033-2.469c2.309-2.367,4.688-4.724,7.096-7.076c1.001-0.979,2.2-1.926,3.202-2.904
			c0.743-0.727,0.077-0.948-1.914-1.127c-5.248-0.47-10.502-0.938-15.097-2.159c-2.187-0.582-4.643-1.006-6.983-1.5
			c-0.204-0.042-0.514-0.032-0.655-0.09c-2.128-0.887-4.453-1.716-6.297-2.685c-3.1-1.628-6.004-3.316-8.781-5.032
			c-2.825-1.744-5.479-3.533-8.056-5.335c-3.068-2.146-6.044-4.315-8.932-6.499c-3.433-2.598-6.753-5.218-10.078-7.837
			c-2.965-2.335-5.983-4.664-8.744-7.037c-1.15-0.988-1.845-2.073-2.454-3.14c-0.399-0.697,0.777-1.248,2.325-1.506
			C403.635,453.944,404.057,453.91,404.456,453.91 M404.456,452.91c-0.465,0-0.944,0.041-1.425,0.121
			c-1.687,0.281-2.729,0.814-3.094,1.585c-0.213,0.448-0.189,0.96,0.065,1.404c0.645,1.128,1.414,2.321,2.67,3.401
			c2.333,2.005,4.88,4.004,7.343,5.938l1.434,1.127l0.385,0.303c3.146,2.479,6.4,5.042,9.708,7.546
			c2.946,2.228,5.961,4.421,8.962,6.521c3.021,2.113,5.596,3.818,8.104,5.366c3.075,1.9,5.967,3.558,8.841,5.067
			c1.354,0.711,2.955,1.348,4.502,1.964c0.631,0.251,1.261,0.502,1.875,0.758c0.231,0.095,0.46,0.113,0.663,0.129
			c0.062,0.005,0.125,0.008,0.177,0.018c0.713,0.15,1.443,0.296,2.173,0.441c1.605,0.319,3.266,0.649,4.753,1.046
			c4.663,1.239,10.027,1.72,15.214,2.184l0.051,0.005c0.236,0.021,0.438,0.042,0.612,0.062c-0.283,0.255-0.575,0.511-0.861,0.761
			c-0.554,0.484-1.126,0.985-1.649,1.497c-2.837,2.772-5.097,5.026-7.112,7.093c-0.405,0.416-0.698,0.827-0.981,1.226
			c-0.305,0.429-0.593,0.833-0.999,1.193c-0.78,0.691-1.736,1.376-2.749,2.102c-0.357,0.256-0.722,0.518-1.089,0.786l-0.195-0.03
			c-0.491-0.074-1.044-0.158-1.583-0.254c-0.548-0.098-1.088-0.205-1.628-0.312c-1.018-0.202-2.07-0.411-3.176-0.554
			c-3.909-0.509-8.053-1.008-12.667-1.526c-3.579-0.401-7.263-0.758-10.434-1.061c-3.598-0.342-6.537-0.6-9.249-0.812
			c-4.682-0.364-9.565-0.721-14.514-1.062c-1.778-0.122-3.584-0.215-5.33-0.306c-0.2-0.01-0.4-0.021-0.6-0.03
			c0.262-0.394,0.533-0.753,0.896-1.095c1.753-1.648,3.638-3.314,5.461-4.926c0.877-0.775,1.755-1.551,2.623-2.328l0.092-0.082
			c0.728-0.65,1.634-1.46,1.375-2.544c-0.26-1.085-1.548-1.556-2.642-1.845c-0.129-0.034-0.218-0.096-0.393-0.222
			c-0.077-0.055-0.154-0.109-0.233-0.161l-1.433-0.93c-1.63-1.057-3.259-2.113-4.864-3.176c-0.66-0.438-1.325-0.873-1.989-1.31
			c-1.979-1.299-4.025-2.641-5.891-3.985c-3.236-2.328-6.388-4.731-9.435-7.055l-0.665-0.507c-1.369-1.043-2.653-2.135-3.896-3.19
			l-0.077-0.064c-1.426-1.215-2.844-2.431-4.262-3.646c-1.978-1.696-3.955-3.391-5.955-5.082c-0.456-0.386-0.964-0.756-1.456-1.114
			c-0.75-0.547-1.525-1.111-1.992-1.651c-0.814-0.942-1.816-1.309-3.696-1.354c-1.229-0.029-2.458-0.074-3.688-0.119
			c-2.111-0.076-4.294-0.155-6.448-0.155l-0.41,0.001c-6.199,0.029-12.499,0.102-18.591,0.172c-3.191,0.036-6.383,0.072-9.575,0.104
			c-1.776,0.019-3.788,0.04-4.369,1.403c-0.17,0.399-0.121,0.858,0.133,1.26c0.641,1.009,2.836,1.884,4.226,1.935l2.109,0.082
			c2.897,0.114,5.894,0.231,8.852,0.258c4.948,0.044,9.979,0.055,14.844,0.064c2.74,0.006,5.479,0.012,8.219,0.023
			c0.487,0.002,0.862,0.038,1.009,0.067c0.653,0.412,1.264,0.87,1.867,1.401c0.965,0.849,1.91,1.699,2.855,2.55
			c1.53,1.378,3.112,2.802,4.758,4.193c3.038,2.565,6.594,5.545,10.348,8.437c1.768,1.362,3.701,2.71,5.57,4.014
			c1.259,0.877,2.561,1.785,3.792,2.684c3.717,2.711,7.548,5.504,13.22,7.657c-0.975,0.619-1.894,1.2-2.832,1.776
			c-0.317,0.195-0.668,0.385-1.04,0.585c-0.579,0.312-1.177,0.635-1.679,1.001c-0.313,0.228-0.655,0.456-0.999,0.686
			c-1.255,0.839-2.441,1.632-2.9,2.686c-0.524,1.199-0.648,2.376-0.768,3.515c-0.08,0.752-0.155,1.463-0.341,2.15
			c-0.137,0.501-0.067,0.991,0.2,1.417c0.615,0.979,2.135,1.33,3.771,1.632c1.068,0.198,2.252,0.291,3.396,0.38
			c0.459,0.036,0.918,0.072,1.369,0.114c0.943,0.091,1.888,0.179,2.833,0.267c1.565,0.146,3.129,0.292,4.687,0.448
			c0.395,0.04,0.779,0.103,1.186,0.168c0.447,0.073,0.91,0.148,1.4,0.194c1.516,0.14,3.037,0.27,4.557,0.399
			c1.784,0.153,3.567,0.306,5.341,0.474c4.578,0.435,9.231,0.903,13.578,1.345c1.088,0.11,2.187,0.212,3.287,0.312
			c2.75,0.253,5.595,0.515,8.207,0.931c4.431,0.706,9.013,1.437,14.142,1.437c0.489,0,0.983-0.006,1.483-0.02
			c3.037-0.083,5.571-0.636,6.955-1.516c2.81-1.788,5.007-3.71,6.963-5.521c1.285-1.189,2.44-2.411,3.557-3.593
			c1.041-1.102,2.117-2.241,3.281-3.332l0.453-0.425c2.981-2.799,5.797-5.441,11.024-7.628c0.955-0.399,1.22-1.17,1.148-1.758
			c-0.114-0.943-1.027-1.708-2.272-1.903c-1.262-0.196-2.662-0.333-4.05-0.395c-1.264-0.057-2.556-0.088-3.805-0.118
			c-2.162-0.053-4.396-0.107-6.503-0.294c-3.67-0.324-7.238-0.919-9.937-1.4c-1.165-0.207-2.297-0.478-3.392-0.739
			c-2.456-0.586-4.995-1.191-8.214-1.201c-0.289,0-0.822-0.204-1.107-0.388c-4.141-2.658-7.293-4.712-10.221-6.661
			c-3.773-2.515-6.923-4.636-10.027-6.815c-3.033-2.128-5.973-4.317-8.45-6.179c-1.035-0.778-2.04-1.586-3.012-2.367
			c-0.811-0.652-1.65-1.326-2.509-1.986c-2.25-1.728-4.607-3.5-7.205-5.419c-2.347-1.733-4.508-3.292-6.606-4.765
			C407.017,453.249,405.796,452.91,404.456,452.91L404.456,452.91z"/>
	</g>
	<g>
		<path d="M665.182,449.901c0.354,0,0.766,0.049,1.229,0.14c1.678,0.328,3.344,0.679,5.092,0.931
			c2.799,0.402,4.503,1.288,4.516,2.509c0.055,5.317-0.015,10.638,0.185,15.955c0.147,3.933,0.624,7.862,0.982,11.792
			c0.293,3.219,0.63,6.438,0.946,9.657c0.296,3.001,0.555,6.002,0.901,9.003c0.227,1.974,0.454,3.951,0.917,5.918
			c0.309,1.315,0.952,2.62,1.601,3.916c0.447,0.893-0.286,1.533-2.664,2.017c-0.683,0.139-1.508,0.209-2.313,0.209
			c-1.375,0-2.694-0.203-3.154-0.614c-1.217-1.087-2.271-2.227-2.936-3.388c-0.833-1.454-1.36-2.947-1.728-4.436
			c-0.326-1.336-0.236-2.688-0.366-4.032c-0.286-2.938-0.567-5.875-0.901-8.812c-0.296-2.601-0.623-5.201-1.025-7.8
			c-0.084-0.541-0.56-1.074-0.847-1.601c-2.479,2.669-5.034,5.221-7.214,7.827c-2.062,2.462-5.104,4.704-8.766,6.792
			c-3.214,1.832-7.689,2.844-13.433,2.867c-0.036,0-0.072,0-0.107,0c-4.59,0-6.99-1.188-8.927-2.599
			c-2.683-1.953-4.35-4.054-4.906-6.302c-0.515-2.08-1.568-4.146-1.785-6.227c-0.477-4.579-0.942-9.17-0.697-13.749
			c0.158-2.957,1.568-5.902,2.445-8.853c0.267-0.9,0.417-1.817,0.989-2.686c0.459-0.698,1.236-0.997,2.479-0.997
			c0.499,0,1.072,0.048,1.731,0.138c3.693,0.503,4.459,0.876,4.303,2.48c-0.232,2.352-0.768,4.701-0.973,7.055
			c-0.353,4.044-0.732,8.088-0.747,12.134c-0.007,2.481,0.366,4.976,1.077,7.439c0.697,2.419,1.478,4.856,4.29,7.091
			c0.424,0.338,0.808,0.478,1.183,0.478c0.372,0,0.736-0.138,1.123-0.355c2.15-1.209,4.524-2.382,6.193-3.699
			c2.724-2.147,5.241-4.354,7.304-6.618c1.542-1.691,2.267-3.51,3.289-5.276c0.762-1.317,1.406-2.646,2.124-3.966
			c0.449-0.83,1.059-1.65,1.385-2.488c0.474-1.213,0.712-2.441,1.128-3.659c0.534-1.564,1.16-3.126,1.718-4.689
			c0.354-1.008,0.758-2.012,0.962-3.024c0.127-0.629,0.243-1.259,0.354-1.889c0.291-1.648,0.545-3.297,0.866-4.943
			c0.196-1.009,0.521-2.015,0.863-3.018C664.015,450.093,664.479,449.901,665.182,449.901 M665.182,448.901
			c-1.581,0-2.096,0.817-2.262,1.304c-0.321,0.938-0.682,2.034-0.898,3.149c-0.21,1.076-0.394,2.165-0.571,3.218
			c-0.098,0.581-0.195,1.162-0.298,1.743c-0.109,0.623-0.225,1.244-0.35,1.864c-0.148,0.739-0.42,1.488-0.706,2.281
			c-0.074,0.203-0.147,0.406-0.219,0.609c-0.234,0.658-0.482,1.319-0.731,1.98c-0.333,0.888-0.678,1.807-0.989,2.718
			c-0.188,0.551-0.341,1.1-0.488,1.63c-0.191,0.691-0.373,1.345-0.625,1.989c-0.176,0.452-0.468,0.928-0.777,1.432
			c-0.192,0.314-0.385,0.629-0.556,0.944c-0.279,0.514-0.548,1.029-0.817,1.546c-0.411,0.789-0.836,1.605-1.292,2.395
			c-0.281,0.486-0.541,0.976-0.801,1.466c-0.679,1.283-1.32,2.495-2.362,3.638c-1.834,2.013-4.184,4.142-7.184,6.507
			c-1.219,0.962-2.909,1.884-4.544,2.775c-0.511,0.278-1.021,0.557-1.52,0.837c-0.271,0.153-0.479,0.228-0.633,0.228
			c-0.058,0-0.234,0-0.56-0.26c-2.665-2.117-3.348-4.491-3.952-6.585c-0.696-2.412-1.045-4.82-1.038-7.16
			c0.014-3.722,0.347-7.525,0.669-11.205l0.074-0.845c0.104-1.19,0.301-2.418,0.492-3.604c0.18-1.122,0.367-2.282,0.48-3.439
			c0.276-2.828-2.124-3.155-5.163-3.569c-0.725-0.099-1.335-0.146-1.866-0.146c-1.014,0-2.461,0.149-3.315,1.447
			c-0.537,0.814-0.76,1.651-0.957,2.389c-0.05,0.188-0.1,0.376-0.156,0.562c-0.254,0.857-0.565,1.741-0.866,2.596
			c-0.738,2.1-1.501,4.271-1.619,6.487c-0.253,4.737,0.254,9.608,0.701,13.906c0.144,1.382,0.612,2.718,1.064,4.011
			c0.285,0.814,0.554,1.583,0.745,2.353c0.605,2.444,2.385,4.756,5.289,6.87c1.893,1.38,4.504,2.79,9.515,2.79h0.111
			c5.791-0.023,10.475-1.032,13.924-2.998c4.068-2.32,7.024-4.616,9.037-7.02c1.493-1.785,3.144-3.521,4.89-5.359
			c0.46-0.484,0.923-0.971,1.384-1.461c0.017,0.04,0.027,0.075,0.032,0.105c0.353,2.278,0.677,4.744,1.021,7.76
			c0.306,2.688,0.571,5.427,0.829,8.074l0.07,0.722c0.042,0.436,0.06,0.874,0.078,1.339c0.036,0.916,0.074,1.862,0.312,2.834
			c0.438,1.772,1.036,3.307,1.831,4.695c0.659,1.149,1.685,2.339,3.138,3.637c0.846,0.755,2.757,0.868,3.82,0.868
			c0.896,0,1.787-0.081,2.513-0.229c1.984-0.403,3.006-0.934,3.414-1.772c0.176-0.361,0.309-0.945-0.056-1.672
			c-0.576-1.152-1.23-2.46-1.521-3.696c-0.451-1.915-0.678-3.892-0.897-5.804c-0.242-2.101-0.445-4.24-0.642-6.311
			c-0.085-0.892-0.17-1.784-0.258-2.676c-0.101-1.029-0.204-2.058-0.308-3.086c-0.22-2.188-0.438-4.376-0.638-6.564
			c-0.095-1.04-0.198-2.08-0.302-3.12c-0.28-2.829-0.57-5.755-0.678-8.618c-0.136-3.62-0.146-7.312-0.156-10.88
			c-0.005-1.684-0.01-3.366-0.027-5.049c-0.013-1.24-0.956-2.853-5.373-3.488c-1.412-0.203-2.803-0.479-4.147-0.745l-0.895-0.177
			C666.061,448.953,665.596,448.901,665.182,448.901L665.182,448.901z"/>
	</g>
	<g>
		<path d="M825.081,416.541c2.337,0.267,4.046,0.428,5.698,0.655c2.845,0.395,4.062,1.323,3.844,2.453
			c-0.418,2.174-1.136,4.337-1.756,6.503c-0.312,1.098-0.602,2.199-1.048,3.289c-0.763,1.859-1.643,3.711-2.468,5.564
			c-0.41,0.922-0.861,1.84-1.203,2.767c-0.946,2.562-1.879,5.124-2.75,7.691c-0.449,1.323-0.721,2.657-1.133,3.982
			c-0.838,2.703-1.732,5.403-2.57,8.106c-0.38,1.23-0.728,2.462-1.009,3.694c-0.437,1.896-0.569,3.809-1.242,5.689
			c-2.181,6.095-1.979,12.217-1.617,18.344c0.031,0.535,0.349,1.068,0.521,1.604c0.161,0.503,0.306,1.008,0.479,1.584
			c5.585-0.356,11.03-0.709,16.479-1.05c5.794-0.363,11.576-0.827,17.442-0.827c1.064,0,2.131,0.015,3.201,0.049
			c1.549,0.049,3.08,0.424,4.524,0.728c1.536,0.318,2.86,0.888,4.463,1.058c1.955,0.208,2.575,0.847,2.492,1.346
			c-0.079,0.468-1.325,1.114-2.437,1.295c-2.092,0.341-4.438,0.485-6.708,0.56c-5.203,0.172-10.453,0.153-15.629,0.401
			c-4.588,0.219-9.073,0.782-13.659,1.03c-4.867,0.264-9.792,0.403-14.702,0.44c-0.012,0-0.023,0-0.034,0
			c-1.203,0-2.746-0.499-3.555-0.941c-1.066-0.584-1.792-1.322-2.227-2.037c-0.609-1.006-0.883-2.048-1.183-3.08
			c-0.604-2.075-1.484-4.152-1.6-6.234c-0.161-2.897,0.277-5.8,0.461-8.699c0.01-0.129,0.047-0.257,0.066-0.385
			c0.397-2.513,0.703-5.028,1.22-7.537c0.542-2.641,1.182-5.28,1.976-7.909c0.646-2.151,1.642-4.284,2.37-6.432
			c0.51-1.501,0.697-3.022,1.263-4.52c1.102-2.924,2.379-5.836,3.56-8.755c0.341-0.842,0.514-1.695,0.922-2.533
			c0.89-1.832,1.946-3.652,2.807-5.488c0.493-1.049,0.688-2.12,1.1-3.175c0.814-2.095,1.696-4.183,2.53-6.274
			C824.354,418.534,824.694,417.567,825.081,416.541 M824.42,415.458l-0.274,0.729c-0.137,0.361-0.267,0.716-0.396,1.064
			c-0.234,0.636-0.462,1.256-0.709,1.873c-0.344,0.863-0.695,1.725-1.048,2.586c-0.494,1.21-1.005,2.461-1.485,3.697
			c-0.188,0.48-0.331,0.955-0.47,1.413c-0.18,0.596-0.35,1.158-0.604,1.698c-0.456,0.974-0.982,1.969-1.491,2.932
			c-0.439,0.831-0.895,1.69-1.31,2.546c-0.27,0.552-0.441,1.089-0.607,1.608c-0.11,0.345-0.214,0.67-0.342,0.986
			c-0.418,1.033-0.849,2.066-1.278,3.099c-0.774,1.857-1.574,3.777-2.29,5.679c-0.327,0.866-0.533,1.727-0.732,2.559
			c-0.165,0.691-0.322,1.345-0.542,1.992c-0.308,0.908-0.675,1.84-1.03,2.742c-0.478,1.211-0.972,2.464-1.351,3.723
			c-0.748,2.478-1.401,5.094-1.997,7.996c-0.365,1.775-0.63,3.57-0.885,5.307c-0.111,0.759-0.224,1.518-0.343,2.275
			c-0.006,0.038-0.014,0.071-0.021,0.104c-0.024,0.12-0.047,0.241-0.056,0.362c-0.055,0.863-0.133,1.736-0.209,2.581
			c-0.182,2.037-0.37,4.144-0.253,6.249c0.092,1.66,0.618,3.275,1.128,4.838c0.176,0.54,0.353,1.08,0.51,1.62l0.068,0.238
			c0.289,1.003,0.588,2.039,1.219,3.081c0.58,0.953,1.479,1.78,2.602,2.396c0.968,0.529,2.664,1.064,4.035,1.064
			c5.125-0.038,10.087-0.188,14.79-0.441c2.21-0.12,4.425-0.314,6.567-0.503c2.316-0.204,4.712-0.414,7.086-0.527
			c3.005-0.145,6.094-0.199,9.081-0.252c2.143-0.038,4.358-0.077,6.533-0.149c2.838-0.093,5.01-0.274,6.836-0.571
			c0.774-0.126,3.036-0.785,3.262-2.115c0.072-0.435-0.045-0.878-0.328-1.251c-0.512-0.673-1.536-1.096-3.045-1.256
			c-0.884-0.094-1.69-0.326-2.545-0.571c-0.579-0.166-1.178-0.338-1.82-0.472l-0.593-0.126c-1.316-0.283-2.677-0.576-4.104-0.622
			c-1.04-0.032-2.128-0.049-3.232-0.049c-4.861,0-9.729,0.32-14.436,0.63c-1.023,0.067-2.046,0.135-3.069,0.199
			c-3.828,0.239-7.655,0.484-11.53,0.733l-4.155,0.266c-0.086-0.288-0.169-0.564-0.258-0.84c-0.066-0.207-0.15-0.413-0.235-0.619
			c-0.112-0.271-0.229-0.552-0.239-0.738c-0.377-6.38-0.52-12.133,1.561-17.948c0.46-1.286,0.681-2.567,0.894-3.807
			c0.119-0.689,0.231-1.341,0.382-1.995c0.249-1.094,0.563-2.244,0.989-3.624c0.418-1.348,0.851-2.695,1.282-4.043
			c0.435-1.354,0.868-2.708,1.288-4.062c0.188-0.605,0.349-1.214,0.503-1.802c0.196-0.745,0.382-1.449,0.622-2.155
			c0.9-2.654,1.85-5.253,2.741-7.666c0.234-0.638,0.524-1.271,0.831-1.94c0.116-0.255,0.233-0.511,0.348-0.767
			c0.259-0.581,0.523-1.163,0.787-1.745c0.571-1.256,1.162-2.556,1.691-3.846c0.409-0.999,0.69-1.996,0.962-2.961l0.123-0.435
			c0.15-0.526,0.308-1.055,0.465-1.582c0.485-1.631,0.986-3.316,1.312-5.006c0.121-0.625-0.014-1.233-0.389-1.758
			c-0.683-0.955-2.09-1.567-4.3-1.874c-1.107-0.152-2.237-0.275-3.545-0.418c-0.669-0.072-1.388-0.15-2.178-0.24L824.42,415.458
			L824.42,415.458z"/>
	</g>
	<g>
		<path d="M1080.519,405.719c0.366,0,0.741,0.024,1.022,0.068c1.878,0.291,3.951,0.537,5.412,1.012
			c1.055,0.342,1.283,1.017,1.828,1.549c1.221,1.195,2.478,2.386,3.592,3.594c1.424,1.543,2.673,3.105,4.088,4.65
			c0.987,1.08,2.164,2.139,3.185,3.216c0.848,0.895,1.625,1.796,2.375,2.701c0.89,1.069,1.782,2.139,2.553,3.22
			c0.811,1.137,1.445,2.29,2.216,3.432c0.803,1.19,1.708,2.369,2.496,3.56c0.476,0.719,0.869,1.445,1.191,2.174
			c0.609,1.386,1.659,2.699,3.621,3.94c1.394,0.88-0.804,1.948-4.203,2.179c-0.615,0.042-1.261,0.034-1.859,0.09
			c-0.68,0.064-1.319,0.098-1.911,0.098c-1.816,0-3.188-0.314-3.892-1.028c-1.536-1.555-2.686-3.159-3.95-4.749
			c-1.237-1.556-2.466-3.112-3.598-4.678c-0.745-1.03-1.262-2.082-1.972-3.116c-0.985-1.437-1.975-2.875-3.115-4.297
			c-1.067-1.33-2.287-2.643-3.521-3.952c-1.485-1.574-3.117-3.131-4.562-4.71c-0.824-0.9-6.228-1.833-6.97-2.745
			c-0.292-0.356-13.739-0.694-14.27-1.156c-4.446,1.127-8.476,2.27-12.828,3.223c-6.152,1.349-12.521,2.573-18.845,3.819
			c-3.411,0.672-6.858,1.33-10.405,1.902c-3.374,0.547-6.845,1.034-10.366,1.446c-7.07,0.827-14.312,1.481-20.769,2.877
			c-1.586,0.344-3.322,0.703-5.1,0.805c-0.282,0.017-0.554,0.024-0.813,0.024c-2.514,0-3.875-0.742-3.165-1.709
			c0.691-0.943,2.102-1.682,4.39-2.299c4.999-1.35,10.606-2.196,16.593-2.702c7.98-0.676,15.273-1.922,22.508-3.229
			c5.669-1.023,11.434-2.001,16.839-3.182c5.118-1.119,9.83-2.477,14.716-3.729c2.886-0.74,23.549-1.5,26.489-2.21
			C1079.764,405.747,1080.137,405.719,1080.519,405.719 M1080.519,404.719c-0.349,0-0.847,0.021-1.237,0.115
			c-1.36,0.328-7.184,0.695-12.815,1.05c-6.237,0.393-12.128,0.764-13.685,1.163c-1.484,0.381-2.953,0.771-4.422,1.161
			c-3.301,0.878-6.715,1.785-10.26,2.561c-4.355,0.951-9.029,1.785-13.55,2.592c-1.086,0.193-2.171,0.387-3.253,0.582
			c-6.952,1.256-14.409,2.539-22.414,3.217c-6.509,0.55-11.994,1.443-16.77,2.732c-2.531,0.683-4.1,1.532-4.936,2.674
			c-0.422,0.574-0.497,1.233-0.207,1.807c0.625,1.234,2.617,1.493,4.179,1.493c0.277,0,0.568-0.009,0.871-0.026
			c1.812-0.104,3.519-0.449,5.254-0.825c5.192-1.122,11.026-1.775,16.668-2.406c1.337-0.149,2.674-0.299,4.005-0.455
			c3.459-0.404,6.961-0.894,10.41-1.452c3.645-0.588,7.171-1.265,10.438-1.908l2.907-0.571c5.279-1.037,10.737-2.108,15.958-3.253
			c3.01-0.659,5.818-1.396,8.791-2.175c1.238-0.325,2.491-0.653,3.778-0.981c0.771,0.184,2.599,0.325,7.839,0.606
			c2.32,0.125,5.167,0.277,5.966,0.4c0.643,0.521,1.847,0.897,3.741,1.461c1.072,0.318,2.692,0.8,3.016,1.081
			c0.809,0.886,1.7,1.786,2.562,2.658c0.664,0.671,1.351,1.365,1.994,2.048c1.178,1.249,2.415,2.578,3.469,3.892
			c1.135,1.414,2.119,2.849,3.071,4.236c0.307,0.447,0.575,0.897,0.859,1.375c0.343,0.573,0.696,1.167,1.126,1.762
			c1.146,1.585,2.369,3.134,3.626,4.714c0.287,0.362,0.569,0.725,0.851,1.087c0.956,1.23,1.945,2.503,3.171,3.743
			c0.879,0.892,2.385,1.325,4.603,1.325c0.613,0,1.288-0.034,2.005-0.103c0.315-0.029,0.646-0.039,0.978-0.05
			c0.287-0.009,0.574-0.019,0.856-0.037c1.512-0.103,5.078-0.528,5.516-2.263c0.081-0.317,0.159-1.124-0.847-1.76
			c-1.608-1.018-2.638-2.129-3.24-3.497c-0.354-0.801-0.781-1.581-1.272-2.323c-0.429-0.648-0.894-1.295-1.344-1.921
			c-0.393-0.548-0.786-1.096-1.157-1.646c-0.324-0.481-0.634-0.979-0.933-1.461c-0.403-0.651-0.821-1.324-1.298-1.992
			c-0.775-1.088-1.673-2.167-2.54-3.21l-0.059-0.069c-0.889-1.073-1.658-1.947-2.418-2.749c-0.475-0.502-0.984-1.001-1.478-1.483
			c-0.577-0.565-1.173-1.149-1.694-1.72c-0.678-0.739-1.332-1.501-1.964-2.237c-0.681-0.792-1.384-1.61-2.127-2.416
			c-0.905-0.982-1.909-1.958-2.88-2.902l-0.748-0.729c-0.109-0.107-0.211-0.234-0.328-0.383c-0.358-0.449-0.848-1.064-1.891-1.402
			c-1.266-0.411-2.911-0.654-4.502-0.889c-0.358-0.053-0.715-0.105-1.065-0.16C1081.366,404.749,1080.938,404.719,1080.519,404.719
			L1080.519,404.719z"/>
	</g>
	<g>
		<path d="M271.454,426.404c0.064,0,0.127,0,0.191,0.001c0.566,0.007,1.133,0.139,1.689,0.139c0.018,0,0.035,0,0.052,0
			c0.228-0.004,0.455-0.006,0.68-0.006c3.533,0,6.748,0.482,9.975,0.999c8.224,1.319,16.521,2.569,24.711,3.919
			c5.007,0.827,9.848,1.807,14.809,2.677c2.755,0.482,5.572,0.919,8.421,1.31c3.052,0.418,3.389,0.866,1.631,1.881
			c-0.934,0.542-1.055,1.297-1.961,1.85c-2.483,1.514-5.205,2.968-7.801,4.453c-5.086,2.912-11.766,5.26-17.767,7.851
			c-3.691,1.592-7.13,3.3-9.097,5.398c-0.782,0.834-2.554,1.539-4.023,2.258c-0.387,0.188-1.292,0.301-1.97,0.301
			c-0.018,0-0.034,0-0.051,0c-1.578-0.013-4.504-1.288-4.667-1.927c-0.044-0.177-0.175-0.395-0.477-0.506
			c-2.761-1.02-3.606-2.387-4.794-3.73c-1.35-1.53-3.396-2.963-5.071-4.451c-1.768-1.57-3.434-3.157-5.185-4.73
			c-0.869-0.78-1.862-1.54-2.734-2.321c-1.611-1.44-3.148-2.896-4.768-4.338c-1.374-1.221-2.897-2.417-4.21-3.649
			c-1.168-1.095-2.219-2.212-3.168-3.34c-0.625-0.743,0.757-1.577,2.909-1.904c0.577-0.088,1.179-0.131,1.765-0.131
			c1.577,0,3.042,0.307,3.619,0.842c2.866,2.66,5.589,5.345,8.546,7.99c1.894,1.694,4.185,3.318,6.145,5.001
			c1.825,1.568,3.453,3.172,5.156,4.761c1.917,1.787,3.807,3.579,5.753,5.361c0.22,0.203,0.734,0.355,0.979,0.471
			c3.749-1.688,7.373-3.333,11.043-4.965c4.757-2.113,9.594-4.199,14.301-6.329c1.855-0.84,3.388-1.787,5.191-2.647
			c1.156-0.55,0.572-0.899-0.688-1.131c-9.611-1.755-19.256-3.482-28.873-5.234c-5.937-1.081-11.9-2.144-17.728-3.31
			c-1.738-0.349-3.216-0.968-4.5-1.565c-0.552-0.257-0.308-0.777-0.426-1.178C269.858,426.447,270.658,426.404,271.454,426.404
			 M271.454,425.404c-0.57,0-1.142,0.021-1.713,0.043l-0.711,0.024l-1.295,0.04l0.367,1.243c0.001,0.024-0.001,0.075-0.001,0.127
			c0.004,0.337,0.014,1.231,0.964,1.674c1.292,0.602,2.864,1.267,4.726,1.64c4.941,0.988,10.058,1.917,15.006,2.815l2.74,0.497
			c4.512,0.822,9.03,1.639,13.548,2.456c4.849,0.876,9.698,1.752,14.539,2.636c-0.394,0.205-0.779,0.41-1.157,0.612
			c-0.93,0.498-1.808,0.969-2.793,1.414c-2.9,1.312-5.902,2.631-8.805,3.906c-1.834,0.805-3.668,1.61-5.49,2.42
			c-2.61,1.16-5.195,2.327-7.819,3.511l-2.839,1.28c-0.118-0.047-0.255-0.104-0.307-0.141c-1.283-1.177-2.565-2.379-3.848-3.581
			c-0.624-0.585-1.248-1.17-1.875-1.754c-0.473-0.441-0.94-0.884-1.408-1.326c-1.202-1.139-2.444-2.314-3.778-3.462
			c-0.909-0.78-1.894-1.553-2.846-2.301c-1.119-0.877-2.275-1.785-3.284-2.687c-1.821-1.63-3.587-3.307-5.296-4.929
			c-1.072-1.018-2.144-2.035-3.237-3.05c-1.078-1-3.365-1.108-4.299-1.108c-0.655,0-1.3,0.048-1.916,0.143
			c-1.212,0.184-3.32,0.688-3.81,1.987c-0.2,0.53-0.095,1.095,0.287,1.549c1.005,1.194,2.098,2.347,3.249,3.426
			c0.789,0.739,1.654,1.47,2.491,2.175c0.588,0.496,1.177,0.992,1.74,1.492c0.832,0.741,1.643,1.486,2.454,2.231
			c0.765,0.703,1.53,1.405,2.312,2.104c0.447,0.401,0.926,0.797,1.389,1.18c0.453,0.375,0.921,0.762,1.343,1.141
			c0.793,0.712,1.569,1.428,2.344,2.143c0.921,0.85,1.875,1.729,2.845,2.592c0.603,0.535,1.254,1.064,1.883,1.577
			c1.121,0.912,2.28,1.855,3.102,2.787c0.163,0.185,0.319,0.369,0.474,0.553c0.974,1.151,2.077,2.455,4.628,3.419
			c0.59,1.402,4.229,2.52,5.577,2.53h0.059c0.588,0,1.757-0.085,2.409-0.402c0.301-0.147,0.615-0.294,0.929-0.44
			c1.295-0.605,2.633-1.23,3.385-2.031c1.919-2.049,5.507-3.761,8.764-5.165c1.79-0.772,3.676-1.538,5.5-2.278
			c4.301-1.745,8.749-3.55,12.369-5.622c0.891-0.51,1.797-1.017,2.703-1.522c1.709-0.955,3.477-1.942,5.121-2.945
			c0.595-0.362,0.939-0.794,1.216-1.14c0.239-0.3,0.413-0.517,0.726-0.698c0.61-0.353,1.749-1.01,1.539-2.081
			c-0.219-1.117-1.604-1.392-3.536-1.656c-2.869-0.393-5.69-0.831-8.385-1.304c-2.07-0.362-4.156-0.752-6.173-1.128
			c-2.813-0.524-5.722-1.067-8.645-1.55c-4.837-0.797-9.79-1.572-14.58-2.321c-3.382-0.529-6.765-1.058-10.136-1.599
			c-3.456-0.554-6.604-1.012-10.133-1.012c-0.231,0-0.463,0.002-0.697,0.006c-0.001,0-0.002,0-0.003,0
			c-0.258,0-0.507-0.03-0.771-0.062c-0.298-0.036-0.607-0.073-0.938-0.077L271.454,425.404L271.454,425.404z"/>
	</g>
	<g>
		<path d="M370.887,423.25c0.87,0,1.868,0.184,2.708,0.333c0.188,0.033,0.101,0.617-0.242,0.85
			c-1.763,1.192-3.541,2.385-5.518,3.514c-3.166,1.812-6.554,3.553-9.731,5.359c-2.63,1.497-5.068,3.052-7.625,4.57
			c-3.153,1.875-6.247,3.765-9.541,5.596c-3.132,1.738-6.489,3.407-10,5.238c2.364-0.272,4.392-0.508,6.422-0.741
			c1.743-0.201,3.461-0.508,5.232-0.574c4.432-0.169,8.853-0.45,13.302-0.45c2.205,0,4.417,0.069,6.643,0.255
			c4.588,0.384,9.28,0.545,13.901,0.864c4.036,0.277,8.02,0.689,12.062,0.944c2.287,0.143,4.643,0.101,6.969,0.123
			c2.076,0.02,4.356,0.58,3.991,1.167c-0.371,0.593-1.509,1.31-2.775,1.559c-1.668,0.328-3.411,0.462-5.187,0.462
			c-1.596,0-3.218-0.108-4.839-0.281c-2.089-0.223-4.283-0.272-6.417-0.43c-4.508-0.333-8.989-0.736-13.515-1.02
			c-4.673-0.292-9.371-0.499-14.082-0.499c-2.028-0.001-4.058,0.038-6.09,0.125c-3.449,0.146-6.861,0.453-10.293,0.678
			c-1.843,0.122-3.688,0.257-5.545,0.315c-0.03,0.001-0.06,0.001-0.091,0.001c-1.312,0-3.398-0.86-3.001-1.311
			c0.347-0.394,1.474-0.668,2.276-1.004c-1.098-0.333-2.282-0.65-3.328-1.032c-0.384-0.142-0.751-0.491-0.594-0.657
			c0.898-0.956,1.77-1.93,3.01-2.811c1.515-1.072,3.398-2.055,5.098-3.084c5.204-3.147,10.196-6.362,15.657-9.43
			c4.162-2.338,7.913-4.811,13.226-6.803c2.292-0.858,4.566-1.498,7.387-1.801C370.526,423.257,370.703,423.25,370.887,423.25
			 M370.887,422.25c-0.226,0-0.44,0.011-0.638,0.032c-2.585,0.277-4.938,0.851-7.629,1.858c-4.265,1.6-7.569,3.519-10.765,5.374
			c-0.86,0.5-1.721,1-2.6,1.493c-3.774,2.12-7.376,4.342-10.86,6.49c-1.601,0.987-3.203,1.975-4.825,2.956
			c-0.564,0.341-1.148,0.677-1.731,1.013c-1.171,0.674-2.382,1.37-3.427,2.11c-1.215,0.863-2.085,1.793-2.927,2.692l-0.234,0.25
			c-0.262,0.276-0.366,0.67-0.277,1.049c0.146,0.621,0.766,1.052,1.253,1.231c0.264,0.096,0.535,0.188,0.809,0.276
			c-0.058,0.051-0.112,0.104-0.162,0.16c-0.314,0.356-0.386,0.85-0.189,1.286c0.493,1.091,2.862,1.686,3.941,1.686l0.123-0.002
			c1.614-0.051,3.236-0.159,4.804-0.265l0.774-0.052c1.165-0.076,2.328-0.162,3.491-0.248c2.219-0.163,4.513-0.332,6.778-0.429
			c1.932-0.083,3.967-0.125,6.048-0.124c4.123,0,8.578,0.157,14.02,0.497c2.844,0.178,5.722,0.407,8.506,0.63
			c1.665,0.133,3.329,0.266,4.997,0.389c0.823,0.061,1.655,0.105,2.487,0.15c1.295,0.07,2.634,0.142,3.897,0.276
			c1.807,0.193,3.425,0.287,4.945,0.287c1.974,0,3.733-0.157,5.379-0.48c1.459-0.287,2.87-1.113,3.431-2.01
			c0.241-0.388,0.254-0.855,0.035-1.253c-0.75-1.366-4.446-1.44-4.865-1.444c-0.604-0.006-1.21-0.007-1.817-0.009
			c-1.688-0.004-3.433-0.009-5.099-0.112c-2.163-0.137-4.353-0.321-6.469-0.501c-1.826-0.154-3.714-0.314-5.586-0.443
			c-1.925-0.133-3.892-0.24-5.793-0.344c-2.667-0.146-5.424-0.296-8.093-0.519c-2.082-0.174-4.281-0.259-6.726-0.259
			c-3.206,0-6.438,0.146-9.564,0.289c-1.258,0.057-2.517,0.114-3.776,0.162c-1.278,0.048-2.527,0.216-3.736,0.378
			c-0.523,0.07-1.047,0.142-1.573,0.202l-0.985,0.113c1.783-0.92,3.496-1.817,5.164-2.743c2.584-1.436,5.08-2.929,7.494-4.373
			c0.69-0.412,1.38-0.825,2.073-1.237c0.984-0.584,1.951-1.174,2.917-1.764c1.516-0.925,3.083-1.882,4.691-2.797
			c1.532-0.871,3.146-1.744,4.706-2.589c1.665-0.901,3.387-1.833,5.027-2.771c1.942-1.109,3.677-2.266,5.582-3.554
			c0.562-0.381,0.884-1.145,0.749-1.775c-0.1-0.468-0.442-0.808-0.893-0.887l-0.102-0.019
			C372.796,422.425,371.81,422.25,370.887,422.25L370.887,422.25z"/>
	</g>
	<g>
		<path d="M384.44,510.438c0.597,0,1.177,0.037,1.702,0.118c2.006,0.311,2.892,1.654,2.052,2.607
			c-0.996,1.127-1.69,2.296-2.465,3.452c-0.903,1.35-1.812,2.699-2.606,4.058c-0.761,1.301-1.383,2.614-2.058,3.922
			c-0.885,1.715-1.85,3.425-2.57,5.149c-0.139,0.334,0.421,0.875,1.116,1.072c2.627,0.75,1.451,2.345-1.068,2.784
			c-0.788,0.138-1.524,0.41-2.029,0.69c-0.877,0.487-1.923,0.727-2.958,0.727c-1.132,0-2.249-0.286-3.114-0.847
			c-0.508-0.33-1.607-0.598-2.58-0.725c-3.261-0.432-6.589-0.788-9.889-1.174c-3.963-0.467-7.903-0.969-11.894-1.395
			c-4.785-0.507-9.607-0.962-14.427-1.416c-1.712-0.163-3.458-0.276-5.2-0.376c-5.029-0.286-10.062-0.562-15.1-0.823
			c-0.284-0.015-0.573-0.021-0.863-0.021c-0.495,0-0.995,0.018-1.485,0.038c-0.455,0.02-0.928,0.041-1.378,0.041
			c-0.979,0-1.847-0.105-2.167-0.579c-0.432-0.644-1.015-1.473-0.354-1.985c1.352-1.05,3.495-1.944,5.31-2.905
			c1.556-0.823,3.098-1.652,4.665-2.473c0.989-0.52,2.101-0.998,3.837-0.998c0.142,0,0.288,0.003,0.438,0.01
			c1.32,0.059,3.494,0.096,3.733,0.357c0.508,0.561,0.441,1.339-0.185,1.886c-1.138,0.993-2.736,1.917-4.373,2.804
			c-1.191,0.646-0.472,0.791,1.015,0.872c4.895,0.269,9.813,0.48,14.675,0.819c3.391,0.237,6.691,0.67,10.053,0.979
			c1.954,0.18,3.992,0.232,5.918,0.442c5.121,0.562,10.195,1.188,15.307,1.765c0.945,0.106,1.974,0.102,2.739,0.138
			c1.145-2.096,2.25-4.011,3.224-5.938c0.766-1.512,1.264-3.048,2.083-4.557c0.695-1.283,1.593-2.553,2.558-3.809
			c0.899-1.17,1.967-2.318,3.035-3.466C379.821,510.95,382.24,510.438,384.44,510.438 M384.44,509.438
			c-2.205,0-5.034,0.489-6.036,1.565c-1.065,1.145-2.166,2.328-3.096,3.538c-1.176,1.53-2.016,2.782-2.645,3.941
			c-0.468,0.863-0.833,1.729-1.187,2.564c-0.295,0.698-0.574,1.358-0.908,2.017c-0.666,1.317-1.394,2.628-2.164,4.016
			c-0.247,0.444-0.496,0.895-0.749,1.353c-0.046-0.001-0.092-0.002-0.139-0.004c-0.603-0.017-1.287-0.036-1.908-0.106
			c-2.247-0.253-4.486-0.516-6.726-0.778c-2.856-0.336-5.712-0.671-8.583-0.986c-1.092-0.119-2.224-0.188-3.319-0.257
			c-0.866-0.053-1.761-0.108-2.617-0.188c-1.297-0.119-2.586-0.257-3.874-0.395c-2.019-0.217-4.106-0.439-6.201-0.587
			c-3.372-0.234-6.824-0.411-10.162-0.582c-1.145-0.059-2.29-0.117-3.434-0.179c1.058-0.621,2.062-1.28,2.866-1.983
			c0.519-0.453,0.825-1.047,0.862-1.674c0.035-0.595-0.176-1.176-0.593-1.636c-0.439-0.481-1.153-0.56-3.779-0.659l-0.651-0.026
			c-0.166-0.007-0.327-0.011-0.483-0.011c-1.917,0-3.2,0.534-4.301,1.112c-0.982,0.515-1.955,1.032-2.928,1.55l-1.74,0.925
			c-0.527,0.279-1.082,0.552-1.637,0.825c-1.369,0.674-2.785,1.371-3.818,2.174c-1.382,1.073-0.301,2.681,0.106,3.286l0.031,0.047
			c0.607,0.9,1.855,1.021,2.997,1.021c0.417,0,0.855-0.018,1.281-0.036l0.139-0.006c0.477-0.021,0.962-0.037,1.443-0.037
			c0.273,0,0.544,0.005,0.811,0.02c4.815,0.25,9.894,0.526,15.096,0.822c1.54,0.088,3.357,0.201,5.162,0.373
			c4.708,0.444,9.575,0.902,14.416,1.415c2.722,0.291,5.47,0.623,8.127,0.943c1.251,0.151,2.502,0.303,3.755,0.45
			c0.931,0.108,1.863,0.215,2.795,0.321c2.333,0.267,4.746,0.542,7.08,0.851c1.046,0.137,1.896,0.396,2.167,0.572
			c1.004,0.65,2.303,1.008,3.659,1.008c1.25,0,2.44-0.295,3.443-0.853c0.46-0.255,1.102-0.472,1.716-0.579
			c2.02-0.353,3.315-1.317,3.378-2.518c0.031-0.583-0.215-1.645-2.208-2.214c-0.117-0.033-0.217-0.08-0.295-0.127
			c0.497-1.129,1.104-2.28,1.694-3.397c0.225-0.426,0.449-0.851,0.669-1.276c0.188-0.366,0.373-0.731,0.558-1.098
			c0.462-0.917,0.94-1.865,1.475-2.778c0.742-1.269,1.609-2.564,2.448-3.817l0.126-0.189c0.166-0.246,0.328-0.494,0.49-0.742
			c0.594-0.91,1.156-1.769,1.894-2.604c0.551-0.625,0.71-1.418,0.437-2.174c-0.386-1.065-1.539-1.845-3.085-2.084
			C385.734,509.481,385.11,509.438,384.44,509.438L384.44,509.438z"/>
	</g>
	<g>
		<path d="M479.785,441.077c0.028,0,0.055,0,0.083,0c1.355,0.007,3.382,1,3.728,1.718c1.171,2.436,2.402,4.867,3.644,7.298
			c0.979,1.915,1.922,3.835,3.034,5.737c1.426,2.438,3.022,4.861,4.512,7.294c1.37,2.238,2.598,4.491,4.069,6.719
			c1.35,2.043,3.019,4.053,4.4,6.091c1.121,1.655,1.969,3.343,3.041,5.004c0.812,1.256,1.776,2.497,2.696,3.74
			c0.775,1.052-0.497,1.695-3.39,1.704c-0.012,0-0.024,0-0.037,0c-3.42,0-6.439-1.095-7.789-2.782
			c-1.779-2.229-3.73-4.435-5.383-6.677c-1.233-1.672-2.017-3.399-3.172-5.082c-1.385-2.016-2.998-4.006-4.419-6.018
			c-0.513-0.727-0.767-1.484-1.118-2.23c-0.99-2.097-1.941-4.197-2.961-6.293c-0.91-1.866-1.95-3.722-2.821-5.59
			c-0.704-1.513-1.342-3.034-1.826-4.561c-0.438-1.38-0.753-2.771-0.89-4.162C475.066,441.785,476.923,441.077,479.785,441.077
			 M479.785,440.077L479.785,440.077c-1.722,0-3.997,0.243-5.05,1.404c-0.416,0.457-0.605,1.012-0.547,1.603
			c0.136,1.395,0.441,2.822,0.932,4.368c0.445,1.404,1.041,2.892,1.873,4.68c0.501,1.074,1.061,2.152,1.602,3.194
			c0.411,0.792,0.836,1.61,1.227,2.412c0.648,1.33,1.28,2.69,1.892,4.005c0.353,0.759,0.707,1.518,1.064,2.276
			c0.091,0.194,0.176,0.39,0.261,0.586c0.252,0.581,0.513,1.183,0.944,1.794c0.659,0.933,1.364,1.869,2.046,2.774
			c0.799,1.061,1.625,2.156,2.365,3.233c0.501,0.729,0.926,1.462,1.375,2.237c0.545,0.94,1.109,1.912,1.817,2.872
			c1.062,1.44,2.255,2.878,3.409,4.269c0.673,0.812,1.347,1.624,1.997,2.438c1.56,1.948,4.843,3.158,8.571,3.158
			c2.581-0.008,3.993-0.464,4.481-1.435c0.17-0.338,0.364-1.029-0.25-1.862c-0.203-0.274-0.407-0.547-0.61-0.819
			c-0.705-0.942-1.435-1.918-2.051-2.871c-0.47-0.728-0.909-1.484-1.333-2.216c-0.533-0.918-1.084-1.868-1.719-2.806
			c-0.667-0.984-1.405-1.969-2.118-2.921c-0.777-1.037-1.581-2.109-2.275-3.16c-0.915-1.386-1.755-2.816-2.567-4.199
			c-0.488-0.831-0.976-1.662-1.483-2.49c-0.577-0.943-1.17-1.884-1.763-2.825c-0.92-1.46-1.871-2.969-2.738-4.452
			c-0.896-1.533-1.7-3.116-2.477-4.647l-0.53-1.04c-1.381-2.706-2.528-4.979-3.632-7.276c-0.577-1.199-3.066-2.276-4.624-2.284
			H479.785L479.785,440.077z"/>
	</g>
	<g>
		<path d="M328.969,470.211c2.593,0,4.29,0.77,5.765,1.804c2.422,1.696,4.716,3.425,6.874,5.175
			c1.989,1.614,3.706,3.281,5.583,4.918c1.234,1.074,2.447,2.157,3.834,3.203c3.181,2.397,6.472,4.771,9.698,7.158
			c2.471,1.83,4.897,3.667,7.374,5.495c0.707,0.521,1.802,0.988,2.207,1.538c0.386,0.529,0.397,1.165,0.015,1.69
			c-0.219,0.301-1.505,0.717-2.197,0.717c-0.042,0-0.081-0.002-0.117-0.005c-1.105-0.092-2.294-0.461-2.97-0.843
			c-5.027-2.849-8.602-6.005-12.424-9.109c-2.731-2.22-5.909-4.353-8.669-6.566c-3.152-2.527-5.985-5.116-9.106-7.648
			c-1.947-1.582-4.329-3.082-6.207-4.675c-0.969-0.823-1.265-1.769-1.882-2.686C327.556,470.264,328.293,470.211,328.969,470.211
			 M328.969,469.211L328.969,469.211c-0.737,0-1.532,0.059-2.363,0.176l-1.583,0.223l0.893,1.326
			c0.17,0.252,0.316,0.515,0.471,0.793c0.37,0.662,0.789,1.413,1.593,2.096c1.037,0.88,2.224,1.732,3.371,2.557
			c0.969,0.696,1.971,1.417,2.853,2.133c1.475,1.196,2.914,2.431,4.305,3.623c1.544,1.325,3.141,2.694,4.806,4.029
			c1.351,1.083,2.815,2.158,4.231,3.198c1.495,1.098,3.041,2.232,4.433,3.364c0.556,0.451,1.105,0.902,1.656,1.354
			c3.213,2.642,6.536,5.372,10.906,7.849c0.855,0.483,2.213,0.872,3.38,0.969c0.062,0.006,0.129,0.009,0.2,0.009
			c0.653,0,2.463-0.384,3.005-1.128c0.64-0.88,0.634-1.979-0.015-2.869c-0.379-0.516-1.012-0.89-1.625-1.251
			c-0.297-0.176-0.578-0.341-0.796-0.502c-1.328-0.98-2.642-1.963-3.956-2.946c-1.136-0.85-2.271-1.699-3.417-2.548
			c-1.201-0.889-2.41-1.775-3.62-2.662c-2.005-1.469-4.078-2.989-6.071-4.491c-1.186-0.895-2.271-1.841-3.319-2.757l-0.46-0.401
			c-0.691-0.603-1.36-1.209-2.029-1.815c-1.135-1.028-2.308-2.092-3.581-3.125c-2.186-1.772-4.518-3.527-6.931-5.218
			C333.989,470.272,332.077,469.211,328.969,469.211L328.969,469.211z"/>
	</g>
	<g>
		<path d="M367.508,503.178c1.198,0.16,3.177,0.39,5.083,0.691c2.328,0.368,4.646,0.757,6.87,1.212
			c1.814,0.37,2.009,1.059,1.252,1.72c-0.915,0.798-1.75,1.149-2.914,1.149c-0.466,0-0.985-0.057-1.583-0.163
			c-2.933-0.523-5.979-1.003-8.612-1.71c-1.688-0.451-2.862-1.245-4-1.951C362.879,503.675,364.489,503.196,367.508,503.178
			 M367.571,502.178h-0.069c-4.634,0.027-4.9,0.968-5.027,1.42c-0.117,0.413-0.02,0.991,0.601,1.377l0.307,0.192
			c1.069,0.669,2.282,1.427,3.963,1.876c2.213,0.595,4.721,1.032,7.146,1.456c0.518,0.091,1.035,0.181,1.548,0.272
			c0.674,0.12,1.25,0.179,1.759,0.179c1.382,0,2.45-0.417,3.571-1.396c0.843-0.738,0.806-1.466,0.708-1.835
			c-0.314-1.189-1.898-1.513-2.419-1.618c-2.397-0.491-4.84-0.893-6.913-1.22c-1.409-0.224-2.844-0.405-3.996-0.552
			c-0.416-0.053-0.791-0.101-1.111-0.144L367.571,502.178L367.571,502.178z"/>
	</g>
</g>
<g>
	<polyline fill="none" stroke="#000000" stroke-miterlimit="10" points="271.509,395.145 169.399,393.996 78.452,382.373 
		32.978,372.018 21.786,364.378 162.584,364.378 	"/>
	<polyline fill="none" stroke="#000000" stroke-miterlimit="10" points="294.338,388.62 277.11,399.2 257.126,384.738 
		221.195,378.897 221.479,376.196 	"/>
	<path fill="none" stroke="#000000" stroke-miterlimit="10" d="M246.05,357.333c-16.364,0.298-26.822,0.553-30.455,0.302
		c-6.889-0.474-9.632-3.953-9.632-3.953h-67.299c6.105,4.208,14.614,7.751,23.92,10.696c27.523,8.709,62.036,12.192,62.035,12.192
		l8.837-6.175l39.489,3.227l21.393,14.997l3.17-0.117h26.092"/>
	<path fill="none" stroke="#000000" stroke-miterlimit="10" d="M295.84,374.765c0-1.476-1.192-2.668-2.664-2.668
		c-1.476,0-2.669,1.192-2.669,2.668c0,1.47,1.194,2.666,2.669,2.666C294.648,377.431,295.84,376.235,295.84,374.765z"/>
	<path fill="none" stroke="#000000" stroke-miterlimit="10" d="M336.206,395.824v-12.93c0,0-5.405-13.006-16.22-17.684
		c-10.811-4.673-86.505-17.094-94.103-23.815c16.367,18.85,50.797,29.807,50.797,29.807c1.214-1.408,3.014-2.3,5.021-2.3
		c2.006,0,3.808,0.892,5.022,2.305l1.459-0.005c1.215-1.408,3.014-2.3,5.024-2.3c2.004,0,3.803,0.892,5.02,2.305v8.181h19.843
		c0,0,3.359,9.905,13.733,16.437H336.206z"/>
</g>
<g>
	<polyline fill="none" stroke="#000000" stroke-miterlimit="10" points="1002.682,395.392 1105.133,393.995 1196.08,382.373 
		1241.554,372.018 1252.748,364.377 1111.947,364.377 	"/>
	<polyline fill="none" stroke="#000000" stroke-miterlimit="10" points="980.193,388.62 997.423,399.199 1017.407,384.737 
		1053.337,378.897 1053.055,376.195 	"/>
	<path fill="none" stroke="#000000" stroke-miterlimit="10" d="M1028.482,357.333c16.364,0.297,26.821,0.551,30.456,0.301
		c6.889-0.473,9.632-3.953,9.632-3.953h67.298c-24.157,16.652-85.955,22.89-85.955,22.89l-8.837-6.175l-39.489,3.226l-21.394,14.998
		l-3.169-0.117h-26.094"/>
	<circle fill="none" stroke="#000000" stroke-miterlimit="10" cx="981.359" cy="374.763" r="2.667"/>
	<path fill="none" stroke="#000000" stroke-miterlimit="10" d="M938.327,395.824v-12.93c0,0,5.405-13.007,16.221-17.685
		c10.81-4.672,86.504-17.093,94.102-23.815c-16.366,18.85-50.797,29.808-50.797,29.808c-1.213-1.408-3.014-2.3-5.021-2.3
		c-2.006,0-3.807,0.892-5.021,2.304l-1.461-0.004c-1.215-1.408-3.013-2.3-5.024-2.3c-2.003,0-3.803,0.892-5.019,2.304v8.182h-19.843
		c0,0-3.359,9.905-13.734,16.437H938.327z"/>
</g>
<g>
	<path fill="none" stroke="#000000" stroke-miterlimit="10" d="M635.844,207.877c-169.882,0.01-350.407,35.178-350.407,101.161
		l1.173,8.731c0.223,0.83,0.493,1.536,0.779,2.347c5.933,12.809,27.448,32.761,102.497,40.463
		c-41.763-12.129-83.428-31.448-83.428-51.953c0-21.872,47.413-42.382,91.784-54.271c63.348-16.974,147.753-26.328,237.668-26.328
		l-0.13-0.006c89.915,0,174.319,9.346,237.666,26.319c44.372,11.889,91.784,32.386,91.784,54.258
		c0,20.504-41.664,39.797-83.428,51.924c75.051-7.7,96.565-27.708,102.497-40.517c0.286-0.811,0.556-1.627,0.778-2.457l1.172-8.512
		C986.248,243.055,805.725,207.887,635.844,207.877z"/>
	<path fill="none" stroke="#000000" stroke-miterlimit="10" d="M635.779,207.877c0.022,0,0.043,0,0.065,0c0.022,0,0.042,0,0.065,0
		H635.779z"/>
</g>
<g>
	<path fill="none" stroke="#000000" stroke-miterlimit="10" d="M635.896,198.669c16.333,0,32.64,0.23,48.78,0.676l8.461-74.773
		L640.984,22.264l-52.213,102.308l8.432,74.527C610.039,198.818,622.958,198.67,635.896,198.669z"/>
	<path fill="none" stroke="#000000" stroke-miterlimit="10" d="M677.509,286.9l3.746-48.564c-14.931-0.54-29.755-0.821-45.755-0.823
		v0.007c-11,0-23.687,0.174-35.488,0.506l3.958,48.874"/>
	<polyline fill="none" stroke="#000000" stroke-miterlimit="10" points="624.447,494.361 640.925,619.448 658.051,489.967 	"/>
	<line fill="none" stroke="#000000" stroke-miterlimit="10" x1="616.598" y1="434.778" x2="620.522" y2="464.565"/>
	<line fill="none" stroke="#000000" stroke-miterlimit="10" x1="640.5" y1="21.893" x2="640.5" y2="198.893"/>
	<line fill="none" stroke="#000000" stroke-miterlimit="10" x1="640.5" y1="237.893" x2="640.5" y2="401.893"/>
	<line fill="none" stroke="#000000" stroke-miterlimit="10" x1="640.5" y1="498.893" x2="640.5" y2="599.893"/>
	<line fill="none" stroke="#000000" stroke-miterlimit="10" x1="640.5" y1="433.893" x2="640.5" y2="490.893"/>
</g>
</svg>
