<?xml version="1.0" encoding="utf-8"?>
<!-- Generator: Adobe Illustrator 16.0.0, SVG Export Plug-In . SVG Version: 6.00 Build 0)  -->
<!DOCTYPE svg PUBLIC "-//W3C//DTD SVG 1.1//EN" "http://www.w3.org/Graphics/SVG/1.1/DTD/svg11.dtd">
<svg version="1.1" id="Layer_1" xmlns="http://www.w3.org/2000/svg" xmlns:xlink="http://www.w3.org/1999/xlink" x="0px" y="0px"
	 width="152px" height="158.667px" viewBox="0 0 152 158.667" enable-background="new 0 0 152 158.667" xml:space="preserve">
<g>
	
		<polygon fill-rule="evenodd" clip-rule="evenodd" fill="none" stroke="#000000" stroke-width="0.5" stroke-miterlimit="10" points="
		112.04,50.554 112.04,44.123 104.93,44.123 83.266,72.787 	"/>
	
		<polygon fill-rule="evenodd" clip-rule="evenodd" fill="none" stroke="#000000" stroke-width="0.5" stroke-miterlimit="10" points="
		102.124,44.123 91.555,59.029 70.686,58.941 41.162,44.123 68.598,44.123 71.119,49.884 87.02,49.884 90.846,44.123 	"/>
	
		<polygon fill-rule="evenodd" clip-rule="evenodd" fill="none" stroke="#000000" stroke-width="0.5" stroke-miterlimit="10" points="
		112.04,53.78 97.112,64.345 97.2,85.214 112.04,114.737 112.04,87.3 106.258,84.78 106.258,68.878 112.04,65.052 	"/>
	
		<polygon fill-rule="evenodd" clip-rule="evenodd" fill="none" stroke="#000000" stroke-width="0.5" stroke-miterlimit="10" points="
		118.051,39.375 118.051,120.053 114.629,113.802 114.629,41.987 112.018,42.037 40.201,42.037 33.948,38.615 118.051,38.615 	"/>
	
		<polygon fill-rule="evenodd" clip-rule="evenodd" fill="none" stroke="#000000" stroke-width="0.5" stroke-miterlimit="10" points="
		112.018,67.589 112.018,84.248 108.069,70.414 	"/>
	
		<polygon fill-rule="evenodd" clip-rule="evenodd" fill="none" stroke="#000000" stroke-width="0.5" stroke-miterlimit="10" points="
		88.299,44.123 71.641,44.123 80.762,46.726 85.475,48.073 	"/>
</g>
</svg>
