<?xml version="1.0" encoding="utf-8"?>
<!-- Generator: Adobe Illustrator 16.0.0, SVG Export Plug-In . SVG Version: 6.00 Build 0)  -->
<!DOCTYPE svg PUBLIC "-//W3C//DTD SVG 1.1//EN" "http://www.w3.org/Graphics/SVG/1.1/DTD/svg11.dtd">
<svg version="1.1" id="Layer_1" xmlns="http://www.w3.org/2000/svg" xmlns:xlink="http://www.w3.org/1999/xlink" x="0px" y="0px"
	 width="152px" height="158.667px" viewBox="0 0 152 158.667" enable-background="new 0 0 152 158.667" xml:space="preserve">
<polyline fill="none" stroke="#1D1D1B" stroke-width="0.5" stroke-miterlimit="10" points="95.493,55.783 86.887,61.066 
	76.907,53.844 58.963,50.928 59.104,49.578 "/>
<path fill="none" stroke="#1D1D1B" stroke-width="0.5" stroke-miterlimit="10" d="M117.934,71.24h-3.43c0,0-3.576-4.67-7.59-4.67
	l0,0l-5.912,5.911l-5.801-5.803v-4.633c0,0,2.152-2.189,2.152-3.649c0-1.459,0-6.203,0-6.203h9.123c0,0,4.598,9.341,11.457,9.341
	V71.24z"/>
<circle fill="none" stroke="#1D1D1B" stroke-width="0.5" stroke-miterlimit="10" cx="114.247" cy="75.613" r="1.24"/>
<path fill="none" stroke="#1D1D1B" stroke-width="0.5" stroke-miterlimit="10" d="M97.075,55.725l-1.582,0.059l-10.686-7.49
	l-19.721-1.611l-4.414,3.085c0,0-30.863-3.116-42.928-11.432h33.61c0,0,1.37,1.737,4.811,1.974c1.815,0.125,7.038-0.002,15.21-0.15"
	/>
<polyline fill="none" stroke="#1D1D1B" stroke-width="0.5" stroke-miterlimit="10" points="100.674,76.176 96.786,87.671 
	104.321,100.753 105.67,100.612 "/>
<path fill="none" stroke="#1D1D1B" stroke-width="0.5" stroke-miterlimit="10" d="M107.19,88.656l1.377,5.974l-3.086,4.413
	c0,0,4.254,30.864,12.57,42.929v-33.61c0,0-2.754-1.37-2.99-4.811c-0.125-1.815,0.002-6.723,0.15-14.895"/>
<circle fill="none" stroke="#1D1D1B" stroke-width="0.5" stroke-miterlimit="10" cx="94.911" cy="48.863" r="1.332"/>
<path fill="none" stroke="#1D1D1B" stroke-width="0.5" stroke-miterlimit="10" d="M116.401,59.382v-6.458c0,0-2.699-6.495-8.1-8.831
	c-5.4-2.334-43.203-8.537-46.998-11.895c8.174,9.413,25.369,14.886,25.369,14.886c0.607-0.702,1.506-1.148,2.508-1.148
	s1.902,0.446,2.508,1.15l0.73-0.002c0.605-0.702,1.504-1.148,2.508-1.148c1.002,0,1.9,0.446,2.508,1.15v4.086h9.91
	c0,0,1.678,4.948,6.859,8.21H116.401z"/>
<circle fill="none" stroke="#1D1D1B" stroke-width="0.5" stroke-miterlimit="10" cx="101.085" cy="64.527" r="3.94"/>
<path fill="none" stroke="#1D1D1B" stroke-width="0.5" stroke-miterlimit="10" d="M100.674,75.029v7.646l4.488,5.981h12.771V72.801
	h-4.566c0,0-2.387-4.334-6.256-4.334L100.674,75.029z"/>
<polygon fill="none" stroke="#1D1D1B" stroke-width="0.5" stroke-miterlimit="10" points="102.401,75.612 102.401,81.967 
	107.651,81.859 107.651,70.384 "/>
</svg>
