<?xml version="1.0" encoding="utf-8"?>
<!-- Generator: Adobe Illustrator 16.0.0, SVG Export Plug-In . SVG Version: 6.00 Build 0)  -->
<!DOCTYPE svg PUBLIC "-//W3C//DTD SVG 1.1//EN" "http://www.w3.org/Graphics/SVG/1.1/DTD/svg11.dtd">
<svg version="1.1" id="Layer_1" xmlns="http://www.w3.org/2000/svg" xmlns:xlink="http://www.w3.org/1999/xlink" x="0px" y="0px"
	 width="152px" height="158.667px" viewBox="0 0 152 158.667" enable-background="new 0 0 152 158.667" xml:space="preserve">
<g>
	<path fill="none" stroke="#1D1D1B" stroke-width="0.5" stroke-miterlimit="10" d="M117.998,83.482
		c0.27-0.594,0.521-1.209,0.688-1.841c0.248-0.938,0.52-1.891,0.584-2.851c0.066-0.982-0.109-1.981-0.17-2.973
		c-0.07-1.153-0.438-2.219-0.836-3.296c-0.697-1.892-1.826-3.49-3.172-4.958c-0.514-0.562-1.133-1.038-1.354-1.817l2.189-1.638
		c0.014,0.027,0.025,0.051,0.039,0.078c0.023-0.052,0.039-0.103,0.062-0.153l2.127-1.592V50.736l-4.131,2.835
		c-0.881-0.918-1.92-1.685-3.121-2.302c0.705-0.183,1.357-0.361,2.012-0.523c0.879-0.214,1.658-0.676,2.186-1.355
		c0.963-1.242,1.471-2.706,1.623-4.284c0.049-0.522,0.141-1.041,0.248-1.554c0.186-0.885,0.379-1.769,0.604-2.643
		c0.168-0.651,0.393-1.287,0.58-1.933c0.051-0.172,0.066-0.356,0.111-0.614c-0.361,0.135-0.613,0.249-0.879,0.324
		c-0.613,0.178-1.23,0.344-1.85,0.503c-0.502,0.128-1.004,0.267-1.514,0.354c-0.625,0.106-1.27,0.111-1.885,0.251
		c-1.062,0.243-2.143,0.475-3.154,0.866c-0.707,0.274-1.408,0.716-1.945,1.248c-0.742,0.733-1.199,1.677-1.309,2.758
		c-0.039,0.379-0.189,0.748-0.307,1.186c-0.889-1.88-2.332-3.45-4.035-4.523l1.836-2.676H91.519l-2.281,3.048
		c-0.688-0.663-1.418-1.279-2.246-1.771c-0.891-0.527-1.807-1.032-2.756-1.446c-0.719-0.312-1.5-0.493-2.268-0.681
		c-0.693-0.17-1.402-0.369-2.107-0.38c-1.08-0.016-2.164,0.103-3.244,0.196c-0.467,0.041-0.957,0.087-1.385,0.259
		c-0.917,0.368-1.801,0.816-2.689,1.244c-0.092,0.045-0.141,0.184-0.253,0.344c0.592-0.138,1.06-0.338,1.53-0.34
		c1.697-0.014,3.411-0.198,5.068,0.398c0.881,0.318,1.818,0.507,2.66,0.904c1.051,0.496,2.068,1.087,3.023,1.748
		c0.783,0.543,1.506,1.2,2.164,1.891c0.137,0.144,0.264,0.297,0.398,0.445l-0.895,1.194h-3.945
		c-0.355-0.327-0.723-0.643-1.104-0.946c-1.062-0.842-2.248-1.5-3.6-1.788c-0.984-0.208-1.965-0.549-2.953-0.575
		c-1.097-0.027-2.213,0.171-3.296,0.394c-0.961,0.197-1.912,0.499-2.821,0.866c-0.859,0.349-1.67,0.78-2.432,1.293l-2.766-6.396
		H52.452c-0.629-0.243-1.284-0.411-1.948-0.473c-1.132-0.106-2.28-0.168-3.442-0.089c-1.095,0.074-2.166,0.253-3.188,0.562H32.716
		l6.174,3.143c-0.163,0.197-0.319,0.404-0.469,0.621c-0.781,1.137-1.276,2.366-1.589,3.66c-0.222,0.917-0.201,1.898-0.245,2.853
		c-0.048,1.071,0.336,2.042,0.814,2.974c0.621,1.213,1.501,2.212,2.669,2.907c0.561,0.333,1.191,0.624,1.824,0.737
		c0.821,0.147,1.664,0.053,2.427-0.401c0.867-0.515,1.501-1.251,1.689-2.21c0.141-0.723,0.144-1.507-0.176-2.248
		c-0.461-1.069-1.571-1.913-2.686-1.99c-0.893-0.061-1.769-0.036-2.514,0.583c-0.042,0.035-0.335-0.113-0.387-0.23
		c-0.129-0.293-0.231-0.613-0.264-0.93c-0.074-0.749-0.253-1.533-0.104-2.244c0.158-0.761,0.583-1.493,1.002-2.168
		c0.145-0.234,0.312-0.448,0.484-0.655l9.097,4.628c-0.958,1.099-1.094,2.484-1.139,3.891c-0.012,0.344,0.11,0.694,0.188,1.037
		c0.144,0.637,0.298,1.271,0.474,2.012c0.471-0.622,0.817-1.14,1.226-1.604c0.753-0.852,1.643-1.562,2.843-1.486
		c0.969,0.062,1.824,0.532,2.584,1.165c1.972,1.644,3.191,3.81,4.292,6.066c0.773,1.582,1.718,3.066,2.926,4.344
		c0.941,0.996,1.949,1.947,3.028,2.791c0.87,0.68,1.862,1.223,2.853,1.726c0.877,0.447,1.818,0.777,2.746,1.114
		c0.709,0.257,1.439,0.463,2.168,0.659c0.835,0.224,1.676,0.424,2.519,0.612c0.495,0.11,0.999,0.173,1.499,0.263
		c0.705,0.126,1.408,0.262,2.111,0.385c0.488,0.087,0.98,0.159,1.518,0.245c-1.078,1.292-1.053,2.634-0.102,3.615
		c0.916,0.949,2.268,1.143,3.672,0.022c0.096,0.395,0.211,0.742,0.264,1.099c0.098,0.666,0.152,1.338,0.238,2.006
		c0.066,0.489,0.125,0.982,0.238,1.462c0.178,0.774,0.408,1.539,0.6,2.31c0.166,0.674,0.242,1.377,0.473,2.027
		c0.365,1.031,0.83,2.025,1.246,3.038c0.803,1.969,1.992,3.674,3.453,5.212c1.182,1.239,2.48,2.337,3.93,3.229
		c1.426,0.875,2.936,1.615,4.404,2.429c1.596,0.886,2.955,2.053,3.939,3.601c0.404,0.641,0.738,1.386,0.613,2.169
		c-0.178,1.127-0.824,2-1.727,2.679c-0.416,0.314-0.842,0.617-1.262,0.928c0.004,0.052,0.01,0.104,0.016,0.158
		c0.994,0.199,1.982,0.449,2.986,0.58c0.475,0.062,0.975-0.128,1.467-0.166c1.42-0.102,2.496-0.757,3.236-1.961
		c0.025-0.041,0.039-0.083,0.062-0.126l4.686,9.209c-0.586,0.724-1.283,1.355-2.104,1.821c-0.693,0.397-1.426,0.715-2.262,0.767
		c-0.928,0.057-1.795-0.142-2.656-0.447c-0.297-0.104-0.287-0.208-0.135-0.459c0.697-1.133,0.807-2.373,0.223-3.542
		c-0.811-1.623-2.523-2.25-4.385-1.597c-1.215,0.426-1.91,1.387-2.156,2.579c-0.199,0.953,0.006,1.911,0.516,2.806
		c0.715,1.252,1.668,2.25,2.914,2.943c0.99,0.552,2.045,0.911,3.213,0.935c1.635,0.033,3.195-0.248,4.695-0.873
		c0.973-0.407,1.869-0.925,2.646-1.663c0.27-0.253,0.506-0.53,0.744-0.807l2.27,4.46v-8.833c0.148-0.565,0.273-1.138,0.369-1.715
		c0.164-0.999,0.064-2.04,0.064-3.064c0-1.003-0.098-1.984-0.434-2.955v-14.04l-5.268-2.28c0.443-0.958,0.801-1.948,0.943-3.021
		c0.137-1.011,0.318-2.02,0.395-3.035c0.037-0.5-0.1-1.019-0.197-1.521c-0.139-0.729-0.229-1.482-0.492-2.167
		c-0.318-0.817-0.793-1.574-1.203-2.355c-0.357-0.674-0.818-1.26-1.33-1.8v-5.938c0.408,0.331,0.805,0.675,1.184,1.039
		c0.791,0.765,1.514,1.617,2.156,2.51c0.627,0.868,1.158,1.814,1.643,2.771c0.371,0.733,0.645,1.524,0.883,2.313
		c0.256,0.842,0.557,1.705,0.598,2.569c0.072,1.569,0.217,3.165-0.303,4.731C117.556,84.156,117.833,83.845,117.998,83.482z
		 M106.458,56.325c0.824,0.042,1.707,0.012,2.449,0.308c0.133,0.054,0.262,0.12,0.395,0.181l-3.229,2.216
		c-0.25-0.039-0.502-0.079-0.76-0.091c-0.18-0.007-0.357-0.042-0.535-0.044c-0.732-0.01-1.465-0.02-2.199-0.011
		c-0.449,0.004-0.896,0.042-1.346,0.065c-0.018-0.055-0.037-0.111-0.057-0.166c0.438-0.363,0.867-0.733,1.311-1.089
		C103.646,56.77,104.96,56.249,106.458,56.325z M99.468,81.649c-0.1-0.33-0.156-0.675-0.283-0.993
		c-0.35-0.879-0.074-1.749,0.205-2.527c0.33-0.913,0.969-1.65,1.713-2.293v2.214v5.913C100.337,83.362,99.763,82.631,99.468,81.649z
		 M98.736,45.349c0.764,1.014,1.43,2.117,1.586,3.363c0.184,1.492,0.191,3.023-0.609,4.414c-0.51,0.88-1.074,1.707-1.928,2.42
		c-0.012-0.205-0.037-0.325-0.025-0.439c0.061-0.53,0.189-1.058,0.188-1.586c-0.006-1.394-0.184-2.763-0.592-4.111
		c-0.146-0.491-0.338-0.951-0.553-1.398l1.875-2.734C98.697,45.303,98.718,45.325,98.736,45.349z M80.744,55.705
		c-0.262,0.28-0.537,0.55-0.838,0.803c-1.404,1.179-2.946,1.29-4.611,0.896c-0.266-0.063-0.531-0.159-0.767-0.294
		c-0.663-0.378-1.251-0.841-1.733-1.405h3.115H80.744z M68.824,45.312c0.694-0.252,1.416-0.531,2.139-0.573
		c0.963-0.055,1.916-0.216,2.911-0.077c1.068,0.148,2.106,0.305,3.137,0.654c0.331,0.113,0.653,0.245,0.96,0.392H67.829
		C68.157,45.565,68.49,45.433,68.824,45.312z M88.781,61.825c-0.904,1.215-1.959,2.247-3.195,3.063
		c-1.205,0.796-2.502,1.447-3.918,1.856c-1.098,0.317-2.168,0.671-3.332,0.609c-0.662-0.036-1.347,0.075-1.986-0.048
		c-1.01-0.196-2.004-0.496-2.979-0.826c-0.801-0.27-1.603-0.583-2.335-0.998c-0.929-0.525-1.773-1.194-2.68-1.763
		c-1.186-0.747-2.041-1.833-2.844-2.922c-0.764-1.037-1.381-2.202-1.926-3.374c-0.365-0.787-0.633-1.674-0.704-2.536
		c-0.027-0.337-0.042-0.671-0.047-1.004l3.583,1.822h2.132c0.103,0.648,0.283,1.284,0.562,1.906c0.576,1.286,1.497,2.273,2.647,3.03
		c0.697,0.461,1.502,0.756,2.249,1.143c0.774,0.401,1.607,0.585,2.46,0.577c0.971-0.009,1.941-0.101,2.906-0.208
		c0.971-0.107,1.854-0.506,2.66-1.036c1.365-0.894,2.49-2.013,3.279-3.469c0.338-0.627,0.59-1.275,0.768-1.944h5.014
		c-0.057,0.839-0.191,1.667-0.459,2.469C90.201,59.47,89.617,60.697,88.781,61.825z M101.132,93.649
		c-0.787-0.285-1.656-0.372-2.4-0.731c-1.008-0.489-1.988-1.078-2.875-1.764c-1.574-1.214-2.922-2.633-4.004-4.351
		c-1.279-2.028-2.076-4.211-2.451-6.526c-0.223-1.386-0.199-2.856,0.195-4.243c0.277-0.975,0.664-1.924,1.066-2.858
		c0.535-1.243,1.234-2.405,2.162-3.388c0.758-0.802,1.562-1.597,2.475-2.203c0.93-0.616,1.992-1.055,3.039-1.459
		c0.707-0.273,1.482-0.399,2.24-0.505c0.172-0.023,0.348-0.025,0.523-0.034v5.008c-0.201,0.051-0.404,0.104-0.607,0.173
		c-1.012,0.345-1.969,0.764-2.738,1.496c-0.729,0.691-1.428,1.422-2.049,2.209c-0.824,1.048-1.219,2.334-1.348,3.621
		c-0.156,1.588-0.098,3.186,0.566,4.726c0.408,0.949,0.861,1.846,1.512,2.642c1.09,1.33,2.41,2.258,4.15,2.594
		c0.281,0.055,0.561,0.095,0.838,0.123l2.863,5.631C103.251,93.889,102.177,94.029,101.132,93.649z M111.353,79.648
		c0.166,0.569,0.35,1.14,0.453,1.722c0.154,0.865,0.271,1.739,0.35,2.614c0.027,0.306-0.146,0.625-0.148,0.939
		c-0.006,0.967-0.24,1.875-0.539,2.779l-0.367-0.159v-8.574C111.193,79.19,111.285,79.411,111.353,79.648z"/>
</g>
</svg>
