<?xml version="1.0" encoding="utf-8"?>
<!-- Generator: Adobe Illustrator 16.0.0, SVG Export Plug-In . SVG Version: 6.00 Build 0)  -->
<!DOCTYPE svg PUBLIC "-//W3C//DTD SVG 1.1//EN" "http://www.w3.org/Graphics/SVG/1.1/DTD/svg11.dtd">
<svg version="1.1" id="Layer_1" xmlns="http://www.w3.org/2000/svg" xmlns:xlink="http://www.w3.org/1999/xlink" x="0px" y="0px"
	 width="137.312px" height="137.812px" viewBox="419.788 337.125 137.312 137.812"
	 enable-background="new 419.788 337.125 137.312 137.812" xml:space="preserve">
<path fill="none" stroke="#000000" stroke-width="0.5" stroke-miterlimit="10" d="M472.977,390.218
	c-6.548,2.945-10.18-4.052-13.919-8.662c-4.795-5.913-7.153-11.715-10.035-18.08c-0.431,9.455-2.395,18.945-1.463,28.567
	c1.055,10.906,8.078,15.075,16.372,20.072c8.334,5.021,17.15,15.646,21.299,24.51c2.094,4.473,2.881,9.533,5.094,13.956
	c1.399,2.799,3.573,5.49,4.766,8.155c2.65-8.204,4.932-17.334,8.737-24.972c3.529-7.085,10.422-11.994,14.434-19.392
	c5.269-9.715,9.604-20.941,10.642-32.008c0.544-5.792,1.24-12.873-0.092-18.583c-0.988-4.232-3.015-8.542-4.094-12.208
	c-1.376,2.64-1.268,6.676-1.717,9.697c-0.585,3.938-2.255,7.677-4.06,11.22c-2.541,4.994-6.166,11.673-11.471,14.095"/>
<path fill="none" stroke="#000000" stroke-width="0.5" stroke-miterlimit="10" d="M500.661,397.594
	c5.351-2.656,10.317-5.407,15.999-7.489"/>
<path fill="none" stroke="#000000" stroke-width="0.5" stroke-miterlimit="10" d="M481.259,400.656
	c-5.652,2.386-13.819-1.029-19.743-1.021"/>
<path fill="none" stroke="#000000" stroke-width="0.5" stroke-miterlimit="10" d="M487.386,402.019
	c1.92,3.48,4.644,7.803,6.05,11.225c0.309-4.045,1.43-8.568,1.099-12.587"/>
<path fill="none" stroke="#000000" stroke-width="0.5" stroke-miterlimit="10" d="M483.642,422.442c3.611,1.396,15.02,1.6,19.062,0"
	/>
</svg>
