<?xml version="1.0" encoding="utf-8"?>
<!-- Generator: Adobe Illustrator 16.0.0, SVG Export Plug-In . SVG Version: 6.00 Build 0)  -->
<!DOCTYPE svg PUBLIC "-//W3C//DTD SVG 1.1//EN" "http://www.w3.org/Graphics/SVG/1.1/DTD/svg11.dtd">
<svg version="1.1" id="Layer_1" xmlns="http://www.w3.org/2000/svg" xmlns:xlink="http://www.w3.org/1999/xlink" x="0px" y="0px"
	 width="137.312px" height="137.812px" viewBox="419.788 337.125 137.312 137.812"
	 enable-background="new 419.788 337.125 137.312 137.812" xml:space="preserve">
<g>
	<path fill="none" stroke="#000000" stroke-width="0.5" stroke-miterlimit="10" d="M512.1,420.373
		c3.82,4.579,6.447,10.729,9.837,15.727c2.797,4.121,6.734,6.732,9.794,10.428c-0.871,1.183-1.841,2.036-2.937,3.011
		c-6.014-3.594-10.397-8.21-15.189-13.333c-4.042-4.316-8.701-7.903-11.789-12.94"/>
	<path fill="none" stroke="#000000" stroke-width="0.5" stroke-miterlimit="10" d="M527.417,451.01
		c-2.755,4.4,4.805,9.58,8.472,6.111c4.861-4.601,0.874-8.83-4.29-8.896"/>
	<path fill="none" stroke="#000000" stroke-width="0.5" stroke-miterlimit="10" d="M478.142,438.584
		c-0.321,2.867,2.718,6.039,5.34,7.203c3.876-3.427,0.688-7.441-3.733-8.918"/>
	<path fill="none" stroke="#000000" stroke-width="0.5" stroke-miterlimit="10" d="M516.278,405.051
		c-2.597,3.521,6.772,10.864,8.487,3.318c1.168-5.137-9.255-9.561-8.274-5.031"/>
	<path fill="none" stroke="#000000" stroke-width="0.5" stroke-miterlimit="10" d="M436.362,351.775
		c6.613,4.409,10.902,8.433,15.394,14.749c5.175,7.287,10.154,13.213,16.42,19.909c6.744,7.205,12.702,14.075,19.855,20.833
		c5.386,5.089,11.398,9.881,15.321,15.785"/>
	<path fill="none" stroke="#000000" stroke-width="0.5" stroke-miterlimit="10" d="M444.933,374.202
		c-3.079-8.696-6.904-17.703-11.977-25.348c9.406,6.408,19.566,12.46,29.257,18.921"/>
	<path fill="none" stroke="#000000" stroke-width="0.5" stroke-miterlimit="10" d="M499.778,429.799
		c-15.575-10.44-26.88-25.967-39.795-39.309c-3.157-3.259-5.83-6.996-8.856-10.3c-1.335-1.46-5.209-4.668-5.232-5.346"/>
	<path fill="none" stroke="#000000" stroke-width="0.5" stroke-miterlimit="10" d="M506.957,415.551
		c-6.945-3.742-10.448-11.829-15.31-17.75c-9.049-11.02-19.377-20.715-30.669-29.396"/>
	<path fill="none" stroke="#000000" stroke-width="0.5" stroke-miterlimit="10" d="M484.676,439.227
		c3.13-2.62,5.428-6.519,8.946-9.24c4.012-3.104,8.461-5.545,12.345-8.943c4.492-3.935,7.697-9.688,12.56-13.097"/>
</g>
</svg>
