<?xml version="1.0" encoding="utf-8"?>
<!-- Generator: Adobe Illustrator 16.0.0, SVG Export Plug-In . SVG Version: 6.00 Build 0)  -->
<!DOCTYPE svg PUBLIC "-//W3C//DTD SVG 1.1//EN" "http://www.w3.org/Graphics/SVG/1.1/DTD/svg11.dtd">
<svg version="1.1" id="Layer_1" xmlns="http://www.w3.org/2000/svg" xmlns:xlink="http://www.w3.org/1999/xlink" x="0px" y="0px"
	 width="137.312px" height="137.812px" viewBox="419.788 337.125 137.312 137.812"
	 enable-background="new 419.788 337.125 137.312 137.812" xml:space="preserve">
<path fill="none" stroke="#000000" stroke-width="0.5" stroke-miterlimit="10" d="M503.476,388.628
	c0,10.127,0.749,20.179,0.75,30.251c0.001,7.26-0.97,15.79,0.75,22.75"/>
<path fill="none" stroke="#000000" stroke-width="0.5" stroke-miterlimit="10" d="M472.726,387.628
	c0,13.464-0.778,27.188,0.493,40.581c0.473,4.979,1.257,9.669,1.257,14.671"/>
<path fill="none" stroke="#000000" stroke-width="0.5" stroke-miterlimit="10" d="M501.976,386.628
	c-5.821-0.033-11.285-1.537-17-1.75c-3.356-0.125-8.968-0.746-11,2"/>
<path fill="none" stroke="#000000" stroke-width="0.5" stroke-miterlimit="10" d="M505.226,440.38
	c6.482,2.163,14.087-1.28,20.611,1.188c2.414,0.914,5.743,4.124,2.643,6.499c-2.562,1.962-7.411-1.131-9.534,1.813
	c2.229,1.65,10.102,0.76,5.779,6.236c-3.016,3.822-9.202-0.4-11.756-2.778c-2.428-2.261-6.582-6.482-10.493-5.464
	c-5.725,1.491,1.709,5.542,2.73,7.269c-3.761,1.718-7.691,2.374-11.028-0.257c-2.82-2.224-3.304-3.187-3.49-6.718
	c-4.395-0.375-6.552,2.621-10.149,4.41c-3.765,1.873-8.512,1.552-12.557,1.552c-5.217,0-10.768,0.312-15.7-1.688
	c-4.882-1.98-3.309-6.538,1.444-7.511c3.846-0.787,8.179,0.254,12.005,0.449c2.011,0.103,5.347-0.262,3.061-2.818
	c-2.591-2.898-9.955-1.932-13.378-1.932c-3.981,0-7.941,0.419-11.9,0.218c-0.768-2.991,4.424-5.432,6.786-5.984
	c2.38-0.558,5.157-0.319,7.559,0.018c4.053,0.568,7.969,0.749,12.118,0.749"/>
<path fill="none" stroke="#000000" stroke-width="0.5" stroke-miterlimit="10" d="M497.226,401.879c0.908,2.162-0.759,4.898-1,7.251
	c-0.252,2.465-0.136,5.063,0.688,7.244c0.921,2.441,4.216,13.817-1.649,12.468c-0.408-3.515-1.06-7.046-1.288-10.712"/>
<path fill="none" stroke="#000000" stroke-width="0.5" stroke-miterlimit="10" d="M476.726,395.878
	c0,3.247-1.517,25.833,3.513,24.514c4.241-1.11,0.134-6.742-0.582-8.751c-0.681-1.911-1.941-10.603,1.495-10.04
	c3.313,0.542-0.012,5.544,3.081,6.715c2.19,0.829,2.16-6.027,4.243-7.688"/>
<path fill="none" stroke="#000000" stroke-width="0.5" stroke-miterlimit="10" d="M481.226,430.38
	c0.644,1.389-0.057,3.572,0.543,5.211c3.117,0.028,4.11-7.126,4.457-9.461"/>
<path fill="none" stroke="#000000" stroke-width="0.5" stroke-miterlimit="10" d="M487.976,382.628c0.46-1.208,0.25-2.677,0.25-4"/>
<path fill="none" stroke="#000000" stroke-width="0.5" stroke-miterlimit="10" d="M489.976,376.128
	c-2.961,1.331-6.969-0.579-7.694-3.75c-1.095-4.785,2.372-6.478,4.937-9.445c2.274-2.631,1.411-5.129-0.18-8.116
	c-1.677-3.147-5.627-3.803-7.312-6.938"/>
<path fill="none" stroke="#000000" stroke-width="0.5" stroke-miterlimit="10" d="M490.476,375.378
	c6.209,0.073,3.333-13.293,2.256-16.256c-1.155-3.176-10.347-10.192-4.756-13.494"/>
<path fill="none" stroke="#000000" stroke-width="0.5" stroke-miterlimit="10" d="M488.368,364.834c-0.43,1.979-2.848,3.78-2.5,6
	c0.357,2.284,3.267,3.071,5.25,1.75"/>
</svg>
