<?xml version="1.0" encoding="utf-8"?>
<!-- Generator: Adobe Illustrator 16.0.0, SVG Export Plug-In . SVG Version: 6.00 Build 0)  -->
<!DOCTYPE svg PUBLIC "-//W3C//DTD SVG 1.1//EN" "http://www.w3.org/Graphics/SVG/1.1/DTD/svg11.dtd">
<svg version="1.1" id="Layer_1" xmlns="http://www.w3.org/2000/svg" xmlns:xlink="http://www.w3.org/1999/xlink" x="0px" y="0px"
	 width="137.312px" height="137.812px" viewBox="419.788 337.125 137.312 137.812"
	 enable-background="new 419.788 337.125 137.312 137.812" xml:space="preserve">
<path fill="none" stroke="#000000" stroke-width="0.5" stroke-miterlimit="10" d="M436.891,455.495
	c0.042-2.479,1.153-5.28,2.043-7.462c6.646,0.129,13.599,0.006,20.45-0.301c13.489-0.605,26.575,2.511,39.992,2.513
	c6.451,0.001,12.863-0.515,19.328-0.25c5.353,0.219,10.412,0.756,15.643-0.224c0.877,3.749,3.095,6.055,5.294,8.974"/>
<path fill="none" stroke="#000000" stroke-width="0.5" stroke-miterlimit="10" d="M526.391,449.995
	c0.273-3.467-2.49-5.638-3.037-8.713c-16.058-0.814-32.139,0.713-48.157,0.713c-5.656,0-11.258,0.212-16.812-0.932
	c-3.065-0.631-5.565-1.188-8.707-1.031c-0.434,2.587-1.417,5.499-2.287,7.963"/>
<path fill="none" stroke="#000000" stroke-width="0.5" stroke-miterlimit="10" d="M456.391,440.495
	c0.653-1.688,0.622-4.042,2.068-5.756c1.751-2.073,3.064-1.494,6-1.494c7.306,0,15.298-0.863,22.519,0.306
	c5.286,0.855,9.415,1.737,14.602,0.695c4.525-0.909,10.569-1.46,15.023-0.475c0.027,2.165,1.365,5.34,3.287,6.474"/>
<path fill="none" stroke="#000000" stroke-width="0.5" stroke-miterlimit="10" d="M516.641,432.995
	c0-13.614-0.502-27.414-3.063-40.797c-1.396-7.296-3.618-14.207-5.43-21.382c-1.495-5.919-4.709-10.348-11.021-11.514
	c-6.615-1.222-14.961-1.475-21.047,1.687c-5.431,2.822-5.599,8.604-7.378,14.015c-1.94,5.9-5.421,11.342-6.615,17.437
	c-2.542,12.971-1.945,27.259-1.945,40.554"/>
<path fill="none" stroke="#000000" stroke-width="0.5" stroke-miterlimit="10" d="M496.641,357.997
	c-0.027-2.51,0.912-4.969,0.969-7.461c-6.359,0.293-12.954,0.664-19.43,1c-0.045,2.312,1.855,4.929,2.211,6.961"/>
<path fill="none" stroke="#000000" stroke-width="0.5" stroke-miterlimit="10" d="M506.391,364.497
	c2.493,0.217,5.669-1.272,7.707-2.234c0.782,5.407,3.932,10.188,5.425,15.421c0.681,2.387,0.454,5.071,1.09,7.27
	c-2.185,0.14-6.533-0.8-7.972,1.293"/>
<path fill="none" stroke="#000000" stroke-width="0.5" stroke-miterlimit="10" d="M470.641,366.997
	c-2.15,0.826-5.042-2.08-7.194-2.731c-1.854,5.586-4.736,10.848-6.874,16.279c-0.964,2.448-1.718,3.166,0.568,4.695
	c1.623,1.086,3.616,1.804,5.25,2.507"/>
<path fill="none" stroke="#000000" stroke-width="0.5" stroke-miterlimit="10" d="M497.141,358.497
	c0.759-1.678,0.026-3.845,1.188-5.763c1.504-2.484,2.665-1.532,5.006-0.169c2.625,1.528,6.474,3.128,8.518,5.37
	c-1.496,1.532-3.421,3.279-4.462,5.062"/>
<path fill="none" stroke="#000000" stroke-width="0.5" stroke-miterlimit="10" d="M478.891,359.247
	c1.006-1.691-1.622-5.231-2.302-6.911c-3.939,3.565-7.463,7.812-11.427,11.106c2.403,0.732,4.923,2.563,6.479,4.305"/>
<path fill="none" stroke="#000000" stroke-width="0.5" stroke-miterlimit="10" d="M461.641,388.747
	c-2.56,1.148-7.155,0.143-10.155,0.288c1.049,4.146,0.905,8.477,0.905,12.773c0,3.286-0.828,7.853,0.271,10.894
	c2.802,0.173,5.662,0.044,8.479,0.044"/>
<path fill="none" stroke="#000000" stroke-width="0.5" stroke-miterlimit="10" d="M512.391,387.497
	c2.33,0.879,5.678,0.173,8.211,0.276c-0.5,6.294,1.484,12.171,1.264,18.434c-1.639,0.153-3.306-0.26-4.975-0.212"/>
<path fill="none" stroke="#000000" stroke-width="0.5" stroke-miterlimit="10" d="M460.391,413.745
	c-0.682,0.759-4.77,0.196-6.462,0.289c-0.339,1.884,0.735,3.17,1.156,4.898c0.368,1.51,0.259,2.981,0.345,4.524
	c1.531-0.042,3.299,0.171,4.711,0.538"/>
<path fill="none" stroke="#000000" stroke-width="0.5" stroke-miterlimit="10" d="M516.641,408.495
	c1.633,0.507,3.5,0.202,5.212,0.288c-0.147,4.971,0.538,10.148,0.538,15.212c0,1.104,0.487,3.838-0.307,4.699
	c-0.891,0.966-4.966,0.536-6.443,0.801"/>
<path fill="none" stroke="#000000" stroke-width="0.5" stroke-miterlimit="10" d="M459.641,424.995
	c-2.112,0.758-5.154,0.2-7.485,0.275c1.933,4.089,1.22,8.597,2.485,12.475"/>
<path fill="none" stroke="#000000" stroke-width="0.5" stroke-miterlimit="10" d="M517.141,430.495
	c1.623,0.755,4.703,0.188,6.713,0.287c0.484,2.589,0.865,5.503,0.287,8.213"/>
<path fill="none" stroke="#000000" stroke-width="0.5" stroke-miterlimit="10" d="M488.391,358.997
	c0,13.16-0.457,26.263-1.013,39.392c-0.125,2.956,0.013,5.956,0.013,8.913c0,3.965-0.79,7.618-1,11.506
	c-0.154,2.854,0.857,3.88,1.499,6.134c0.492,1.727,0.181,4.284,0.251,6.055c0.026,0.664,0,1.335,0,2"/>
<path fill="none" stroke="#000000" stroke-width="0.5" stroke-miterlimit="10" d="M461.641,395.246
	c4.174,1.475,11.398,0.495,15.827-0.069c4.499-0.574,8.748-1.724,13.167-2.612c7.066-1.419,14.532-0.818,21.756-0.818"/>
<path fill="none" stroke="#000000" stroke-width="0.5" stroke-miterlimit="10" d="M514.391,395.746
	c-12.238,0-24.408-0.09-36.5,1.056c-5.478,0.519-10.842,0.944-16.5,0.944"/>
<path fill="none" stroke="#000000" stroke-width="0.5" stroke-miterlimit="10" d="M487.391,394.747
	c-2.125,0.875-3.515,0.471-4.312,3.443c-0.422,1.574-0.531,4.228,1.299,5.067c2.344,1.075,4.454-1.01,5.006-2.774
	c0.809-2.595,0.277-3.798-1.993-4.737"/>
</svg>
