<?xml version="1.0" encoding="utf-8"?>
<!-- Generator: Adobe Illustrator 16.0.0, SVG Export Plug-In . SVG Version: 6.00 Build 0)  -->
<!DOCTYPE svg PUBLIC "-//W3C//DTD SVG 1.1//EN" "http://www.w3.org/Graphics/SVG/1.1/DTD/svg11.dtd">
<svg version="1.1" id="Layer_1" xmlns="http://www.w3.org/2000/svg" xmlns:xlink="http://www.w3.org/1999/xlink" x="0px" y="0px"
	 width="137.312px" height="137.812px" viewBox="419.788 337.125 137.312 137.812"
	 enable-background="new 419.788 337.125 137.312 137.812" xml:space="preserve">
<path fill="none" stroke="#000000" stroke-width="0.5" stroke-miterlimit="10" d="M459.996,429.537
	c1.224,2.582-2.177,10.064-2.917,13.193c-0.621,2.623-1.487,5.229-2.083,7.807"/>
<path fill="none" stroke="#000000" stroke-width="0.5" stroke-miterlimit="10" d="M454.329,435.203c2.877,0.383,5.609,2.506,8.667,3
	"/>
<path fill="none" stroke="#000000" stroke-width="0.5" stroke-miterlimit="10" d="M459.662,427.537c5.17,2.629,2.819-9.17-2.032-2
	c0.316,0.721,0.784,1.115,1.366,1.332"/>
<path fill="none" stroke="#000000" stroke-width="0.5" stroke-miterlimit="10" d="M459.996,424.537
	c-4.511-3.967-13.368-7.273-15.999-12.675c-4.277-8.781,12.217-10.325,17.591-10.325c4.478,0,8.491-0.182,12.733,1.083
	c4.93,1.471,10.361,2.817,15.424,3.249c4.236,0.361,16.188,0.908,13.941-6.674c-1.362-4.602-9.081-5.462-12.771-6.658
	c-2.555-0.828-4.072-0.907-4.935-3.554c-1.323-4.059,1.986-7.598,5.259-9.371c12.005-6.503,31.224-0.648,41.489,6.509
	c6.687,4.661,14.42,9.199,11.61,18.741c-2.376,8.063-12.597,8.354-19.675,8.683c-12.108,0.559-24.054,0.405-36.084,1.317
	c-2.997,0.228-9.184,1.149-7.607,5.673c1.396,4.01,9.545,5.01,13.04,6.436c2.916,1.188,5.281,2.047,5.984,5.215
	c1.275,5.748-5.904,5.834-9.998,5.352c-7.509-0.887-14.637-6.258-21.354-9.342c-1.886-0.865-3.664-1.51-5.65-1.992"/>
<path fill="none" stroke="#000000" stroke-width="0.5" stroke-miterlimit="10" d="M494.31,435c-2.074,0.366-4.195,4.064-1.167,4.666
	c3.492,0.694,3.511-2.684,1.333-4.333"/>
<path fill="none" stroke="#000000" stroke-width="0.5" stroke-miterlimit="10" d="M494.976,440.5
	c-0.154,2.42-1.041,5.421-1.771,7.689c1.922-1.633,4.507-3.654,6.794-4.357c-1.628-1.022-3.576-1.127-5.023-2.666"/>
<path fill="none" stroke="#000000" stroke-width="0.5" stroke-miterlimit="10" d="M500.31,444.5
	c0.735,1.935,0.025,5.588-0.008,7.782c1.094-2.282,4.398-4.593,6.281-6.124c-2.093,0.116-3.647-1.566-5.44-1.992"/>
<path fill="none" stroke="#000000" stroke-width="0.5" stroke-miterlimit="10" d="M493.643,448.666c0,2.328-0.904,5.313-0.471,7.45
	c1.434-1.918,3.769-3.325,5.916-4.32c-1.899-0.972-3.363-2.55-5.278-3.463"/>
<path fill="none" stroke="#000000" stroke-width="0.5" stroke-miterlimit="10" d="M499.144,433.999
	c-1.048,0.4-1.337,2.209,0.166,2.167c1.214-0.034,1.668-1.776,0.5-2.167"/>
<path fill="none" stroke="#000000" stroke-width="0.5" stroke-miterlimit="10" d="M500.477,434.832c1.539,0,3.374,0.246,4.833-0.166
	"/>
<path fill="none" stroke="#000000" stroke-width="0.5" stroke-miterlimit="10" d="M505.144,429.999c0.976,2.226-0.26,5.735,0,8.167"
	/>
<path fill="none" stroke="#000000" stroke-width="0.5" stroke-miterlimit="10" d="M505.81,432.999c3.402,0,6.47-1.017,9.667-1.167
	c2.997-0.142,4.885,0.708,7.5,1.834"/>
<path fill="none" stroke="#000000" stroke-width="0.5" stroke-miterlimit="10" d="M505.144,435.666c1.532,0.57,3.44-0.164,5-0.334
	c1.527-0.166,2.962-0.342,4.496-0.5c1.455-0.149,3.039,0.056,4.504-0.166c1.268-0.191,2.168-0.901,3.333-1.334"/>
<path fill="none" stroke="#000000" stroke-width="0.5" stroke-miterlimit="10" d="M505.31,434.499
	c2.769,0.001,5.124-1.019,7.834-1.167c2.593-0.143,5.235,0,7.833,0"/>
</svg>
