<?xml version="1.0" encoding="utf-8"?>
<!-- Generator: Adobe Illustrator 16.0.0, SVG Export Plug-In . SVG Version: 6.00 Build 0)  -->
<!DOCTYPE svg PUBLIC "-//W3C//DTD SVG 1.1//EN" "http://www.w3.org/Graphics/SVG/1.1/DTD/svg11.dtd">
<svg version="1.1" id="Layer_1" xmlns="http://www.w3.org/2000/svg" xmlns:xlink="http://www.w3.org/1999/xlink" x="0px" y="0px"
	 width="137.312px" height="137.812px" viewBox="419.788 337.125 137.312 137.812"
	 enable-background="new 419.788 337.125 137.312 137.812" xml:space="preserve">
<g>
	<g>
		<path fill="none" stroke="#000000" stroke-width="0.5" stroke-miterlimit="10" d="M476.891,413.63
			c-2.003-3.881-15.502-2.227-19.898-2.59c3.249,2.957,1.616,7.225,6.786,7.707c4.46,0.417,7.914-3.915,10.718-6.768"/>
		<path fill="none" stroke="#000000" stroke-width="0.5" stroke-miterlimit="10" d="M489.505,398.545
			c4.566-4.715,10.621-9.446,12.901-15.521c4.24,3.247,4.901,7.77,1.941,11.884c-3.724,5.179-9.512,3.555-14.22,0.243"/>
		<path fill="none" stroke="#000000" stroke-width="0.5" stroke-miterlimit="10" d="M473.536,404.72
			c-3.352-4.597-27.288,3.819-32.887,6.107"/>
		<path fill="none" stroke="#000000" stroke-width="0.5" stroke-miterlimit="10" d="M481.989,393.929
			c8.395-8.171,10.365-20.323,16.778-29.701"/>
	</g>
	<g>
		<path fill="none" stroke="#000000" stroke-width="0.5" stroke-miterlimit="10" d="M448.056,436.553
			c9.124,14.771,27.256,9.609,51.333-10.878c27.738-23.604,28.889-39.294,42.513-63.772c-34.85,39.858-52.14,62.779-94.83,73.606"/>
		<path fill="none" stroke="#000000" stroke-width="0.5" stroke-miterlimit="10" d="M464.912,428.567
			c-2.673,5.28-6.23,12.479-5.305,16.164"/>
		<path fill="none" stroke="#000000" stroke-width="0.5" stroke-miterlimit="10" d="M513.049,391.136
			c4.851,0.886,10.218,2.183,12.933,5.561"/>
		<path fill="none" stroke="#000000" stroke-width="0.5" stroke-miterlimit="10" d="M495.996,409.812
			c4.479,0.509,7.64,6.75,10.52,9.809"/>
		<path fill="none" stroke="#000000" stroke-width="0.5" stroke-miterlimit="10" d="M480.079,421.516
			c-6.123,7.982-6.792,15.229-7.745,21.748"/>
		<path fill="none" stroke="#000000" stroke-width="0.5" stroke-miterlimit="10" d="M486,417.585
			c1.905,4.663-0.055,12.433-0.327,18.048"/>
	</g>
</g>
</svg>
