<?xml version="1.0" encoding="utf-8"?>
<!-- Generator: Adobe Illustrator 16.0.0, SVG Export Plug-In . SVG Version: 6.00 Build 0)  -->
<!DOCTYPE svg PUBLIC "-//W3C//DTD SVG 1.1//EN" "http://www.w3.org/Graphics/SVG/1.1/DTD/svg11.dtd">
<svg version="1.1" id="Layer_1" xmlns="http://www.w3.org/2000/svg" xmlns:xlink="http://www.w3.org/1999/xlink" x="0px" y="0px"
	 width="137.312px" height="137.812px" viewBox="419.788 337.125 137.312 137.812"
	 enable-background="new 419.788 337.125 137.312 137.812" xml:space="preserve">
<path fill="none" stroke="#000000" stroke-width="0.5" stroke-miterlimit="10" d="M494.105,390.276
	c4.622,0.83,12.011-4.219,12.703-8.827c0.843-5.604-7.149-5.449-11.085-4.193c1.653-2.05,4.219-3.278,6.457-4.569
	c5.059-2.917,9.938-6.149,15.109-8.927c6.102-3.278,11.923-7.052,17.876-10.595c2.315-1.376,4.701-3.051,7.239-3.637
	c-5.755,8.54-17.598,13.5-22.553,22.577c8.021,0.913,18.565-4.979,26.21-0.646c-5.261,2.736-11.05,4.382-16.425,6.884
	c-3.285,1.529-8.125,3.208-10.652,5.914c6.304-0.308,11.211-0.567,16.97,2.622c3.22,1.783,6.546,3.619,9.412,5.83
	c-6.224-0.245-12.626,1.31-18.776,2.031c-2.802,0.329-7.572,0.385-9.809,2.123c8.779-0.248,14.326,12.709,17.953,19.369
	c-7.645-2.022-15.337-11.208-21.017-16.252"/>
<path fill="none" stroke="#000000" stroke-width="0.5" stroke-miterlimit="10" d="M476.585,390.276
	c-3.278,1.473-10.732-1.073-11.486-5.135c-0.953-5.134,6.896-5.646,9.567-3.287c-8.989-6.347-16.25-15.15-24.512-22.33
	c-3.749-3.257-5.892-7.11-11.902-9.019c7.69,6.483,12.66,15.125,18.604,22.869c-4.219,0.389-10.104-1.474-14.343-2.197
	c-3.562-0.608-7.052-1.308-10.572-1.758c9.866,2.083,17.751,8.918,24.918,15.434c-6.641-0.104-16.812-0.176-21.361,5.672
	c9.259,0.521,18.057,1.467,27.202,3.126c-5.953,4.498-14.888,9.132-19.3,15.339c6.961-1.873,13.973-3.763,20.8-6.026"/>
<path fill="none" stroke="#000000" stroke-width="0.5" stroke-miterlimit="10" d="M513.541,399.742
	c-1.456,0.46-3.125,0.05-4.669,0.242c-2.853,0.356-5.693,1.681-8.215,2.976c-5.332,2.737-10.213,7.699-11.047,13.896
	c-0.954,7.08-0.5,14.969,3.59,21.102c4.439,6.654,13.411,10.772,20.915,12.591c5.311,1.286,9.397,0.001,12.662-4.291
	c2.175-2.858,1.39-5.699,0.608-8.834c-1.399,2.895-2.706,5.064-5.396,7.27c-0.632-1.365,0.696-3.168,1.174-4.516
	c0.654-1.854,0.964-3.84,1.297-5.747c0.795-4.554,0.089-9.313,0.394-13.933c1.417,1.574,2.643,4.02,3.932,5.887
	c1.67,2.414,3.617,4.588,5.14,7.09c1.657,2.726,3.112,6.025,5.378,8.278c-3.132-2.309-5.168-5.273-9.249-6.162"/>
<path fill="none" stroke="#000000" stroke-width="0.5" stroke-miterlimit="10" d="M463.595,403.166c3.926,0,8.214-0.548,11.93,0.611
	c5.408,1.688,10.871,7.786,11.834,13.485"/>
<path fill="none" stroke="#000000" stroke-width="0.5" stroke-miterlimit="10" d="M493.604,388.665
	c0.667-1.492,0.165-4.576-0.231-6.222c-1.526,0.811-2.757,2.907-4.357,4.012c-1.368,0.944-2.395,1.792-4.027,2.009
	c-2.706,0.36-5.021-2.36-6.7-4.359c0.043,1.794,0.413,3.51,0.412,5.365"/>
</svg>
