<?xml version="1.0" encoding="utf-8"?>
<!-- Generator: Adobe Illustrator 16.0.0, SVG Export Plug-In . SVG Version: 6.00 Build 0)  -->
<!DOCTYPE svg PUBLIC "-//W3C//DTD SVG 1.1//EN" "http://www.w3.org/Graphics/SVG/1.1/DTD/svg11.dtd">
<svg version="1.1" id="Layer_1" xmlns="http://www.w3.org/2000/svg" xmlns:xlink="http://www.w3.org/1999/xlink" x="0px" y="0px"
	 width="137.312px" height="137.812px" viewBox="419.788 337.125 137.312 137.812"
	 enable-background="new 419.788 337.125 137.312 137.812" xml:space="preserve">
<g>
	<path fill="none" stroke="#000000" stroke-width="0.5" stroke-miterlimit="10" d="M461.644,385.975
		c0,7.737,0.172,15.493-0.025,23.225c3.895-4.783,10.319-10.591,16.358-12.225"/>
	<path fill="none" stroke="#000000" stroke-width="0.5" stroke-miterlimit="10" d="M497.311,391.642
		c4.189,1.283,9.398,5.732,12.765,8.648c2.882-9.416-2.292-21.146-3.147-30.604c-2.485,0.495-9.872,8.72-10.95,11.29"/>
	<path fill="none" stroke="#000000" stroke-width="0.5" stroke-miterlimit="10" d="M474.31,387.309
		c-2.263,0.971-9.998,1.007-12.333,0"/>
	<path fill="none" stroke="#000000" stroke-width="0.5" stroke-miterlimit="10" d="M490.644,383.309
		c0.942-2.151,0.259-6.022,0.334-8.678c0.104-3.713,1.098-7.375,1.28-10.953c-3.979,2.174-7.288,5.061-11.874,6.548
		c-2.881,0.935-5.734,2.017-8.639,2.741c4.79,1.522,10.589,6.735,12.564,11.342"/>
	<path fill="none" stroke="#000000" stroke-width="0.5" stroke-miterlimit="10" d="M494.311,394.642
		c2.658,7.828,5.893,15.918,9.251,23.742c2.076,4.838,3.904,9.389,6.75,13.76c2.611,4.008,5.791,8.064,7.631,12.447
		c-10.301,0.629-20.944,2.363-30.166,7.008c2.89-9.371,2.534-18.678,2.534-28.391c0-5.09,0.287-10.273-0.398-15.307
		c-0.422-3.09-0.381-7.43-1.935-9.926"/>
	<path fill="none" stroke="#000000" stroke-width="0.5" stroke-miterlimit="10" d="M503.978,384.642
		c-12.698,0.06-22.212,8.188-33.334,12.333"/>
	<path fill="none" stroke="#000000" stroke-width="0.5" stroke-miterlimit="10" d="M482.591,373.309
		c2.532,6.264,5.96,12.101,7.676,18.766c1.392,5.407,2.46,10.91,4.242,16.317c1.774,5.385,2.792,10.85,4.072,16.25
		c0.821,3.465,0.979,8.523,3.344,11.334"/>
	<path fill="none" stroke="#000000" stroke-width="0.5" stroke-miterlimit="10" d="M495.645,372.001c2.426-7.09,7.858-15.95,13-22"
		/>
	<path fill="none" stroke="#000000" stroke-width="0.5" stroke-miterlimit="10" d="M500.978,401.668
		c5.108-0.518,11.162,3.742,15.291,6.019c5.529,3.05,11.422,7.276,17.376,9.315"/>
	<path fill="none" stroke="#000000" stroke-width="0.5" stroke-miterlimit="10" d="M518.311,386.001c4.842,1.043,10.74-3.174,16-3"
		/>
	<path fill="none" stroke="#000000" stroke-width="0.5" stroke-miterlimit="10" d="M454.977,404.002
		c-4.434,0.036-9.761,4.145-13.883,5.857c-2.965,1.231-6.943,2.171-9.45,3.809"/>
	<path fill="none" stroke="#000000" stroke-width="0.5" stroke-miterlimit="10" d="M469.644,380.334
		c-4.63-2.266-8.698-5.907-13.333-8"/>
	<path fill="none" stroke="#000000" stroke-width="0.5" stroke-miterlimit="10" d="M479.977,409.668
		c1.897,3.998-4.255,13.156-5.675,16.959c-1.502,4.022-4.286,8.021-4.658,12.375"/>
	<path fill="none" stroke="#000000" stroke-width="0.5" stroke-miterlimit="10" d="M481.31,362.668c0.738-6.188-4.453-10.793-6-16"
		/>
	<path fill="none" stroke="#000000" stroke-width="0.5" stroke-miterlimit="10" d="M505.645,450.002
		c-0.107,4.896,2.074,9.705,3.666,14.333"/>
</g>
</svg>
