<?xml version="1.0" encoding="utf-8"?>
<!-- Generator: Adobe Illustrator 16.0.0, SVG Export Plug-In . SVG Version: 6.00 Build 0)  -->
<!DOCTYPE svg PUBLIC "-//W3C//DTD SVG 1.1//EN" "http://www.w3.org/Graphics/SVG/1.1/DTD/svg11.dtd">
<svg version="1.1" id="Layer_1" xmlns="http://www.w3.org/2000/svg" xmlns:xlink="http://www.w3.org/1999/xlink" x="0px" y="0px"
	 width="137.312px" height="137.812px" viewBox="419.788 337.125 137.312 137.812"
	 enable-background="new 419.788 337.125 137.312 137.812" xml:space="preserve">
<path fill="none" stroke="#000000" stroke-width="0.5" stroke-miterlimit="10" d="M495.748,388.405
	c3.396,0.632,6.221-6.369,5.629-9.722c-0.874-4.94-6.088-8.188-11.257-7.675c-5.527,0.549-7.921,4.821-7.675,10.246
	c0.268,5.903,3.482,5.354,8.186,7.663"/>
<path fill="none" stroke="#000000" stroke-width="0.5" stroke-miterlimit="10" d="M473.235,391.475
	c-12.458-10.196-26.411-25.722-39.549-36.263c1.892,6.272,7.423,11.977,10.807,17.515c3.055,5,5.754,9.896,9.144,14.589
	c-4.373-0.949-9.381-0.381-13.979-0.485c6.071,7.739,11.146,12.507,19.094,17.971c-4.067-0.066-16.23-1.728-14.093,5.525
	c8.789,1.383,17.54,2.126,26.53,2.126"/>
<path fill="none" stroke="#000000" stroke-width="0.5" stroke-miterlimit="10" d="M504.958,387.381
	c7.635,1.927,19.762-4.325,26.364-8.076c4.572-2.596,9.448-7.407,14.41-8.739c-11.054,8.926-21.559,18.592-32.927,27.099
	c7.602-2.553,16.397-1.473,24.235-2.617c-9.136,1.914-20.752,8.233-28.757,13.198c4.71,0.621,10.114,5.057,13.017,8.197
	c-4.03,0.298-8.747,0.667-12.661-0.54c-3.566-1.101-6.038-3.951-9.311-5.497"/>
<path fill="none" stroke="#000000" stroke-width="0.5" stroke-miterlimit="10" d="M489.095,397.614
	c1.854,4.246-4.728,14.372-6.664,18.801c-2.063,4.716-2.949,9.351-4.592,13.946"/>
<path fill="none" stroke="#000000" stroke-width="0.5" stroke-miterlimit="10" d="M488.073,458.504
	c3.278-7.52-2.956-17.783-6.652-24.049"/>
<path fill="none" stroke="#000000" stroke-width="0.5" stroke-miterlimit="10" d="M456.35,447.759
	c3.707-2.634,5.756-7.338,8.838-10.658c2.219-2.389,5.068-3.826,7.534-5.716"/>
<path fill="none" stroke="#000000" stroke-width="0.5" stroke-miterlimit="10" d="M482.956,394.033
	c-4.225-3.739-7.741-12.62-11.374-18.167c-3.769-5.755-8.219-11.231-11.65-17.137"/>
<path fill="none" stroke="#000000" stroke-width="0.5" stroke-miterlimit="10" d="M483.979,365.38
	c-3.552,0.219-3.401-3.432-2.98-6.051c3.598-1.8,24.841-5.189,27.95-1.547c5.528,6.479-19.651,7.085-22.922,7.085"/>
<path fill="none" stroke="#000000" stroke-width="0.5" stroke-miterlimit="10" d="M496.26,399.149
	c4.936-3.698,9.012-13.692,12.153-19.585c2.908-5.457,6.601-10.209,9.336-15.719"/>
<path fill="none" stroke="#000000" stroke-width="0.5" stroke-miterlimit="10" d="M485.514,381.753
	c0.769,3.982,4.809,3.837,7.932,3.837"/>
<path fill="none" stroke="#000000" stroke-width="0.5" stroke-miterlimit="10" d="M499.074,379.45
	c-0.659-0.223-1.499-0.643-2.046-1.023"/>
<path fill="none" stroke="#000000" stroke-width="0.5" stroke-miterlimit="10" d="M489.864,376.38c-0.891,0.444-2-0.151-2.815-0.768
	"/>
</svg>
