<?xml version="1.0" encoding="utf-8"?>
<!-- Generator: Adobe Illustrator 16.0.0, SVG Export Plug-In . SVG Version: 6.00 Build 0)  -->
<!DOCTYPE svg PUBLIC "-//W3C//DTD SVG 1.1//EN" "http://www.w3.org/Graphics/SVG/1.1/DTD/svg11.dtd">
<svg version="1.1" id="Layer_1" xmlns="http://www.w3.org/2000/svg" xmlns:xlink="http://www.w3.org/1999/xlink" x="0px" y="0px"
	 width="137.312px" height="137.812px" viewBox="419.788 337.125 137.312 137.812"
	 enable-background="new 419.788 337.125 137.312 137.812" xml:space="preserve">
<g>
	<path fill="none" stroke="#000000" stroke-width="0.5" stroke-miterlimit="10" d="M488.958,367.094
		c-0.606,7.707-11.835,14.557-13.038,23.07"/>
	<path fill="none" stroke="#000000" stroke-width="0.5" stroke-miterlimit="10" d="M505.008,378.13
		c-1.876,8.046-9.212,14.44-9.027,23.068"/>
	<path fill="none" stroke="#000000" stroke-width="0.5" stroke-miterlimit="10" d="M526.072,380.135
		c3.586,6.979-6.962,20.014-10.031,26.079"/>
	<path fill="none" stroke="#000000" stroke-width="0.5" stroke-miterlimit="10" d="M503.002,433.295
		c-2.939,7.02-12.319,14.895-19.059,19.062"/>
	<path fill="none" stroke="#000000" stroke-width="0.5" stroke-miterlimit="10" d="M469.902,399.194
		c-9.744,5.831-14.214,16.481-19.06,26.079"/>
	<path fill="none" stroke="#000000" stroke-width="0.5" stroke-miterlimit="10" d="M475.921,386.153
		c2.285,10.163,11.797,19.613,9.354,29.901c-2.071,8.716-11.611,16.857-17.379,23.262"/>
	<path fill="none" stroke="#000000" stroke-width="0.5" stroke-miterlimit="10" d="M495.98,400.197
		c1.532,10.636,4.158,24.257,8.024,34.101"/>
	<path fill="none" stroke="#000000" stroke-width="0.5" stroke-miterlimit="10" d="M515.037,405.21
		c-6.12-0.676-13.582,4.134-19.057,6.019"/>
	<path fill="none" stroke="#000000" stroke-width="0.5" stroke-miterlimit="10" d="M524.066,381.138
		c0-12.822-1.14-25.173-0.931-37.789c-8.956,10.701-21.744,19.755-34.177,25.752"/>
	<path fill="none" stroke="#000000" stroke-width="0.5" stroke-miterlimit="10" d="M449.839,427.279
		c-1.364,12.814,6.253,26.076,5.952,39.819c6.114-7.514,18.63-18.063,29.156-16.748"/>
</g>
</svg>
