<?xml version="1.0" encoding="utf-8"?>
<!-- Generator: Adobe Illustrator 16.0.0, SVG Export Plug-In . SVG Version: 6.00 Build 0)  -->
<!DOCTYPE svg PUBLIC "-//W3C//DTD SVG 1.1//EN" "http://www.w3.org/Graphics/SVG/1.1/DTD/svg11.dtd">
<svg version="1.1" id="Layer_1" xmlns="http://www.w3.org/2000/svg" xmlns:xlink="http://www.w3.org/1999/xlink" x="0px" y="0px"
	 width="137.312px" height="137.812px" viewBox="419.788 337.125 137.312 137.812"
	 enable-background="new 419.788 337.125 137.312 137.812" xml:space="preserve">
<path fill="none" stroke="#000000" stroke-width="0.5" stroke-miterlimit="10" d="M468.809,457.834
	c1.861-4.106,0.333-13.004,0.333-17.543c0-10.952,0-21.903,0-32.855c0-8.315-0.403-16.75-0.006-25.053
	c0.208-4.361,1.011-8.493,1.006-12.868c-0.004-3.766-1.19-10.491,0.333-13.681"/>
<path fill="none" stroke="#000000" stroke-width="0.5" stroke-miterlimit="10" d="M503.476,458.167
	c0-15.443-0.259-30.773,1.813-46.111c1.305-9.661,2.472-19.469,2.854-29.215c0.227-5.768-0.196-11.591,0.074-17.34
	c0.106-2.264-0.185-5.562,0.592-7.667"/>
<path fill="none" stroke="#000000" stroke-width="0.5" stroke-miterlimit="10" d="M444.476,461.834
	c13.586,0.005,26.923-1.991,40.462-2.608c7.632-0.348,15.279,0.447,22.787-0.817c6.751-1.136,12.754-1.908,19.751-1.908"/>
<path fill="none" stroke="#000000" stroke-width="0.5" stroke-miterlimit="10" d="M527.476,354.167
	c-2.032,1.047-6.044,0.269-8.511,0.316c-8.145,0.157-16.265,0.35-24.417,0.35c-10.521,0-21.042,0-31.563,0
	c-8.725,0-17.45,0-26.175,0"/>
</svg>
