<?xml version="1.0" encoding="utf-8"?>
<!-- Generator: Adobe Illustrator 16.0.0, SVG Export Plug-In . SVG Version: 6.00 Build 0)  -->
<!DOCTYPE svg PUBLIC "-//W3C//DTD SVG 1.1//EN" "http://www.w3.org/Graphics/SVG/1.1/DTD/svg11.dtd">
<svg version="1.1" id="Layer_1" xmlns="http://www.w3.org/2000/svg" xmlns:xlink="http://www.w3.org/1999/xlink" x="0px" y="0px"
	 width="137.312px" height="137.812px" viewBox="419.788 337.125 137.312 137.812"
	 enable-background="new 419.788 337.125 137.312 137.812" xml:space="preserve">
<path fill="none" stroke="#000000" stroke-width="0.5" stroke-miterlimit="10" d="M454.476,455.834
	c2.327-8.838,0.333-20.8,0.333-30.015c0-11.913,0-23.826,0-35.74c0-10.638,0-21.275,0-31.913"/>
<path fill="none" stroke="#000000" stroke-width="0.5" stroke-miterlimit="10" d="M492.143,358.833
	c1.339,3.675,0.333,8.91,0.333,12.812c0.001,9.34,0,18.68,0,28.02c0,14.618,0,29.235,0,43.852c0,2.868,1.426,13.724-1,15.982"/>
<path fill="none" stroke="#000000" stroke-width="0.5" stroke-miterlimit="10" d="M524.809,457.5c0-33.731-1.666-67.344-1.666-101"
	/>
<path fill="none" stroke="#000000" stroke-width="0.5" stroke-miterlimit="10" d="M432.142,456.167
	c2.855,0.852,6.376,0.333,9.329,0.333c7.773,0,15.53,0.462,23.168-0.849c9.859-1.692,20.8-0.484,30.82-0.484
	c8.751,0,17.646-0.468,26.383-0.008c5.148,0.271,11.468,0.02,16.301,2.008"/>
<path fill="none" stroke="#000000" stroke-width="0.5" stroke-miterlimit="10" d="M537.143,357.833
	c-11.86,0-23.96-0.715-35.734,0.593c-9.112,1.012-18.228,1.83-27.356,2.333c-7.385,0.407-14.614,1.943-21.927,2.684
	c-4.477,0.454-9.272,0.299-13.649,1.39"/>
</svg>
