<?xml version="1.0" encoding="utf-8"?>
<!-- Generator: Adobe Illustrator 16.0.0, SVG Export Plug-In . SVG Version: 6.00 Build 0)  -->
<!DOCTYPE svg PUBLIC "-//W3C//DTD SVG 1.1//EN" "http://www.w3.org/Graphics/SVG/1.1/DTD/svg11.dtd">
<svg version="1.1" id="Layer_1" xmlns="http://www.w3.org/2000/svg" xmlns:xlink="http://www.w3.org/1999/xlink" x="0px" y="0px"
	 width="137.312px" height="137.812px" viewBox="419.788 337.125 137.312 137.812"
	 enable-background="new 419.788 337.125 137.312 137.812" xml:space="preserve">
<path fill="none" stroke="#000000" stroke-width="0.5" stroke-miterlimit="10" d="M428.021,348.817
	c0.063,8.806,2.477,17.483,3.199,26.29c1.266,15.425,3.349,30.4,5.713,45.661c1.837,11.861,3.984,23.817,5.483,35.61
	c-0.137-4.214,0.712-9.96,1.353-14.531c1.396-9.965,2.118-20.007,3.133-30.023c1.116-11.01,2.031-21.853,3.752-32.8
	c1.443-9.18,4.229-19.858,7.758-28.288"/>
<path fill="none" stroke="#000000" stroke-width="0.5" stroke-miterlimit="10" d="M470.248,348.497
	c2.16,8.574,0.332,19.987,0.305,28.719c-0.044,14.392,2.77,28.61,3.54,42.992c0.486,9.074,0.954,18.045,0.954,27.139"/>
<path fill="none" stroke="#000000" stroke-width="0.5" stroke-miterlimit="10" d="M503.518,354.576
	c1.007,4.03,0.319,8.737,0.32,12.845c0.002,10.684-0.001,21.368,0,32.052c0.002,12.748,0.268,25.048,2.334,37.617
	c0.723,4.398,1.635,8.761,2.401,13.127c0.272,1.558,0.888,2.959-0.257,4.168"/>
<path fill="none" stroke="#000000" stroke-width="0.5" stroke-miterlimit="10" d="M534.229,350.737
	c0.965,2.483,0.496,6.386,0.76,9.126c1.207,12.522,1.907,24.961,2.831,37.505c0.914,12.445,2.298,24.91,2.821,37.375
	c0.213,5.057,1.511,13.94-0.334,18.683"/>
<path fill="none" stroke="#000000" stroke-width="0.5" stroke-miterlimit="10" d="M552.143,453.105
	c-1.446,0.611-3.975,0.319-5.795,0.319c-11.093,0-22.186,0-33.278,0c-9.555,0-18.809,0.206-28.296,1.29
	c-5.3,0.604-10.543,1.545-15.882,1.588c-7.133,0.058-14.473-0.548-21.576,0.056c-4.909,0.418-14.176,0.744-18.335,3.146"/>
<path fill="none" stroke="#000000" stroke-width="0.5" stroke-miterlimit="10" d="M425.142,351.376c19.412,0,38.824,0,58.236,0
	c12.355,0,24.554,0.959,36.91,0.959c6.809,0,13.616,0,20.425,0c3.743,0,7.19-0.853,10.79-0.959"/>
</svg>
