<?xml version="1.0" encoding="utf-8"?>
<!-- Generator: Adobe Illustrator 16.0.0, SVG Export Plug-In . SVG Version: 6.00 Build 0)  -->
<!DOCTYPE svg PUBLIC "-//W3C//DTD SVG 1.1//EN" "http://www.w3.org/Graphics/SVG/1.1/DTD/svg11.dtd">
<svg version="1.1" id="Layer_1" xmlns="http://www.w3.org/2000/svg" xmlns:xlink="http://www.w3.org/1999/xlink" x="0px" y="0px"
	 width="137.312px" height="137.812px" viewBox="419.788 337.125 137.312 137.812"
	 enable-background="new 419.788 337.125 137.312 137.812" xml:space="preserve">
<path fill="none" stroke="#000000" stroke-width="0.5" stroke-miterlimit="10" d="M515.476,360.5
	c-0.284,3.948-8.585,10.326-11.038,13.316c-7.128,8.692-13.256,18.088-19.922,27.121c-7.619,10.324-16.306,20.721-22.674,31.841
	c-3.739,6.529-7.543,14.458-10.033,21.389"/>
<path fill="none" stroke="#000000" stroke-width="0.5" stroke-miterlimit="10" d="M445.476,355.5
	c2.026,1.008,3.777,2.437,5.602,3.858c6.891,5.368,14.225,10.5,20.199,16.903c9.75,10.451,18.594,21.392,26.84,33.028
	c6.765,9.547,13.717,20.037,22.292,28.076c2.681,2.513,9.463,6.502,9.4,10.801"/>
</svg>
