<?xml version="1.0" encoding="utf-8"?>
<!-- Generator: Adobe Illustrator 16.0.0, SVG Export Plug-In . SVG Version: 6.00 Build 0)  -->
<!DOCTYPE svg PUBLIC "-//W3C//DTD SVG 1.1//EN" "http://www.w3.org/Graphics/SVG/1.1/DTD/svg11.dtd">
<svg version="1.1" id="Layer_1" xmlns="http://www.w3.org/2000/svg" xmlns:xlink="http://www.w3.org/1999/xlink" x="0px" y="0px"
	 width="1280px" height="800px" viewBox="0 0 1280 800" enable-background="new 0 0 1280 800" xml:space="preserve">
<g>
	<polygon fill="none" stroke="#1D1D1B" stroke-width="0.5" stroke-miterlimit="10" points="1038.855,118.483 1030.938,105.561 
		1038.855,131.406 1046.771,105.561 	"/>
	<polygon fill="none" stroke="#1D1D1B" stroke-width="0.5" stroke-miterlimit="10" points="1038.855,144.33 1046.771,157.252 
		1038.855,131.406 1030.938,157.252 	"/>
	<polygon fill="none" stroke="#1D1D1B" stroke-width="0.5" stroke-miterlimit="10" points="1051.779,131.406 1064.702,123.493 
		1038.855,131.406 1064.702,139.319 	"/>
	<polygon fill="none" stroke="#1D1D1B" stroke-width="0.5" stroke-miterlimit="10" points="1025.93,131.406 1013.007,139.319 
		1038.855,131.406 1013.007,123.493 	"/>
</g>
<g>
	<polygon fill="none" stroke="#1D1D1B" stroke-width="0.5" stroke-miterlimit="10" points="247.448,118.483 239.531,105.561 
		247.448,131.406 255.363,105.561 	"/>
	<polygon fill="none" stroke="#1D1D1B" stroke-width="0.5" stroke-miterlimit="10" points="247.448,144.33 255.363,157.252 
		247.448,131.406 239.531,157.252 	"/>
	<polygon fill="none" stroke="#1D1D1B" stroke-width="0.5" stroke-miterlimit="10" points="260.372,131.406 273.294,123.493 
		247.448,131.406 273.294,139.319 	"/>
	<polygon fill="none" stroke="#1D1D1B" stroke-width="0.5" stroke-miterlimit="10" points="234.522,131.406 221.599,139.319 
		247.448,131.406 221.599,123.493 	"/>
</g>
<g>
	<polygon fill="none" stroke="#1D1D1B" stroke-width="0.5" stroke-miterlimit="10" points="1038.855,623.269 1030.938,610.346 
		1038.855,636.191 1046.771,610.346 	"/>
	<polygon fill="none" stroke="#1D1D1B" stroke-width="0.5" stroke-miterlimit="10" points="1038.855,649.115 1046.771,662.037 
		1038.855,636.191 1030.938,662.037 	"/>
	<polygon fill="none" stroke="#1D1D1B" stroke-width="0.5" stroke-miterlimit="10" points="1051.779,636.191 1064.702,628.277 
		1038.855,636.191 1064.702,644.104 	"/>
	<polygon fill="none" stroke="#1D1D1B" stroke-width="0.5" stroke-miterlimit="10" points="1025.93,636.191 1013.007,644.104 
		1038.855,636.191 1013.007,628.277 	"/>
</g>
<g>
	<polygon fill="none" stroke="#1D1D1B" stroke-width="0.5" stroke-miterlimit="10" points="247.448,623.269 239.531,610.346 
		247.448,636.191 255.363,610.346 	"/>
	<polygon fill="none" stroke="#1D1D1B" stroke-width="0.5" stroke-miterlimit="10" points="247.448,649.115 255.363,662.037 
		247.448,636.191 239.531,662.037 	"/>
	<polygon fill="none" stroke="#1D1D1B" stroke-width="0.5" stroke-miterlimit="10" points="260.372,636.191 273.294,628.277 
		247.448,636.191 273.294,644.104 	"/>
	<polygon fill="none" stroke="#1D1D1B" stroke-width="0.5" stroke-miterlimit="10" points="234.522,636.191 221.599,644.104 
		247.448,636.191 221.599,628.277 	"/>
</g>
</svg>
