<?xml version="1.0" encoding="utf-8"?>
<!-- Generator: Adobe Illustrator 16.0.0, SVG Export Plug-In . SVG Version: 6.00 Build 0)  -->
<!DOCTYPE svg PUBLIC "-//W3C//DTD SVG 1.1//EN" "http://www.w3.org/Graphics/SVG/1.1/DTD/svg11.dtd">
<svg version="1.1" id="Layer_1" xmlns="http://www.w3.org/2000/svg" xmlns:xlink="http://www.w3.org/1999/xlink" x="0px" y="0px"
	 width="1280px" height="800px" viewBox="0 0 1280 800" enable-background="new 0 0 1280 800" xml:space="preserve">
<g>
	<g>
		<path fill="none" stroke="#1D1D1B" stroke-width="0.5" stroke-miterlimit="10" d="M1061.553,147.303
			c0.27-0.594,0.521-1.209,0.688-1.84c0.248-0.939,0.52-1.891,0.584-2.851c0.066-0.982-0.109-1.981-0.17-2.973
			c-0.07-1.153-0.438-2.219-0.836-3.296c-0.697-1.892-1.826-3.49-3.172-4.958c-0.514-0.562-1.133-1.038-1.354-1.817l2.189-1.638
			c0.014,0.027,0.025,0.051,0.039,0.078c0.023-0.052,0.039-0.103,0.062-0.153l2.127-1.592v-11.707l-4.131,2.835
			c-0.881-0.918-1.92-1.685-3.121-2.302c0.705-0.183,1.357-0.361,2.012-0.523c0.879-0.214,1.658-0.676,2.186-1.355
			c0.963-1.242,1.471-2.706,1.623-4.284c0.049-0.522,0.141-1.041,0.248-1.554c0.186-0.885,0.379-1.769,0.604-2.643
			c0.168-0.651,0.393-1.287,0.58-1.933c0.051-0.172,0.066-0.356,0.111-0.614c-0.361,0.135-0.613,0.249-0.879,0.324
			c-0.613,0.178-1.23,0.344-1.85,0.503c-0.502,0.128-1.004,0.267-1.514,0.354c-0.625,0.106-1.27,0.111-1.885,0.251
			c-1.062,0.243-2.143,0.475-3.154,0.866c-0.707,0.274-1.408,0.716-1.945,1.248c-0.742,0.733-1.199,1.677-1.309,2.758
			c-0.039,0.379-0.189,0.748-0.307,1.186c-0.889-1.88-2.332-3.45-4.035-4.523l1.836-2.676h-11.707l-2.281,3.048
			c-0.688-0.663-1.418-1.279-2.246-1.771c-0.891-0.527-1.807-1.032-2.756-1.446c-0.719-0.312-1.5-0.493-2.268-0.681
			c-0.693-0.17-1.402-0.369-2.107-0.38c-1.08-0.016-2.164,0.103-3.244,0.196c-0.467,0.041-0.957,0.087-1.385,0.259
			c-0.917,0.368-1.801,0.816-2.689,1.244c-0.092,0.045-0.141,0.184-0.253,0.344c0.592-0.138,1.06-0.338,1.53-0.34
			c1.697-0.014,3.412-0.198,5.068,0.398c0.881,0.318,1.818,0.507,2.66,0.904c1.051,0.496,2.068,1.087,3.023,1.748
			c0.783,0.543,1.506,1.2,2.164,1.891c0.137,0.144,0.264,0.297,0.398,0.445l-0.895,1.194h-3.945
			c-0.355-0.327-0.723-0.643-1.104-0.946c-1.062-0.842-2.248-1.5-3.6-1.788c-0.984-0.208-1.965-0.549-2.953-0.575
			c-1.097-0.027-2.213,0.171-3.296,0.394c-0.961,0.197-1.912,0.499-2.821,0.866c-0.859,0.349-1.67,0.78-2.432,1.293l-2.766-6.396
			h-10.871c-0.629-0.243-1.285-0.411-1.948-0.473c-1.132-0.106-2.28-0.168-3.442-0.089c-1.095,0.074-2.165,0.253-3.188,0.562
			h-11.158l6.174,3.143c-0.162,0.197-0.318,0.404-0.469,0.621c-0.78,1.137-1.275,2.366-1.589,3.66
			c-0.222,0.917-0.2,1.898-0.245,2.853c-0.048,1.071,0.336,2.042,0.814,2.974c0.621,1.213,1.501,2.212,2.669,2.907
			c0.561,0.333,1.19,0.624,1.823,0.737c0.822,0.147,1.664,0.053,2.428-0.401c0.867-0.515,1.501-1.251,1.689-2.21
			c0.141-0.723,0.143-1.507-0.176-2.248c-0.461-1.069-1.571-1.913-2.686-1.99c-0.894-0.061-1.77-0.036-2.515,0.583
			c-0.042,0.035-0.335-0.113-0.388-0.23c-0.129-0.293-0.23-0.613-0.264-0.93c-0.074-0.749-0.252-1.533-0.104-2.244
			c0.158-0.761,0.583-1.493,1.002-2.168c0.145-0.234,0.311-0.448,0.483-0.655l9.097,4.628c-0.959,1.099-1.094,2.484-1.139,3.891
			c-0.013,0.344,0.109,0.694,0.188,1.037c0.143,0.637,0.298,1.271,0.473,2.012c0.471-0.622,0.817-1.14,1.227-1.604
			c0.753-0.852,1.643-1.562,2.842-1.486c0.969,0.062,1.824,0.532,2.584,1.165c1.973,1.644,3.191,3.81,4.293,6.066
			c0.773,1.582,1.718,3.066,2.926,4.344c0.941,0.996,1.949,1.947,3.028,2.791c0.87,0.68,1.862,1.223,2.853,1.726
			c0.877,0.447,1.818,0.777,2.746,1.114c0.709,0.257,1.439,0.463,2.168,0.659c0.835,0.224,1.676,0.424,2.52,0.612
			c0.494,0.11,0.998,0.173,1.498,0.263c0.705,0.126,1.408,0.262,2.111,0.385c0.488,0.087,0.98,0.159,1.518,0.245
			c-1.078,1.292-1.053,2.634-0.102,3.615c0.916,0.949,2.268,1.143,3.672,0.022c0.096,0.395,0.211,0.742,0.264,1.099
			c0.098,0.666,0.152,1.338,0.238,2.006c0.066,0.489,0.125,0.982,0.238,1.462c0.178,0.774,0.408,1.539,0.6,2.31
			c0.166,0.675,0.242,1.377,0.473,2.027c0.365,1.031,0.83,2.025,1.246,3.037c0.803,1.969,1.992,3.675,3.453,5.213
			c1.182,1.238,2.48,2.336,3.93,3.228c1.426,0.875,2.936,1.615,4.404,2.429c1.596,0.885,2.955,2.053,3.939,3.6
			c0.404,0.641,0.738,1.386,0.613,2.168c-0.178,1.127-0.824,2-1.727,2.679c-0.416,0.314-0.842,0.617-1.262,0.928
			c0.004,0.052,0.01,0.104,0.016,0.158c0.994,0.199,1.982,0.449,2.986,0.58c0.475,0.062,0.975-0.128,1.467-0.166
			c1.42-0.102,2.496-0.757,3.236-1.96c0.025-0.041,0.039-0.084,0.062-0.127l4.686,9.207c-0.586,0.725-1.283,1.355-2.104,1.822
			c-0.693,0.396-1.426,0.715-2.262,0.766c-0.928,0.057-1.795-0.141-2.656-0.447c-0.297-0.104-0.287-0.207-0.135-0.459
			c0.697-1.133,0.807-2.372,0.223-3.541c-0.811-1.623-2.523-2.25-4.385-1.596c-1.215,0.425-1.91,1.386-2.156,2.578
			c-0.199,0.953,0.006,1.91,0.516,2.805c0.715,1.252,1.668,2.25,2.914,2.943c0.99,0.551,2.045,0.91,3.213,0.934
			c1.635,0.033,3.195-0.248,4.695-0.872c0.973-0.407,1.869-0.925,2.646-1.663c0.27-0.253,0.506-0.53,0.744-0.807l2.27,4.459v-8.831
			c0.148-0.565,0.273-1.138,0.369-1.714c0.164-1,0.064-2.041,0.064-3.064c0-1.003-0.098-1.984-0.434-2.955v-14.037l-5.268-2.279
			c0.443-0.959,0.801-1.949,0.943-3.021c0.137-1.01,0.318-2.02,0.395-3.034c0.037-0.501-0.1-1.019-0.197-1.521
			c-0.139-0.729-0.229-1.482-0.492-2.167c-0.318-0.817-0.793-1.574-1.203-2.355c-0.357-0.674-0.818-1.26-1.33-1.8v-5.938
			c0.408,0.331,0.805,0.675,1.184,1.039c0.791,0.765,1.514,1.617,2.156,2.51c0.627,0.868,1.158,1.814,1.643,2.771
			c0.371,0.733,0.645,1.524,0.883,2.313c0.256,0.842,0.557,1.705,0.598,2.569c0.072,1.568,0.217,3.165-0.303,4.73
			C1061.111,147.977,1061.389,147.666,1061.553,147.303z M1050.014,120.146c0.824,0.042,1.707,0.012,2.449,0.308
			c0.133,0.054,0.262,0.12,0.395,0.181l-3.229,2.216c-0.25-0.039-0.502-0.079-0.76-0.091c-0.18-0.007-0.357-0.042-0.535-0.044
			c-0.732-0.01-1.465-0.02-2.199-0.011c-0.449,0.004-0.896,0.042-1.346,0.065c-0.018-0.055-0.037-0.111-0.057-0.166
			c0.438-0.363,0.867-0.733,1.311-1.089C1047.201,120.591,1048.516,120.07,1050.014,120.146z M1043.023,145.47
			c-0.1-0.329-0.156-0.675-0.283-0.993c-0.35-0.879-0.074-1.749,0.205-2.527c0.33-0.913,0.969-1.65,1.713-2.293v2.214v5.913
			C1043.893,147.184,1043.318,146.451,1043.023,145.47z M1042.291,109.17c0.764,1.014,1.43,2.117,1.586,3.363
			c0.184,1.492,0.191,3.023-0.609,4.414c-0.51,0.88-1.074,1.707-1.928,2.42c-0.012-0.205-0.037-0.325-0.025-0.439
			c0.061-0.53,0.189-1.058,0.188-1.586c-0.006-1.394-0.184-2.763-0.592-4.111c-0.146-0.491-0.338-0.951-0.553-1.398l1.875-2.734
			C1042.252,109.124,1042.273,109.146,1042.291,109.17z M1024.299,119.525c-0.262,0.28-0.537,0.55-0.838,0.803
			c-1.404,1.179-2.945,1.29-4.611,0.896c-0.266-0.063-0.531-0.159-0.767-0.294c-0.663-0.378-1.251-0.841-1.733-1.405h3.115H1024.299
			z M1012.379,109.133c0.694-0.252,1.416-0.531,2.139-0.573c0.963-0.055,1.916-0.216,2.911-0.077
			c1.068,0.148,2.106,0.305,3.138,0.654c0.33,0.113,0.652,0.245,0.959,0.392h-10.142
			C1011.712,109.386,1012.045,109.254,1012.379,109.133z M1032.336,125.646c-0.904,1.215-1.959,2.247-3.195,3.063
			c-1.205,0.796-2.502,1.447-3.918,1.856c-1.098,0.317-2.168,0.671-3.332,0.609c-0.662-0.036-1.346,0.075-1.986-0.048
			c-1.01-0.196-2.004-0.496-2.979-0.826c-0.801-0.27-1.603-0.583-2.335-0.998c-0.929-0.525-1.773-1.194-2.68-1.763
			c-1.186-0.747-2.041-1.833-2.844-2.922c-0.764-1.037-1.381-2.202-1.926-3.374c-0.365-0.787-0.633-1.674-0.705-2.536
			c-0.027-0.337-0.041-0.671-0.047-1.004l3.583,1.822h2.132c0.103,0.648,0.283,1.284,0.562,1.906
			c0.576,1.286,1.497,2.273,2.647,3.03c0.697,0.461,1.502,0.756,2.249,1.143c0.774,0.401,1.607,0.585,2.46,0.577
			c0.971-0.009,1.941-0.101,2.906-0.208c0.971-0.107,1.854-0.506,2.66-1.036c1.365-0.894,2.49-2.013,3.279-3.469
			c0.338-0.627,0.59-1.275,0.768-1.944h5.014c-0.057,0.839-0.191,1.667-0.459,2.469
			C1033.756,123.291,1033.172,124.518,1032.336,125.646z M1044.688,157.469c-0.787-0.285-1.656-0.371-2.4-0.73
			c-1.008-0.49-1.988-1.078-2.875-1.764c-1.574-1.214-2.922-2.633-4.004-4.352c-1.279-2.027-2.076-4.211-2.451-6.525
			c-0.223-1.386-0.199-2.856,0.195-4.243c0.277-0.975,0.664-1.924,1.066-2.858c0.535-1.243,1.234-2.405,2.162-3.388
			c0.758-0.802,1.562-1.597,2.475-2.203c0.93-0.616,1.992-1.055,3.039-1.459c0.707-0.273,1.482-0.399,2.24-0.505
			c0.172-0.023,0.348-0.025,0.523-0.034v5.008c-0.201,0.051-0.404,0.104-0.607,0.173c-1.012,0.345-1.969,0.764-2.738,1.496
			c-0.729,0.691-1.428,1.422-2.049,2.209c-0.824,1.048-1.219,2.334-1.348,3.621c-0.156,1.588-0.098,3.186,0.566,4.726
			c0.408,0.948,0.861,1.847,1.512,2.642c1.09,1.33,2.41,2.258,4.15,2.594c0.281,0.055,0.561,0.096,0.838,0.123l2.863,5.631
			C1046.807,157.709,1045.732,157.85,1044.688,157.469z M1054.908,143.469c0.166,0.569,0.35,1.14,0.453,1.723
			c0.154,0.865,0.271,1.738,0.35,2.613c0.027,0.307-0.146,0.626-0.148,0.939c-0.006,0.967-0.24,1.875-0.539,2.779l-0.367-0.16
			v-8.573C1054.748,143.011,1054.84,143.232,1054.908,143.469z"/>
	</g>
	<g>
		<path fill="none" stroke="#1D1D1B" stroke-width="0.5" stroke-miterlimit="10" d="M224.247,148.275
			c-0.52-1.565-0.375-3.162-0.303-4.73c0.041-0.864,0.342-1.727,0.598-2.569c0.238-0.789,0.512-1.58,0.883-2.313
			c0.484-0.956,1.016-1.903,1.643-2.771c0.643-0.893,1.365-1.746,2.156-2.51c0.379-0.364,0.775-0.708,1.184-1.039v5.938
			c-0.512,0.541-0.973,1.126-1.33,1.8c-0.41,0.781-0.885,1.538-1.203,2.355c-0.264,0.684-0.354,1.438-0.492,2.167
			c-0.098,0.503-0.234,1.021-0.197,1.521c0.076,1.015,0.258,2.024,0.395,3.034c0.143,1.072,0.5,2.062,0.943,3.021l-5.268,2.279
			v14.037c-0.336,0.971-0.434,1.952-0.434,2.955c0,1.023-0.1,2.064,0.064,3.064c0.096,0.576,0.221,1.148,0.369,1.714v8.831
			l2.27-4.459c0.238,0.276,0.475,0.554,0.744,0.807c0.777,0.738,1.674,1.256,2.646,1.663c1.5,0.624,3.061,0.905,4.695,0.872
			c1.168-0.023,2.223-0.383,3.213-0.934c1.246-0.693,2.199-1.691,2.914-2.943c0.51-0.895,0.715-1.852,0.516-2.805
			c-0.246-1.192-0.941-2.153-2.156-2.578c-1.861-0.654-3.574-0.027-4.385,1.596c-0.584,1.169-0.475,2.408,0.223,3.541
			c0.152,0.252,0.162,0.355-0.135,0.459c-0.861,0.307-1.729,0.504-2.656,0.447c-0.836-0.051-1.568-0.369-2.262-0.766
			c-0.82-0.467-1.518-1.098-2.104-1.822l4.686-9.207c0.023,0.043,0.037,0.086,0.062,0.127c0.74,1.203,1.816,1.858,3.236,1.96
			c0.492,0.038,0.992,0.228,1.467,0.166c1.004-0.131,1.992-0.381,2.986-0.58c0.006-0.055,0.012-0.106,0.016-0.158
			c-0.42-0.311-0.846-0.613-1.262-0.928c-0.902-0.679-1.549-1.552-1.727-2.679c-0.125-0.782,0.209-1.527,0.613-2.168
			c0.984-1.547,2.344-2.715,3.939-3.6c1.469-0.813,2.979-1.554,4.404-2.429c1.449-0.892,2.748-1.989,3.93-3.228
			c1.461-1.538,2.65-3.244,3.453-5.213c0.416-1.012,0.881-2.006,1.246-3.037c0.23-0.65,0.307-1.353,0.473-2.027
			c0.191-0.771,0.422-1.535,0.6-2.31c0.113-0.479,0.172-0.973,0.238-1.462c0.086-0.668,0.141-1.341,0.238-2.006
			c0.053-0.357,0.168-0.704,0.264-1.099c1.404,1.121,2.756,0.927,3.672-0.022c0.951-0.981,0.977-2.324-0.102-3.615
			c0.537-0.085,1.029-0.158,1.518-0.245c0.703-0.124,1.406-0.259,2.111-0.385c0.5-0.089,1.004-0.152,1.498-0.263
			c0.844-0.188,1.685-0.388,2.52-0.612c0.729-0.196,1.459-0.401,2.168-0.659c0.928-0.337,1.869-0.667,2.746-1.114
			c0.99-0.503,1.982-1.045,2.853-1.726c1.079-0.844,2.087-1.795,3.028-2.791c1.208-1.277,2.152-2.762,2.926-4.344
			c1.102-2.256,2.32-4.422,4.293-6.066c0.76-0.632,1.615-1.102,2.584-1.165c1.199-0.077,2.089,0.634,2.842,1.486
			c0.409,0.463,0.756,0.982,1.227,1.604c0.175-0.741,0.33-1.375,0.473-2.012c0.078-0.343,0.2-0.693,0.188-1.037
			c-0.045-1.407-0.18-2.792-1.139-3.891l9.097-4.628c0.173,0.208,0.339,0.421,0.483,0.655c0.419,0.675,0.844,1.407,1.002,2.168
			c0.148,0.711-0.029,1.496-0.104,2.244c-0.033,0.317-0.135,0.637-0.264,0.93c-0.053,0.117-0.346,0.265-0.388,0.23
			c-0.745-0.619-1.621-0.644-2.515-0.583c-1.114,0.077-2.225,0.921-2.686,1.99c-0.318,0.741-0.316,1.524-0.176,2.248
			c0.188,0.959,0.822,1.695,1.689,2.21c0.764,0.454,1.605,0.548,2.428,0.401c0.633-0.113,1.263-0.405,1.823-0.737
			c1.168-0.695,2.048-1.693,2.669-2.907c0.479-0.933,0.862-1.903,0.814-2.974c-0.045-0.955-0.023-1.936-0.245-2.853
			c-0.313-1.294-0.809-2.523-1.589-3.66c-0.15-0.217-0.307-0.424-0.469-0.621l6.174-3.143h-11.158
			c-1.022-0.309-2.093-0.488-3.188-0.562c-1.162-0.079-2.311-0.017-3.442,0.089c-0.663,0.062-1.319,0.229-1.948,0.473h-10.871
			l-2.766,6.396c-0.762-0.513-1.572-0.945-2.432-1.293c-0.909-0.367-1.86-0.669-2.821-0.866c-1.083-0.222-2.199-0.421-3.296-0.394
			c-0.988,0.026-1.969,0.366-2.953,0.575c-1.352,0.288-2.537,0.946-3.6,1.788c-0.381,0.303-0.748,0.62-1.104,0.946h-3.945
			l-0.895-1.194c0.135-0.148,0.262-0.302,0.398-0.445c0.658-0.691,1.381-1.348,2.164-1.891c0.955-0.661,1.973-1.252,3.023-1.748
			c0.842-0.397,1.779-0.586,2.66-0.904c1.656-0.597,3.371-0.413,5.068-0.398c0.471,0.002,0.938,0.202,1.53,0.34
			c-0.112-0.16-0.161-0.299-0.253-0.344c-0.889-0.428-1.772-0.876-2.689-1.244c-0.428-0.172-0.918-0.218-1.385-0.259
			c-1.08-0.093-2.164-0.212-3.244-0.196c-0.705,0.011-1.414,0.21-2.107,0.38c-0.768,0.188-1.549,0.369-2.268,0.681
			c-0.949,0.414-1.865,0.918-2.756,1.446c-0.828,0.492-1.559,1.107-2.246,1.771l-2.281-3.048h-11.707l1.836,2.676
			c-1.703,1.073-3.146,2.643-4.035,4.523c-0.117-0.438-0.268-0.807-0.307-1.186c-0.109-1.081-0.566-2.025-1.309-2.758
			c-0.537-0.532-1.238-0.973-1.945-1.248c-1.012-0.391-2.092-0.623-3.154-0.866c-0.615-0.14-1.26-0.145-1.885-0.251
			c-0.51-0.086-1.012-0.225-1.514-0.354c-0.619-0.16-1.236-0.326-1.85-0.503c-0.266-0.076-0.518-0.189-0.879-0.324
			c0.045,0.257,0.061,0.441,0.111,0.614c0.188,0.646,0.412,1.282,0.58,1.933c0.225,0.875,0.418,1.758,0.604,2.643
			c0.107,0.513,0.199,1.031,0.248,1.554c0.152,1.578,0.66,3.042,1.623,4.284c0.527,0.679,1.307,1.141,2.186,1.355
			c0.654,0.162,1.307,0.34,2.012,0.523c-1.201,0.618-2.24,1.384-3.121,2.302l-4.131-2.835v11.707l2.127,1.592
			c0.023,0.051,0.039,0.101,0.062,0.153c0.014-0.027,0.025-0.051,0.039-0.078l2.189,1.638c-0.221,0.779-0.84,1.255-1.354,1.817
			c-1.346,1.467-2.475,3.065-3.172,4.958c-0.398,1.077-0.766,2.143-0.836,3.296c-0.061,0.992-0.236,1.991-0.17,2.973
			c0.064,0.96,0.336,1.912,0.584,2.851c0.166,0.631,0.418,1.246,0.688,1.84C223.674,147.666,223.952,147.977,224.247,148.275z
			 M239.02,121.517c0.443,0.355,0.873,0.726,1.311,1.089c-0.02,0.055-0.039,0.111-0.057,0.166c-0.449-0.023-0.896-0.061-1.346-0.065
			c-0.734-0.009-1.467,0.001-2.199,0.011c-0.178,0.001-0.355,0.037-0.535,0.044c-0.258,0.012-0.51,0.052-0.76,0.091l-3.229-2.216
			c0.133-0.061,0.262-0.127,0.395-0.181c0.742-0.296,1.625-0.266,2.449-0.308C236.547,120.07,237.862,120.591,239.02,121.517z
			 M240.405,147.784v-5.913v-2.214c0.744,0.643,1.383,1.38,1.713,2.293c0.279,0.778,0.555,1.647,0.205,2.527
			c-0.127,0.318-0.184,0.664-0.283,0.993C241.745,146.451,241.17,147.184,240.405,147.784z M242.831,109.099l1.875,2.734
			c-0.215,0.447-0.406,0.908-0.553,1.398c-0.408,1.349-0.586,2.718-0.592,4.111c-0.002,0.529,0.127,1.057,0.188,1.586
			c0.012,0.114-0.014,0.234-0.025,0.439c-0.854-0.714-1.418-1.541-1.928-2.42c-0.801-1.391-0.793-2.922-0.609-4.414
			c0.156-1.246,0.822-2.35,1.586-3.363C242.79,109.146,242.811,109.124,242.831,109.099z M265.598,119.525h3.115
			c-0.482,0.564-1.07,1.027-1.733,1.405c-0.235,0.135-0.501,0.231-0.767,0.294c-1.666,0.393-3.207,0.282-4.611-0.896
			c-0.301-0.253-0.576-0.523-0.838-0.803H265.598z M273.679,109.529h-10.142c0.307-0.147,0.629-0.279,0.959-0.392
			c1.031-0.35,2.069-0.506,3.138-0.654c0.995-0.139,1.948,0.022,2.911,0.077c0.723,0.042,1.444,0.321,2.139,0.573
			C273.018,109.254,273.351,109.386,273.679,109.529z M250.874,121.995c-0.268-0.802-0.402-1.63-0.459-2.469h5.014
			c0.178,0.669,0.43,1.317,0.768,1.944c0.789,1.456,1.914,2.575,3.279,3.469c0.807,0.529,1.689,0.928,2.66,1.036
			c0.965,0.107,1.936,0.199,2.906,0.208c0.853,0.008,1.686-0.176,2.46-0.577c0.747-0.387,1.552-0.682,2.249-1.143
			c1.15-0.757,2.071-1.745,2.647-3.03c0.278-0.622,0.459-1.257,0.562-1.906h2.132l3.583-1.822c-0.006,0.333-0.02,0.667-0.047,1.004
			c-0.072,0.862-0.34,1.749-0.705,2.536c-0.545,1.172-1.162,2.337-1.926,3.374c-0.803,1.09-1.658,2.176-2.844,2.922
			c-0.906,0.569-1.751,1.237-2.68,1.763c-0.732,0.415-1.534,0.728-2.335,0.998c-0.976,0.33-1.97,0.629-2.979,0.826
			c-0.641,0.124-1.324,0.013-1.986,0.048c-1.164,0.062-2.234-0.292-3.332-0.609c-1.416-0.409-2.713-1.061-3.918-1.856
			c-1.236-0.816-2.291-1.848-3.195-3.063C251.891,124.518,251.307,123.291,250.874,121.995z M237.217,157.631l2.863-5.631
			c0.277-0.027,0.557-0.068,0.838-0.123c1.74-0.336,3.061-1.264,4.15-2.594c0.65-0.795,1.104-1.693,1.512-2.642
			c0.664-1.54,0.723-3.138,0.566-4.726c-0.129-1.287-0.523-2.573-1.348-3.621c-0.621-0.787-1.32-1.519-2.049-2.209
			c-0.77-0.731-1.727-1.151-2.738-1.496c-0.203-0.069-0.406-0.122-0.607-0.173v-5.008c0.176,0.009,0.352,0.01,0.523,0.034
			c0.758,0.106,1.533,0.232,2.24,0.505c1.047,0.404,2.109,0.843,3.039,1.459c0.912,0.606,1.717,1.401,2.475,2.203
			c0.928,0.983,1.627,2.146,2.162,3.388c0.402,0.934,0.789,1.883,1.066,2.858c0.395,1.387,0.418,2.856,0.195,4.243
			c-0.375,2.314-1.172,4.498-2.451,6.525c-1.082,1.719-2.43,3.138-4.004,4.352c-0.887,0.686-1.867,1.273-2.875,1.764
			c-0.744,0.359-1.613,0.445-2.4,0.73C239.331,157.85,238.256,157.709,237.217,157.631z M230.407,142.79v8.573l-0.367,0.16
			c-0.299-0.904-0.533-1.812-0.539-2.779c-0.002-0.313-0.176-0.633-0.148-0.939c0.078-0.875,0.195-1.748,0.35-2.613
			c0.104-0.583,0.287-1.153,0.453-1.723C230.223,143.232,230.315,143.011,230.407,142.79z"/>
	</g>
	<g>
		<path fill="none" stroke="#1D1D1B" stroke-width="0.5" stroke-miterlimit="10" d="M223.511,615.978
			c-0.27,0.594-0.521,1.209-0.688,1.84c-0.248,0.939-0.52,1.891-0.584,2.852c-0.066,0.981,0.109,1.98,0.17,2.973
			c0.07,1.152,0.438,2.219,0.836,3.295c0.697,1.893,1.826,3.49,3.172,4.958c0.514,0.562,1.133,1.038,1.354,1.817l-2.189,1.638
			c-0.014-0.026-0.025-0.052-0.039-0.078c-0.023,0.052-0.039,0.103-0.062,0.153l-2.127,1.592v11.707l4.131-2.836
			c0.881,0.918,1.92,1.685,3.121,2.303c-0.705,0.183-1.357,0.361-2.012,0.522c-0.879,0.214-1.658,0.676-2.186,1.354
			c-0.963,1.242-1.471,2.707-1.623,4.285c-0.049,0.521-0.141,1.041-0.248,1.553c-0.186,0.886-0.379,1.77-0.604,2.644
			c-0.168,0.651-0.393,1.287-0.58,1.933c-0.051,0.173-0.066,0.357-0.111,0.614c0.361-0.136,0.613-0.249,0.879-0.324
			c0.613-0.178,1.23-0.344,1.85-0.503c0.502-0.129,1.004-0.268,1.514-0.354c0.625-0.107,1.27-0.111,1.885-0.252
			c1.062-0.243,2.143-0.475,3.154-0.865c0.707-0.275,1.408-0.717,1.945-1.248c0.742-0.733,1.199-1.678,1.309-2.758
			c0.039-0.379,0.189-0.748,0.307-1.186c0.889,1.88,2.332,3.449,4.035,4.523l-1.836,2.676h11.707l2.281-3.048
			c0.688,0.663,1.418,1.278,2.246,1.771c0.891,0.527,1.807,1.032,2.756,1.445c0.719,0.312,1.5,0.493,2.268,0.682
			c0.693,0.17,1.402,0.369,2.107,0.381c1.08,0.016,2.164-0.104,3.244-0.197c0.467-0.041,0.957-0.086,1.385-0.258
			c0.917-0.369,1.801-0.816,2.689-1.244c0.092-0.045,0.141-0.185,0.253-0.345c-0.592,0.138-1.06,0.339-1.53,0.341
			c-1.697,0.014-3.412,0.197-5.068-0.398c-0.881-0.318-1.818-0.508-2.66-0.904c-1.051-0.496-2.068-1.088-3.023-1.748
			c-0.783-0.543-1.506-1.2-2.164-1.891c-0.137-0.145-0.264-0.298-0.398-0.445l0.895-1.195h3.945
			c0.355,0.327,0.723,0.644,1.104,0.947c1.062,0.842,2.248,1.5,3.6,1.787c0.984,0.209,1.965,0.549,2.953,0.575
			c1.097,0.027,2.213-0.171,3.296-0.394c0.961-0.197,1.912-0.498,2.821-0.865c0.859-0.35,1.67-0.781,2.432-1.294l2.766,6.396h10.871
			c0.629,0.243,1.285,0.41,1.948,0.473c1.132,0.105,2.28,0.168,3.442,0.09c1.095-0.074,2.165-0.254,3.188-0.562h11.158l-6.174-3.143
			c0.162-0.197,0.318-0.404,0.469-0.621c0.78-1.137,1.275-2.365,1.589-3.66c0.222-0.918,0.2-1.898,0.245-2.854
			c0.048-1.07-0.336-2.041-0.814-2.974c-0.621-1.214-1.501-2.212-2.669-2.907c-0.561-0.332-1.19-0.623-1.823-0.736
			c-0.822-0.147-1.664-0.053-2.428,0.4c-0.867,0.516-1.501,1.252-1.689,2.211c-0.141,0.723-0.143,1.507,0.176,2.248
			c0.461,1.068,1.571,1.912,2.686,1.989c0.894,0.062,1.77,0.036,2.515-0.583c0.042-0.035,0.335,0.113,0.388,0.23
			c0.129,0.293,0.23,0.612,0.264,0.93c0.074,0.748,0.252,1.533,0.104,2.244c-0.158,0.761-0.583,1.492-1.002,2.168
			c-0.145,0.234-0.311,0.447-0.483,0.655l-9.097-4.628c0.959-1.1,1.094-2.484,1.139-3.892c0.013-0.345-0.109-0.694-0.188-1.037
			c-0.143-0.638-0.298-1.271-0.473-2.013c-0.471,0.622-0.817,1.141-1.227,1.604c-0.753,0.852-1.643,1.562-2.842,1.486
			c-0.969-0.062-1.824-0.532-2.584-1.164c-1.973-1.645-3.191-3.811-4.293-6.066c-0.773-1.582-1.718-3.066-2.926-4.344
			c-0.941-0.996-1.949-1.947-3.028-2.791c-0.87-0.68-1.862-1.223-2.853-1.725c-0.877-0.447-1.818-0.777-2.746-1.114
			c-0.709-0.257-1.439-0.463-2.168-0.659c-0.835-0.224-1.676-0.424-2.52-0.611c-0.494-0.11-0.998-0.174-1.498-0.263
			c-0.705-0.126-1.408-0.262-2.111-0.386c-0.488-0.086-0.98-0.158-1.518-0.244c1.078-1.291,1.053-2.635,0.102-3.615
			c-0.916-0.949-2.268-1.143-3.672-0.021c-0.096-0.395-0.211-0.742-0.264-1.1c-0.098-0.665-0.152-1.338-0.238-2.006
			c-0.066-0.489-0.125-0.982-0.238-1.462c-0.178-0.774-0.408-1.538-0.6-2.31c-0.166-0.675-0.242-1.377-0.473-2.027
			c-0.365-1.031-0.83-2.025-1.246-3.037c-0.803-1.969-1.992-3.675-3.453-5.213c-1.182-1.238-2.48-2.336-3.93-3.228
			c-1.426-0.875-2.936-1.615-4.404-2.429c-1.596-0.885-2.955-2.053-3.939-3.6c-0.404-0.641-0.738-1.386-0.613-2.168
			c0.178-1.127,0.824-2,1.727-2.679c0.416-0.314,0.842-0.617,1.262-0.928c-0.004-0.052-0.01-0.104-0.016-0.158
			c-0.994-0.199-1.982-0.449-2.986-0.58c-0.475-0.062-0.975,0.128-1.467,0.166c-1.42,0.102-2.496,0.757-3.236,1.96
			c-0.025,0.041-0.039,0.084-0.062,0.127l-4.686-9.207c0.586-0.725,1.283-1.355,2.104-1.822c0.693-0.396,1.426-0.715,2.262-0.766
			c0.928-0.057,1.795,0.141,2.656,0.447c0.297,0.104,0.287,0.207,0.135,0.459c-0.697,1.133-0.807,2.372-0.223,3.541
			c0.811,1.623,2.523,2.25,4.385,1.596c1.215-0.425,1.91-1.386,2.156-2.578c0.199-0.953-0.006-1.91-0.516-2.805
			c-0.715-1.252-1.668-2.25-2.914-2.943c-0.99-0.551-2.045-0.91-3.213-0.934c-1.635-0.033-3.195,0.248-4.695,0.872
			c-0.973,0.407-1.869,0.925-2.646,1.663c-0.27,0.253-0.506,0.53-0.744,0.807l-2.27-4.459v8.831
			c-0.148,0.565-0.273,1.138-0.369,1.714c-0.164,1-0.064,2.041-0.064,3.064c0,1.003,0.098,1.984,0.434,2.955v14.037l5.268,2.279
			c-0.443,0.959-0.801,1.949-0.943,3.021c-0.137,1.01-0.318,2.02-0.395,3.034c-0.037,0.501,0.1,1.019,0.197,1.521
			c0.139,0.729,0.229,1.482,0.492,2.167c0.318,0.816,0.793,1.574,1.203,2.354c0.357,0.675,0.818,1.26,1.33,1.8v5.938
			c-0.408-0.331-0.805-0.675-1.184-1.039c-0.791-0.765-1.514-1.617-2.156-2.511c-0.627-0.867-1.158-1.814-1.643-2.77
			c-0.371-0.734-0.645-1.525-0.883-2.313c-0.256-0.843-0.557-1.705-0.598-2.569c-0.072-1.568-0.217-3.165,0.303-4.73
			C223.952,615.304,223.675,615.614,223.511,615.978z M235.05,643.134c-0.824-0.041-1.707-0.012-2.449-0.308
			c-0.133-0.054-0.262-0.12-0.395-0.181l3.229-2.217c0.25,0.039,0.502,0.078,0.76,0.091c0.18,0.007,0.357,0.042,0.535,0.044
			c0.732,0.01,1.465,0.02,2.199,0.011c0.449-0.005,0.896-0.042,1.346-0.065c0.018,0.055,0.037,0.111,0.057,0.166
			c-0.438,0.363-0.867,0.733-1.311,1.089C237.862,642.689,236.548,643.21,235.05,643.134z M242.04,617.811
			c0.1,0.329,0.156,0.675,0.283,0.993c0.35,0.879,0.074,1.748-0.205,2.527c-0.33,0.912-0.969,1.65-1.713,2.293v-2.215v-5.913
			C241.171,616.097,241.745,616.829,242.04,617.811z M242.772,654.11c-0.764-1.014-1.43-2.117-1.586-3.363
			c-0.184-1.492-0.191-3.023,0.609-4.414c0.51-0.88,1.074-1.707,1.928-2.42c0.012,0.204,0.037,0.324,0.025,0.438
			c-0.061,0.53-0.189,1.058-0.188,1.587c0.006,1.393,0.184,2.762,0.592,4.111c0.146,0.49,0.338,0.951,0.553,1.398l-1.875,2.733
			C242.812,654.157,242.79,654.135,242.772,654.11z M260.765,643.755c0.262-0.279,0.537-0.55,0.838-0.803
			c1.404-1.18,2.945-1.29,4.611-0.896c0.266,0.062,0.531,0.158,0.767,0.294c0.663,0.378,1.251,0.841,1.733,1.405h-3.115H260.765z
			 M272.685,654.147c-0.694,0.252-1.416,0.531-2.139,0.572c-0.963,0.055-1.916,0.217-2.911,0.078
			c-1.068-0.148-2.106-0.305-3.138-0.654c-0.33-0.113-0.652-0.245-0.959-0.393h10.142
			C273.352,653.894,273.019,654.026,272.685,654.147z M252.728,637.635c0.904-1.216,1.959-2.247,3.195-3.063
			c1.205-0.795,2.502-1.447,3.918-1.855c1.098-0.317,2.168-0.672,3.332-0.609c0.662,0.035,1.346-0.075,1.986,0.049
			c1.01,0.195,2.004,0.496,2.979,0.825c0.801,0.271,1.603,0.583,2.335,0.998c0.929,0.525,1.773,1.194,2.68,1.763
			c1.186,0.746,2.041,1.832,2.844,2.922c0.764,1.037,1.381,2.202,1.926,3.375c0.365,0.787,0.633,1.674,0.705,2.535
			c0.027,0.337,0.041,0.671,0.047,1.004l-3.583-1.822h-2.132c-0.103-0.648-0.283-1.283-0.562-1.906
			c-0.576-1.285-1.497-2.273-2.647-3.029c-0.697-0.461-1.502-0.756-2.249-1.144c-0.774-0.401-1.607-0.585-2.46-0.577
			c-0.971,0.009-1.941,0.101-2.906,0.207c-0.971,0.107-1.854,0.507-2.66,1.036c-1.365,0.894-2.49,2.013-3.279,3.469
			c-0.338,0.627-0.59,1.274-0.768,1.944h-5.014c0.057-0.84,0.191-1.668,0.459-2.469
			C251.308,639.989,251.892,638.763,252.728,637.635z M240.376,605.812c0.787,0.285,1.656,0.371,2.4,0.73
			c1.008,0.49,1.988,1.078,2.875,1.764c1.574,1.214,2.922,2.633,4.004,4.352c1.279,2.027,2.076,4.211,2.451,6.525
			c0.223,1.387,0.199,2.855-0.195,4.242c-0.277,0.975-0.664,1.925-1.066,2.858c-0.535,1.243-1.234,2.405-2.162,3.388
			c-0.758,0.803-1.562,1.598-2.475,2.203c-0.93,0.615-1.992,1.055-3.039,1.459c-0.707,0.273-1.482,0.399-2.24,0.506
			c-0.172,0.023-0.348,0.024-0.523,0.033v-5.008c0.201-0.051,0.404-0.104,0.607-0.174c1.012-0.344,1.969-0.764,2.738-1.495
			c0.729-0.69,1.428-1.423,2.049-2.21c0.824-1.048,1.219-2.334,1.348-3.621c0.156-1.588,0.098-3.186-0.566-4.726
			c-0.408-0.948-0.861-1.847-1.512-2.642c-1.09-1.33-2.41-2.258-4.15-2.594c-0.281-0.055-0.561-0.096-0.838-0.123l-2.863-5.631
			C238.257,605.571,239.331,605.431,240.376,605.812z M230.155,619.812c-0.166-0.569-0.35-1.14-0.453-1.723
			c-0.154-0.865-0.271-1.738-0.35-2.613c-0.027-0.307,0.146-0.626,0.148-0.939c0.006-0.967,0.24-1.875,0.539-2.779l0.367,0.16v8.573
			C230.315,620.27,230.224,620.048,230.155,619.812z"/>
	</g>
	<g>
		<path fill="none" stroke="#1D1D1B" stroke-width="0.5" stroke-miterlimit="10" d="M1060.816,615.005
			c0.52,1.565,0.375,3.162,0.303,4.73c-0.041,0.864-0.342,1.727-0.598,2.569c-0.238,0.788-0.512,1.579-0.883,2.313
			c-0.484,0.955-1.016,1.902-1.643,2.77c-0.643,0.894-1.365,1.746-2.156,2.511c-0.379,0.364-0.775,0.708-1.184,1.039v-5.938
			c0.512-0.54,0.973-1.125,1.33-1.8c0.41-0.78,0.885-1.538,1.203-2.354c0.264-0.685,0.354-1.438,0.492-2.167
			c0.098-0.503,0.234-1.021,0.197-1.521c-0.076-1.015-0.258-2.024-0.395-3.034c-0.143-1.072-0.5-2.062-0.943-3.021l5.268-2.279
			v-14.037c0.336-0.971,0.434-1.952,0.434-2.955c0-1.023,0.1-2.064-0.064-3.064c-0.096-0.576-0.221-1.148-0.369-1.714v-8.831
			l-2.27,4.459c-0.238-0.276-0.475-0.554-0.744-0.807c-0.777-0.738-1.674-1.256-2.646-1.663c-1.5-0.624-3.061-0.905-4.695-0.872
			c-1.168,0.023-2.223,0.383-3.213,0.934c-1.246,0.693-2.199,1.691-2.914,2.943c-0.51,0.895-0.715,1.852-0.516,2.805
			c0.246,1.192,0.941,2.153,2.156,2.578c1.861,0.654,3.574,0.027,4.385-1.596c0.584-1.169,0.475-2.408-0.223-3.541
			c-0.152-0.252-0.162-0.355,0.135-0.459c0.861-0.307,1.729-0.504,2.656-0.447c0.836,0.051,1.568,0.369,2.262,0.766
			c0.82,0.467,1.518,1.098,2.104,1.822l-4.686,9.207c-0.023-0.043-0.037-0.086-0.062-0.127c-0.74-1.203-1.816-1.858-3.236-1.96
			c-0.492-0.038-0.992-0.228-1.467-0.166c-1.004,0.131-1.992,0.381-2.986,0.58c-0.006,0.055-0.012,0.106-0.016,0.158
			c0.42,0.311,0.846,0.613,1.262,0.928c0.902,0.679,1.549,1.552,1.727,2.679c0.125,0.782-0.209,1.527-0.613,2.168
			c-0.984,1.547-2.344,2.715-3.939,3.6c-1.469,0.813-2.979,1.554-4.404,2.429c-1.449,0.892-2.748,1.989-3.93,3.228
			c-1.461,1.538-2.65,3.244-3.453,5.213c-0.416,1.012-0.881,2.006-1.246,3.037c-0.23,0.65-0.307,1.353-0.473,2.027
			c-0.191,0.771-0.422,1.535-0.6,2.31c-0.113,0.479-0.172,0.973-0.238,1.462c-0.086,0.668-0.141,1.341-0.238,2.006
			c-0.053,0.357-0.168,0.705-0.264,1.1c-1.404-1.121-2.756-0.928-3.672,0.021c-0.951,0.98-0.977,2.324,0.102,3.615
			c-0.537,0.086-1.029,0.158-1.518,0.244c-0.703,0.124-1.406,0.26-2.111,0.386c-0.5,0.089-1.004,0.152-1.498,0.263
			c-0.844,0.188-1.685,0.388-2.52,0.611c-0.729,0.196-1.459,0.402-2.168,0.659c-0.928,0.337-1.869,0.667-2.746,1.114
			c-0.99,0.502-1.982,1.045-2.853,1.725c-1.079,0.844-2.087,1.795-3.028,2.791c-1.208,1.277-2.152,2.762-2.926,4.344
			c-1.102,2.256-2.32,4.422-4.293,6.066c-0.76,0.632-1.615,1.102-2.584,1.164c-1.199,0.076-2.089-0.635-2.842-1.486
			c-0.409-0.463-0.756-0.981-1.227-1.604c-0.175,0.742-0.33,1.375-0.473,2.013c-0.078,0.343-0.2,0.692-0.188,1.037
			c0.045,1.407,0.18,2.792,1.139,3.892l-9.097,4.628c-0.173-0.208-0.339-0.421-0.483-0.655c-0.419-0.676-0.844-1.407-1.002-2.168
			c-0.148-0.711,0.029-1.496,0.104-2.244c0.033-0.317,0.135-0.637,0.264-0.93c0.053-0.117,0.346-0.266,0.388-0.23
			c0.745,0.619,1.621,0.645,2.515,0.583c1.114-0.077,2.225-0.921,2.686-1.989c0.318-0.741,0.316-1.525,0.176-2.248
			c-0.188-0.959-0.822-1.695-1.689-2.211c-0.764-0.453-1.605-0.548-2.428-0.4c-0.633,0.113-1.263,0.404-1.823,0.736
			c-1.168,0.695-2.048,1.693-2.669,2.907c-0.479,0.933-0.862,1.903-0.814,2.974c0.045,0.955,0.023,1.936,0.245,2.854
			c0.313,1.295,0.809,2.523,1.589,3.66c0.15,0.217,0.307,0.424,0.469,0.621l-6.174,3.143h11.158
			c1.022,0.309,2.093,0.488,3.188,0.562c1.162,0.078,2.311,0.016,3.442-0.09c0.663-0.062,1.319-0.229,1.948-0.473h10.871
			l2.766-6.396c0.762,0.513,1.572,0.944,2.432,1.294c0.909,0.367,1.86,0.668,2.821,0.865c1.083,0.223,2.199,0.421,3.296,0.394
			c0.988-0.026,1.969-0.366,2.953-0.575c1.352-0.287,2.537-0.945,3.6-1.787c0.381-0.304,0.748-0.62,1.104-0.947h3.945l0.895,1.195
			c-0.135,0.147-0.262,0.301-0.398,0.445c-0.658,0.69-1.381,1.348-2.164,1.891c-0.955,0.66-1.973,1.252-3.023,1.748
			c-0.842,0.396-1.779,0.586-2.66,0.904c-1.656,0.596-3.371,0.412-5.068,0.398c-0.471-0.002-0.938-0.203-1.53-0.341
			c0.112,0.16,0.161,0.3,0.253,0.345c0.889,0.428,1.772,0.875,2.689,1.244c0.428,0.172,0.918,0.217,1.385,0.258
			c1.08,0.094,2.164,0.213,3.244,0.197c0.705-0.012,1.414-0.211,2.107-0.381c0.768-0.188,1.549-0.369,2.268-0.682
			c0.949-0.413,1.865-0.918,2.756-1.445c0.828-0.492,1.559-1.107,2.246-1.771l2.281,3.048h11.707l-1.836-2.676
			c1.703-1.074,3.146-2.644,4.035-4.523c0.117,0.438,0.268,0.807,0.307,1.186c0.109,1.08,0.566,2.024,1.309,2.758
			c0.537,0.531,1.238,0.973,1.945,1.248c1.012,0.391,2.092,0.622,3.154,0.865c0.615,0.141,1.26,0.145,1.885,0.252
			c0.51,0.086,1.012,0.225,1.514,0.354c0.619,0.159,1.236,0.325,1.85,0.503c0.266,0.075,0.518,0.188,0.879,0.324
			c-0.045-0.257-0.061-0.441-0.111-0.614c-0.188-0.646-0.412-1.281-0.58-1.933c-0.225-0.874-0.418-1.758-0.604-2.644
			c-0.107-0.512-0.199-1.031-0.248-1.553c-0.152-1.578-0.66-3.043-1.623-4.285c-0.527-0.679-1.307-1.141-2.186-1.354
			c-0.654-0.161-1.307-0.34-2.012-0.522c1.201-0.618,2.24-1.385,3.121-2.303l4.131,2.836v-11.707l-2.127-1.592
			c-0.023-0.051-0.039-0.102-0.062-0.153c-0.014,0.026-0.025,0.052-0.039,0.078l-2.189-1.638c0.221-0.779,0.84-1.256,1.354-1.817
			c1.346-1.468,2.475-3.065,3.172-4.958c0.398-1.076,0.766-2.143,0.836-3.295c0.061-0.992,0.236-1.991,0.17-2.973
			c-0.064-0.961-0.336-1.912-0.584-2.852c-0.166-0.631-0.418-1.246-0.688-1.84C1061.389,615.614,1061.111,615.304,1060.816,615.005z
			 M1046.043,641.764c-0.443-0.355-0.873-0.726-1.311-1.089c0.02-0.055,0.039-0.111,0.057-0.166
			c0.449,0.023,0.896,0.061,1.346,0.065c0.734,0.009,1.467-0.001,2.199-0.011c0.178-0.002,0.355-0.037,0.535-0.044
			c0.258-0.013,0.51-0.052,0.76-0.091l3.229,2.217c-0.133,0.061-0.262,0.127-0.395,0.181c-0.742,0.296-1.625,0.267-2.449,0.308
			C1048.516,643.21,1047.201,642.689,1046.043,641.764z M1044.658,615.496v5.913v2.215c-0.744-0.643-1.383-1.381-1.713-2.293
			c-0.279-0.779-0.555-1.648-0.205-2.527c0.127-0.318,0.184-0.664,0.283-0.993C1043.318,616.829,1043.893,616.097,1044.658,615.496z
			 M1042.232,654.182l-1.875-2.733c0.215-0.447,0.406-0.908,0.553-1.398c0.408-1.35,0.586-2.719,0.592-4.111
			c0.002-0.529-0.127-1.057-0.188-1.587c-0.012-0.114,0.014-0.234,0.025-0.438c0.854,0.713,1.418,1.54,1.928,2.42
			c0.801,1.391,0.793,2.922,0.609,4.414c-0.156,1.246-0.822,2.35-1.586,3.363C1042.273,654.135,1042.252,654.157,1042.232,654.182z
			 M1019.465,643.755h-3.115c0.482-0.564,1.07-1.027,1.733-1.405c0.235-0.136,0.501-0.231,0.767-0.294
			c1.666-0.394,3.207-0.283,4.611,0.896c0.301,0.253,0.576,0.523,0.838,0.803H1019.465z M1011.384,653.751h10.142
			c-0.307,0.147-0.629,0.279-0.959,0.393c-1.031,0.35-2.069,0.506-3.138,0.654c-0.995,0.139-1.948-0.023-2.911-0.078
			c-0.723-0.041-1.444-0.32-2.139-0.572C1012.045,654.026,1011.712,653.894,1011.384,653.751z M1034.189,641.286
			c0.268,0.801,0.402,1.629,0.459,2.469h-5.014c-0.178-0.67-0.43-1.317-0.768-1.944c-0.789-1.456-1.914-2.575-3.279-3.469
			c-0.807-0.529-1.689-0.929-2.66-1.036c-0.965-0.106-1.936-0.198-2.906-0.207c-0.853-0.008-1.686,0.176-2.46,0.577
			c-0.747,0.388-1.552,0.683-2.249,1.144c-1.15,0.756-2.071,1.744-2.647,3.029c-0.278,0.623-0.459,1.258-0.562,1.906h-2.132
			l-3.583,1.822c0.006-0.333,0.02-0.667,0.047-1.004c0.072-0.861,0.34-1.748,0.705-2.535c0.545-1.173,1.162-2.338,1.926-3.375
			c0.803-1.09,1.658-2.176,2.844-2.922c0.906-0.568,1.751-1.237,2.68-1.763c0.732-0.415,1.534-0.728,2.335-0.998
			c0.976-0.329,1.97-0.63,2.979-0.825c0.641-0.124,1.324-0.014,1.986-0.049c1.164-0.062,2.234,0.292,3.332,0.609
			c1.416,0.408,2.713,1.061,3.918,1.855c1.236,0.816,2.291,1.848,3.195,3.063C1033.172,638.763,1033.756,639.989,1034.189,641.286z
			 M1047.846,605.649l-2.863,5.631c-0.277,0.027-0.557,0.068-0.838,0.123c-1.74,0.336-3.061,1.264-4.15,2.594
			c-0.65,0.795-1.104,1.693-1.512,2.642c-0.664,1.54-0.723,3.138-0.566,4.726c0.129,1.287,0.523,2.573,1.348,3.621
			c0.621,0.787,1.32,1.52,2.049,2.21c0.77,0.731,1.727,1.151,2.738,1.495c0.203,0.07,0.406,0.123,0.607,0.174v5.008
			c-0.176-0.009-0.352-0.01-0.523-0.033c-0.758-0.106-1.533-0.232-2.24-0.506c-1.047-0.404-2.109-0.844-3.039-1.459
			c-0.912-0.605-1.717-1.4-2.475-2.203c-0.928-0.982-1.627-2.145-2.162-3.388c-0.402-0.934-0.789-1.884-1.066-2.858
			c-0.395-1.387-0.418-2.855-0.195-4.242c0.375-2.314,1.172-4.498,2.451-6.525c1.082-1.719,2.43-3.138,4.004-4.352
			c0.887-0.686,1.867-1.273,2.875-1.764c0.744-0.359,1.613-0.445,2.4-0.73C1045.732,605.431,1046.807,605.571,1047.846,605.649z
			 M1054.656,620.49v-8.573l0.367-0.16c0.299,0.904,0.533,1.812,0.539,2.779c0.002,0.313,0.176,0.633,0.148,0.939
			c-0.078,0.875-0.195,1.748-0.35,2.613c-0.104,0.583-0.287,1.153-0.453,1.723C1054.84,620.048,1054.748,620.27,1054.656,620.49z"/>
	</g>
</g>
</svg>
