<?xml version="1.0" encoding="utf-8"?>
<!-- Generator: Adobe Illustrator 16.0.0, SVG Export Plug-In . SVG Version: 6.00 Build 0)  -->
<!DOCTYPE svg PUBLIC "-//W3C//DTD SVG 1.1//EN" "http://www.w3.org/Graphics/SVG/1.1/DTD/svg11.dtd">
<svg version="1.1" id="Layer_1" xmlns="http://www.w3.org/2000/svg" xmlns:xlink="http://www.w3.org/1999/xlink" x="0px" y="0px"
	 width="1280px" height="800px" viewBox="0 0 1280 800" enable-background="new 0 0 1280 800" xml:space="preserve">
<g>
	
		<polygon fill-rule="evenodd" clip-rule="evenodd" fill="none" stroke="#000000" stroke-width="0.5" stroke-miterlimit="10" points="
		1054.677,115.308 1054.677,108.876 1047.568,108.876 1025.903,137.54 	"/>
	
		<polygon fill-rule="evenodd" clip-rule="evenodd" fill="none" stroke="#000000" stroke-width="0.5" stroke-miterlimit="10" points="
		1044.761,108.876 1034.192,123.782 1013.323,123.694 983.801,108.876 1011.235,108.876 1013.758,114.638 1029.657,114.638 
		1033.484,108.876 	"/>
	
		<polygon fill-rule="evenodd" clip-rule="evenodd" fill="none" stroke="#000000" stroke-width="0.5" stroke-miterlimit="10" points="
		1054.677,118.532 1039.75,129.099 1039.838,149.968 1054.677,179.489 1054.677,152.054 1048.896,149.532 1048.896,133.632 
		1054.677,129.806 	"/>
	
		<polygon fill-rule="evenodd" clip-rule="evenodd" fill="none" stroke="#000000" stroke-width="0.5" stroke-miterlimit="10" points="
		1060.688,104.128 1060.688,184.806 1057.268,178.556 1057.268,106.739 1054.656,106.79 982.839,106.79 976.586,103.368 
		1060.688,103.368 	"/>
	
		<polygon fill-rule="evenodd" clip-rule="evenodd" fill="none" stroke="#000000" stroke-width="0.5" stroke-miterlimit="10" points="
		1054.656,132.343 1054.656,149.001 1050.707,135.167 	"/>
	
		<polygon fill-rule="evenodd" clip-rule="evenodd" fill="none" stroke="#000000" stroke-width="0.5" stroke-miterlimit="10" points="
		1030.937,108.876 1014.278,108.876 1023.399,111.479 1028.112,112.825 	"/>
</g>
<g>
	
		<polygon fill-rule="evenodd" clip-rule="evenodd" fill="none" stroke="#000000" stroke-width="0.5" stroke-miterlimit="10" points="
		231.436,115.308 231.436,108.876 238.544,108.876 260.209,137.54 	"/>
	
		<polygon fill-rule="evenodd" clip-rule="evenodd" fill="none" stroke="#000000" stroke-width="0.5" stroke-miterlimit="10" points="
		241.352,108.876 251.92,123.782 272.79,123.694 302.312,108.876 274.877,108.876 272.355,114.638 256.456,114.638 252.628,108.876 
			"/>
	
		<polygon fill-rule="evenodd" clip-rule="evenodd" fill="none" stroke="#000000" stroke-width="0.5" stroke-miterlimit="10" points="
		231.436,118.532 246.363,129.099 246.275,149.968 231.436,179.489 231.436,152.054 237.217,149.532 237.217,133.632 
		231.436,129.806 	"/>
	
		<polygon fill-rule="evenodd" clip-rule="evenodd" fill="none" stroke="#000000" stroke-width="0.5" stroke-miterlimit="10" points="
		225.424,104.128 225.424,184.806 228.845,178.556 228.845,106.739 231.457,106.79 303.274,106.79 309.527,103.368 225.424,103.368 
			"/>
	
		<polygon fill-rule="evenodd" clip-rule="evenodd" fill="none" stroke="#000000" stroke-width="0.5" stroke-miterlimit="10" points="
		231.457,132.343 231.457,149.001 235.406,135.167 	"/>
	
		<polygon fill-rule="evenodd" clip-rule="evenodd" fill="none" stroke="#000000" stroke-width="0.5" stroke-miterlimit="10" points="
		255.176,108.876 271.834,108.876 262.713,111.479 258,112.825 	"/>
</g>
</svg>
