<?xml version="1.0" encoding="utf-8"?>
<!-- Generator: Adobe Illustrator 16.0.0, SVG Export Plug-In . SVG Version: 6.00 Build 0)  -->
<!DOCTYPE svg PUBLIC "-//W3C//DTD SVG 1.1//EN" "http://www.w3.org/Graphics/SVG/1.1/DTD/svg11.dtd">
<svg version="1.1" id="Layer_1" xmlns="http://www.w3.org/2000/svg" xmlns:xlink="http://www.w3.org/1999/xlink" x="0px" y="0px"
	 width="1280px" height="800px" viewBox="0 0 1280 800" enable-background="new 0 0 1280 800" xml:space="preserve">
<g>
	
		<polygon fill-rule="evenodd" clip-rule="evenodd" fill="none" stroke="#000000" stroke-width="0.5" stroke-miterlimit="10" points="
		231.436,644.907 231.436,651.339 238.544,651.339 260.209,622.675 	"/>
	
		<polygon fill-rule="evenodd" clip-rule="evenodd" fill="none" stroke="#000000" stroke-width="0.5" stroke-miterlimit="10" points="
		241.352,651.339 251.92,636.433 272.79,636.521 302.312,651.339 274.877,651.339 272.355,645.577 256.456,645.577 252.628,651.339 
			"/>
	
		<polygon fill-rule="evenodd" clip-rule="evenodd" fill="none" stroke="#000000" stroke-width="0.5" stroke-miterlimit="10" points="
		231.436,641.683 246.363,631.116 246.275,610.247 231.436,580.726 231.436,608.161 237.217,610.683 237.217,626.583 
		231.436,630.409 	"/>
	
		<polygon fill-rule="evenodd" clip-rule="evenodd" fill="none" stroke="#000000" stroke-width="0.5" stroke-miterlimit="10" points="
		225.424,656.087 225.424,575.409 228.845,581.659 228.845,653.476 231.457,653.425 303.274,653.425 309.527,656.847 
		225.424,656.847 	"/>
	
		<polygon fill-rule="evenodd" clip-rule="evenodd" fill="none" stroke="#000000" stroke-width="0.5" stroke-miterlimit="10" points="
		231.457,627.872 231.457,611.214 235.406,625.048 	"/>
	
		<polygon fill-rule="evenodd" clip-rule="evenodd" fill="none" stroke="#000000" stroke-width="0.5" stroke-miterlimit="10" points="
		255.176,651.339 271.834,651.339 262.713,648.735 258,647.39 	"/>
</g>
<g>
	
		<polygon fill-rule="evenodd" clip-rule="evenodd" fill="none" stroke="#000000" stroke-width="0.5" stroke-miterlimit="10" points="
		1054.677,644.907 1054.677,651.339 1047.568,651.339 1025.903,622.675 	"/>
	
		<polygon fill-rule="evenodd" clip-rule="evenodd" fill="none" stroke="#000000" stroke-width="0.5" stroke-miterlimit="10" points="
		1044.761,651.339 1034.192,636.433 1013.323,636.521 983.801,651.339 1011.235,651.339 1013.758,645.577 1029.657,645.577 
		1033.484,651.339 	"/>
	
		<polygon fill-rule="evenodd" clip-rule="evenodd" fill="none" stroke="#000000" stroke-width="0.5" stroke-miterlimit="10" points="
		1054.677,641.683 1039.75,631.116 1039.838,610.247 1054.677,580.726 1054.677,608.161 1048.896,610.683 1048.896,626.583 
		1054.677,630.409 	"/>
	
		<polygon fill-rule="evenodd" clip-rule="evenodd" fill="none" stroke="#000000" stroke-width="0.5" stroke-miterlimit="10" points="
		1060.688,656.087 1060.688,575.409 1057.268,581.659 1057.268,653.476 1054.656,653.425 982.839,653.425 976.586,656.847 
		1060.688,656.847 	"/>
	
		<polygon fill-rule="evenodd" clip-rule="evenodd" fill="none" stroke="#000000" stroke-width="0.5" stroke-miterlimit="10" points="
		1054.656,627.872 1054.656,611.214 1050.707,625.048 	"/>
	
		<polygon fill-rule="evenodd" clip-rule="evenodd" fill="none" stroke="#000000" stroke-width="0.5" stroke-miterlimit="10" points="
		1030.937,651.339 1014.278,651.339 1023.399,648.735 1028.112,647.39 	"/>
</g>
</svg>
