<?xml version="1.0" encoding="utf-8"?>
<!-- Generator: Adobe Illustrator 16.0.0, SVG Export Plug-In . SVG Version: 6.00 Build 0)  -->
<!DOCTYPE svg PUBLIC "-//W3C//DTD SVG 1.1//EN" "http://www.w3.org/Graphics/SVG/1.1/DTD/svg11.dtd">
<svg version="1.1" id="Layer_1" xmlns="http://www.w3.org/2000/svg" xmlns:xlink="http://www.w3.org/1999/xlink" x="0px" y="0px"
	 width="137.312px" height="137.812px" viewBox="419.788 337.125 137.312 137.812"
	 enable-background="new 419.788 337.125 137.312 137.812" xml:space="preserve">
<path fill="none" stroke="#000000" stroke-width="0.5" stroke-miterlimit="10" d="M458.476,354.167
	c0,24.604,1.039,49.494-0.591,74.016c-0.322,4.851-0.378,10.038-0.075,14.899c0.172,2.758,1.274,5.28,1,8.085"/>
<path fill="none" stroke="#000000" stroke-width="0.5" stroke-miterlimit="10" d="M473.809,356.167
	c1.06,3.84,1.539,7.754,2.798,11.664c2.779,8.631,7.026,16.405,10.194,24.845c3.599,9.589,6.123,19.236,8.081,29.276
	c1.574,8.071,4.455,16.395,5.318,24.504c4.893-1.932,7.838-13.45,8.977-17.717c4.225-15.829,6.695-32.149,13.214-47.277
	c3.776-8.764,6.031-16.76,7.833-26.112c0.732-3.797,0.618-10.121,2.919-13.184"/>
<path fill="none" stroke="#000000" stroke-width="0.5" stroke-miterlimit="10" d="M434.142,450.167
	c1.79,0.665,4.084,0.335,6.042,0.333c5.886-0.007,11.771,0,17.657,0c6.74,0,13.479,0,20.219,0c8.464,0,17.001,0.322,25.333-0.665
	c7.901-0.937,15.754-0.338,23.682-0.668c3.729-0.155,7.321-1.114,11.066-1"/>
<path fill="none" stroke="#000000" stroke-width="0.5" stroke-miterlimit="10" d="M544.476,348.5
	c-4.673-0.345-10.561,1.593-15.6,2.884c-9.777,2.506-19.784,3.752-29.839,4.374c-9.021,0.557-17.999,1.674-26.845,3.574
	c-6.162,1.324-12.123,2.448-18.391,3.077c-3.002,0.301-8.231-0.095-10.659,1.091"/>
</svg>
