<?xml version="1.0" encoding="utf-8"?>
<!-- Generator: Adobe Illustrator 16.0.0, SVG Export Plug-In . SVG Version: 6.00 Build 0)  -->
<!DOCTYPE svg PUBLIC "-//W3C//DTD SVG 1.1//EN" "http://www.w3.org/Graphics/SVG/1.1/DTD/svg11.dtd">
<svg version="1.1" id="Layer_1" xmlns="http://www.w3.org/2000/svg" xmlns:xlink="http://www.w3.org/1999/xlink" x="0px" y="0px"
	 width="137.312px" height="137.812px" viewBox="419.788 337.125 137.312 137.812"
	 enable-background="new 419.788 337.125 137.312 137.812" xml:space="preserve">
<path fill="none" stroke="#000000" stroke-width="0.5" stroke-miterlimit="10" d="M453.222,359.5c0,24.742,0,49.484,0,74.226
	c0,6.673,0.029,13.806,2,20.107"/>
<path fill="none" stroke="#000000" stroke-width="0.5" stroke-miterlimit="10" d="M530.222,356.833
	c2.96,3.635-4.86,14.588-6.55,17.628c-5.725,10.298-12.909,19.634-20.41,28.695c-8.342,10.077-15.398,20.437-22.711,31.215
	c-2.24,3.301-8.419,9.583-7.662,14.129"/>
<path fill="none" stroke="#000000" stroke-width="0.5" stroke-miterlimit="10" d="M471.889,359.5
	c11.797,13.475,25.653,25.143,36.677,39.401c6.598,8.534,14.845,17.2,19.407,27.026c2.292,4.935,3.144,10.203,5.167,15.238
	c1.336,3.324,2.762,6.309,2.416,10.001"/>
<path fill="none" stroke="#000000" stroke-width="0.5" stroke-miterlimit="10" d="M537.222,355.5
	c-5.238-0.364-11.213,1.78-16.267,2.917c-9.533,2.143-19.065,3.055-28.823,3.514c-8.062,0.379-16.263,0.591-24.316,0.569
	c-4.804-0.013-9.654,0.209-14.452,0.008c-3.159-0.133-6.312-1.231-9.475-1.008"/>
<path fill="none" stroke="#000000" stroke-width="0.5" stroke-miterlimit="10" d="M541.889,447.167
	c-13.998,0-27.999-0.084-41.997,0.013c-11.296,0.079-21.849-4.216-33.117-4.345c-3-0.034-27.167-2.372-28.886,1.332"/>
</svg>
