<?xml version="1.0" encoding="utf-8"?>
<!-- Generator: Adobe Illustrator 16.0.0, SVG Export Plug-In . SVG Version: 6.00 Build 0)  -->
<!DOCTYPE svg PUBLIC "-//W3C//DTD SVG 1.1//EN" "http://www.w3.org/Graphics/SVG/1.1/DTD/svg11.dtd">
<svg version="1.1" id="Layer_1" xmlns="http://www.w3.org/2000/svg" xmlns:xlink="http://www.w3.org/1999/xlink" x="0px" y="0px"
	 width="137.312px" height="137.812px" viewBox="419.788 337.125 137.312 137.812"
	 enable-background="new 419.788 337.125 137.312 137.812" xml:space="preserve">
<path fill="none" stroke="#000000" stroke-width="0.5" stroke-miterlimit="10" d="M451.76,352.167
	c0,24.79,7.122,48.648,11.399,72.876c1.547,8.767,2.729,17.688,4.685,26.373c0.738,3.275,1.958,6.418,2.325,9.679
	c6.725-27.191,10.194-55.01,14.85-82.634c0.962-5.701,2.708-10.89,4.721-16.267c1.199-3.201,1.65-7.96,4.018-10.36"/>
<path fill="none" stroke="#000000" stroke-width="0.5" stroke-miterlimit="10" d="M504.758,349.833
	c0,27.149,1.218,54.858,6.075,81.621c1.644,9.053,5.272,17.662,6.258,26.713"/>
<path fill="none" stroke="#000000" stroke-width="0.5" stroke-miterlimit="10" d="M540.091,456.167
	c-4.457,1.383-10.371,0.333-15.007,0.333c-9.049,0-18.098,0-27.147,0c-11.833,0-23.665,0-35.5,0c-6.031,0-16.883-1.622-22.009,2.334
	"/>
<path fill="none" stroke="#000000" stroke-width="0.5" stroke-miterlimit="10" d="M441.094,354.167
	c18.407,0,37.351,1.239,55.574-0.701c6.199-0.66,12.641,0.116,18.89-0.381c3.339-0.266,7.266-0.752,10.533,0.082"/>
</svg>
