<?xml version="1.0" encoding="utf-8"?>
<!-- Generator: Adobe Illustrator 16.0.0, SVG Export Plug-In . SVG Version: 6.00 Build 0)  -->
<!DOCTYPE svg PUBLIC "-//W3C//DTD SVG 1.1//EN" "http://www.w3.org/Graphics/SVG/1.1/DTD/svg11.dtd">
<svg version="1.1" id="Layer_1" xmlns="http://www.w3.org/2000/svg" xmlns:xlink="http://www.w3.org/1999/xlink" x="0px" y="0px"
	 width="137.312px" height="137.812px" viewBox="419.788 337.125 137.312 137.812"
	 enable-background="new 419.788 337.125 137.312 137.812" xml:space="preserve">
<path fill="none" stroke="#000000" stroke-width="0.5" stroke-miterlimit="10" d="M444.811,353.167
	c0.008,24.034,3.409,47.691,4.358,71.671c0.335,8.474,0.793,18.695,4.327,26.517c-0.459-4.243,1.567-8.822,2.647-12.85
	c1.94-7.233,3.611-14.708,4.609-22.143c1.843-13.727,2.169-27.605,4.742-41.218c1.238-6.548,1.922-15.013,5.649-20.644"/>
<path fill="none" stroke="#000000" stroke-width="0.5" stroke-miterlimit="10" d="M519.479,353.833
	c0.823,2.327,0.334,5.421,0.334,7.904c0.002,9.381,0.015,18.761-0.008,28.142c-0.03,12.625,0.687,25.251,0.674,37.876
	c-0.003,2.799,2.303,30.396-4,28.744"/>
<path fill="none" stroke="#000000" stroke-width="0.5" stroke-miterlimit="10" d="M491.812,354.833
	c0,20.843-0.049,41.687-0.001,62.53c0.015,6.591-1.137,12.938-1.331,19.47c-0.09,3.014,0.66,6.885-0.335,9.667"/>
<path fill="none" stroke="#000000" stroke-width="0.5" stroke-miterlimit="10" d="M439.145,450.167
	c3.314,1.318,8.543,0.392,12.042,0.351c9.322-0.112,18.633-0.506,27.92-1.296c13.599-1.156,27.009-4.07,40.596-4.709
	c9.476-0.445,18.92-0.679,28.443-0.679"/>
<path fill="none" stroke="#000000" stroke-width="0.5" stroke-miterlimit="10" d="M434.811,354.5
	c3.632,1.258,8.754,0.333,12.577,0.333c6.432,0,12.659-0.045,19.04-0.758c11.592-1.294,23.184,0.205,34.661-2.01
	c14.031-2.708,27.896-1.565,42.057-1.565"/>
</svg>
