<?xml version="1.0" encoding="utf-8"?>
<!-- Generator: Adobe Illustrator 16.0.0, SVG Export Plug-In . SVG Version: 6.00 Build 0)  -->
<!DOCTYPE svg PUBLIC "-//W3C//DTD SVG 1.1//EN" "http://www.w3.org/Graphics/SVG/1.1/DTD/svg11.dtd">
<svg version="1.1" id="Layer_1" xmlns="http://www.w3.org/2000/svg" xmlns:xlink="http://www.w3.org/1999/xlink" x="0px" y="0px"
	 width="137.312px" height="137.812px" viewBox="419.788 337.125 137.312 137.812"
	 enable-background="new 419.788 337.125 137.312 137.812" xml:space="preserve">
<path fill="none" stroke="#000000" stroke-width="0.5" stroke-miterlimit="10" d="M439.809,357.833
	c3.854,7.985,7.919,15.604,12.72,23.179c6.75,10.651,12.459,21.939,19.803,32.208c4.195,5.866,8.13,11.745,12.053,17.79
	c2.527,3.895,7.234,8.362,7.757,13.156"/>
<path fill="none" stroke="#000000" stroke-width="0.5" stroke-miterlimit="10" d="M498.143,350.167
	c2.14,5.594-2.993,12.752-5.706,17.135c-10.753,17.368-20.721,35.163-29.62,53.53c-4.209,8.687-7.684,17.573-11.786,26.287
	c-1.542,3.278-3.712,6.179-5.222,9.381"/>
<path fill="none" stroke="#000000" stroke-width="0.5" stroke-miterlimit="10" d="M508.476,353.5
	c-0.303,6.931,2.42,13.924,3.413,20.773c2.548,17.584,1.92,35.549,1.92,53.27c0,6.255-0.397,12.346,1.418,18.373
	c0.802,2.662,2.174,5.397,1.916,8.251"/>
<path fill="none" stroke="#000000" stroke-width="0.5" stroke-miterlimit="10" d="M537.143,350.5
	c-3.184,1.106-8.724,0.431-12.498,0.911c-6.323,0.804-12.75,1.57-19.137,1.771c-5.644,0.177-11.354-0.414-16.98,0.196
	c-5.067,0.549-9.614,2.404-14.474,3.74c-8.935,2.458-18.345,2.48-27.364,4.465c-4.39,0.966-8.996,2.529-13.547,2.25"/>
<path fill="none" stroke="#000000" stroke-width="0.5" stroke-miterlimit="10" d="M437.142,450.5
	c4.557,1.181,10.324,0.465,14.996,0.268c8.42-0.356,16.813-0.951,25.25-0.933c8.893,0.02,17.785-0.001,26.678-0.001
	c9.993,0,20.184-0.938,30.077-0.667"/>
</svg>
