<?xml version="1.0" encoding="utf-8"?>
<!-- Generator: Adobe Illustrator 16.0.0, SVG Export Plug-In . SVG Version: 6.00 Build 0)  -->
<!DOCTYPE svg PUBLIC "-//W3C//DTD SVG 1.1//EN" "http://www.w3.org/Graphics/SVG/1.1/DTD/svg11.dtd">
<svg version="1.1" id="Layer_1" xmlns="http://www.w3.org/2000/svg" xmlns:xlink="http://www.w3.org/1999/xlink" x="0px" y="0px"
	 width="137.312px" height="137.812px" viewBox="419.788 337.125 137.312 137.812"
	 enable-background="new 419.788 337.125 137.312 137.812" xml:space="preserve">
<path fill="none" stroke="#000000" stroke-width="0.5" stroke-miterlimit="10" d="M490.809,356.5
	c-5.885,12.881-16.131,24.39-23.285,36.691c-6.463,11.115-13.939,22.677-18.655,34.666c-2.783,7.074-5.493,14.234-9.399,20.734
	c-1.414,2.353-3.252,4.678-3.994,7.242"/>
<path fill="none" stroke="#000000" stroke-width="0.5" stroke-miterlimit="10" d="M433.142,354.5
	c0.134,5.103,6.658,11.263,8.936,15.623c5.111,9.781,8.878,20.234,13.837,30.107c2.516,5.01,5.975,9.017,8.981,13.675
	c2.877,4.459,5.333,9.446,9.164,13.212c2.396,2.354,5.458,3.934,7.667,6.377c1.952,2.156,2.628,4.92,4.325,7.256
	c2.758,3.799,7.012,6.453,10.757,9.084"/>
<path fill="none" stroke="#000000" stroke-width="0.5" stroke-miterlimit="10" d="M500.143,352.833
	c1.525,3.111,0.608,10.489,0.758,14.016c0.373,8.847,0.242,17.704,0.242,26.556c0,9.767,0.338,18.5,2.499,28.038
	c1.261,5.566,3.041,10.979,4.574,16.47c0.586,2.1,1.844,4.349,1.593,6.587"/>
<path fill="none" stroke="#000000" stroke-width="0.5" stroke-miterlimit="10" d="M521.476,354.833
	c0,11.661-0.471,23.424,0.059,35.074c0.492,10.823,1.974,21.552,2.534,32.357c0.294,5.658,1.142,10.889,2.758,16.342
	c0.846,2.854,3.155,6.567,2.982,9.561"/>
<path fill="none" stroke="#000000" stroke-width="0.5" stroke-miterlimit="10" d="M543.143,447.834c-23.804,0-47.607,0.028-71.411,0
	c-9.778-0.012-19.694-0.036-29.474,0.326c-4.893,0.182-8.979,1.984-13.449,3.34"/>
<path fill="none" stroke="#000000" stroke-width="0.5" stroke-miterlimit="10" d="M428.142,357.167c36.209,0,72.144-3,108.333-3"/>
</svg>
